# Blender 4.5.3 LTS
# www.blender.org
mtllib letreropuertas.mtl
g sign_Mesh
v 7.068194 1.598946 -0.102321
v 6.950134 1.627030 -0.102321
v 6.950134 1.598946 -0.110623
v -6.832919 1.598946 0.139377
v -6.950980 -1.679709 0.131076
v -6.950980 1.598946 0.131076
v -6.832919 -1.679709 0.139377
v -6.832919 1.598946 0.139377
v -6.832919 -1.679709 0.139377
v 6.950134 1.598946 0.139377
v 6.950134 -1.679709 0.139377
v -6.832919 1.598946 0.139377
v -6.832919 1.627030 0.131076
v 6.950134 1.598946 0.139377
v 6.950134 1.627030 0.131076
v -6.832919 1.598946 0.139377
v -6.950980 1.598946 0.131076
v -6.832919 1.627030 0.131076
v -6.832919 1.627030 0.131076
v 6.950134 1.627030 0.131076
v -6.832919 1.627030 -0.102321
v 6.950134 1.627030 -0.102321
v -6.832919 1.627030 0.131076
v -6.832919 1.627030 -0.102321
v -6.950980 1.598946 0.131076
v -6.950980 1.598946 -0.102321
v -6.950980 1.598946 0.131076
v -6.950980 -1.679709 0.131076
v -6.950980 -1.679709 -0.102321
v -6.950980 1.598946 -0.102321
v -6.832919 -1.707793 0.131076
v 6.950134 -1.707793 0.131076
v -6.832919 -1.679709 0.139377
v 6.950134 -1.679709 0.139377
v -6.832919 -1.707793 0.131076
v 6.950134 -1.707793 0.131076
v 6.950134 -1.707793 -0.102321
v -6.832919 -1.707793 -0.102321
v -6.832919 -1.707793 0.131076
v -6.950980 -1.679709 0.131076
v -6.832919 -1.679709 0.139377
v -6.832919 -1.707793 0.131076
v -6.832919 -1.707793 -0.102321
v -6.950980 -1.679709 -0.102321
v -6.950980 -1.679709 0.131076
v -6.950980 1.598946 -0.102321
v -6.832919 1.598946 -0.110623
v -6.832919 1.627030 -0.102321
v -6.950980 1.598946 -0.102321
v -6.832919 -1.679709 -0.110623
v -6.832919 1.598946 -0.110623
v -6.950980 -1.679709 -0.102321
v -6.832919 1.627030 -0.102321
v 6.950134 1.627030 -0.102321
v -6.832919 1.598946 -0.110623
v 6.950134 1.598946 -0.110623
v -6.832919 1.598946 -0.110623
v -6.832919 -1.679709 -0.110623
v 6.950134 -1.679709 -0.110623
v 6.950134 1.598946 -0.110623
v -6.950980 -1.679709 -0.102321
v -6.832919 -1.707793 -0.102321
v -6.832919 -1.679709 -0.110623
v -6.832919 -1.679709 -0.110623
v -6.832919 -1.707793 -0.102321
v 6.950134 -1.679709 -0.110623
v 6.950134 -1.707793 -0.102321
v 6.950134 1.598946 0.139377
v 6.950134 1.627030 0.131076
v 7.068194 1.598946 0.131076
v 6.950134 1.598946 0.139377
v 6.950134 -1.679709 0.139377
v 7.068194 1.598946 0.131076
v 7.068194 -1.679709 0.131076
v 7.068194 1.598946 0.131076
v 6.950134 1.627030 0.131076
v 7.068194 1.598946 -0.102321
v 6.950134 1.627030 -0.102321
v 7.068194 1.598946 0.131076
v 7.068194 1.598946 -0.102321
v 7.068194 -1.679709 0.131076
v 7.068194 -1.679709 -0.102321
v 7.068194 -1.679709 0.131076
v 6.950134 -1.707793 0.131076
v 6.950134 -1.679709 0.139377
v 7.068194 -1.679709 0.131076
v 6.950134 -1.707793 -0.102321
v 6.950134 -1.707793 0.131076
v 7.068194 -1.679709 -0.102321
v 7.068194 1.598946 -0.102321
v 6.950134 1.598946 -0.110623
v 7.068194 -1.679709 -0.102321
v 6.950134 -1.679709 -0.110623
v 6.950134 -1.707793 -0.102321
v 7.068194 -1.679709 -0.102321
v 6.950134 -1.679709 -0.110623
v -5.493066 -2.696835 0.080906
v -5.478686 -2.696835 0.079569
v -5.507446 -2.696835 0.079569
v -5.521274 -2.696835 0.075609
v -5.464859 -2.696835 0.075609
v -5.534017 -2.696835 0.069180
v -5.452115 -2.696835 0.069180
v -5.440946 -2.696835 0.060527
v -5.545187 -2.696835 0.060527
v -5.431778 -2.696835 0.049984
v -5.554353 -2.696835 0.049984
v -5.561164 -2.696835 0.037955
v -5.424968 -2.696835 0.037955
v -5.565359 -2.696835 0.024903
v -5.419356 -2.696835 0.011329
v -5.566775 -2.696835 0.011329
v -5.420773 -2.696835 0.024903
v -5.420773 -2.696835 -0.002244
v -5.565359 -2.696835 -0.002244
v -5.561164 -2.696835 -0.015296
v -5.424968 -2.696835 -0.015296
v -5.554353 -2.696835 -0.027325
v -5.440946 -2.696835 -0.037868
v -5.545187 -2.696835 -0.037868
v -5.431778 -2.696835 -0.027325
v -5.452115 -2.696835 -0.046521
v -5.534017 -2.696835 -0.046521
v -5.521274 -2.696835 -0.052951
v -5.464859 -2.696835 -0.052951
v -5.507446 -2.696835 -0.056910
v -5.478686 -2.696835 -0.056910
v -5.493066 -2.696835 -0.058247
v -5.493066 -2.696835 0.080906
v -5.493066 -1.714162 0.080906
v -5.507446 -2.696835 0.079569
v -5.507446 -1.714162 0.079569
v -5.521274 -2.696835 0.075609
v -5.521274 -1.714162 0.075609
v -5.493066 -2.696835 0.080906
v -5.478686 -1.714162 0.079569
v -5.478686 -2.696835 0.079569
v -5.493066 -1.714162 0.080906
v -5.464859 -1.714162 0.075609
v -5.464859 -2.696835 0.075609
v -5.493066 -1.714162 0.080906
v -5.507446 -1.714162 0.079569
v -5.478686 -1.714162 0.079569
v -5.521274 -1.714162 0.075609
v -5.464859 -1.714162 0.075609
v -5.452115 -1.714162 0.069180
v -5.534017 -1.714162 0.069180
v -5.440946 -1.714162 0.060527
v -5.545187 -1.714162 0.060527
v -5.431778 -1.714162 0.049984
v -5.554353 -1.714162 0.049984
v -5.424968 -1.714162 0.037955
v -5.565359 -1.714162 0.024903
v -5.420773 -1.714162 0.024903
v -5.561164 -1.714162 0.037955
v -5.566775 -1.714162 0.011329
v -5.419356 -1.714162 0.011329
v -5.565359 -1.714162 -0.002244
v -5.420773 -1.714162 -0.002244
v -5.561164 -1.714162 -0.015296
v -5.424968 -1.714162 -0.015296
v -5.431778 -1.714162 -0.027325
v -5.554353 -1.714162 -0.027325
v -5.440946 -1.714162 -0.037868
v -5.545187 -1.714162 -0.037868
v -5.452115 -1.714162 -0.046521
v -5.534017 -1.714162 -0.046521
v -5.464859 -1.714162 -0.052951
v -5.507446 -1.714162 -0.056910
v -5.478686 -1.714162 -0.056910
v -5.521274 -1.714162 -0.052951
v -5.493066 -1.714162 -0.058247
v -5.521274 -2.696835 0.075609
v -5.521274 -1.714162 0.075609
v -5.534017 -2.696835 0.069180
v -5.534017 -1.714162 0.069180
v -5.545187 -2.696835 0.060527
v -5.545187 -1.714162 0.060527
v -5.554353 -2.696835 0.049984
v -5.554353 -1.714162 0.049984
v -5.561164 -2.696835 0.037955
v -5.561164 -1.714162 0.037955
v -5.565359 -2.696835 0.024903
v -5.565359 -1.714162 0.024903
v -5.566775 -2.696835 0.011329
v -5.566775 -1.714162 0.011329
v -5.565359 -2.696835 -0.002244
v -5.565359 -1.714162 -0.002244
v -5.561164 -2.696835 -0.015296
v -5.561164 -1.714162 -0.015296
v -5.554353 -2.696835 -0.027325
v -5.554353 -1.714162 -0.027325
v -5.545187 -2.696835 -0.037868
v -5.545187 -1.714162 -0.037868
v -5.534017 -2.696835 -0.046521
v -5.534017 -1.714162 -0.046521
v -5.521274 -2.696835 -0.052951
v -5.521274 -1.714162 -0.052951
v -5.521274 -2.696835 -0.052951
v -5.521274 -1.714162 -0.052951
v -5.507446 -2.696835 -0.056910
v -5.507446 -1.714162 -0.056910
v -5.493066 -2.696835 -0.058247
v -5.493066 -1.714162 -0.058247
v -5.493066 -2.696835 -0.058247
v -5.493066 -1.714162 -0.058247
v -5.478686 -2.696835 -0.056910
v -5.478686 -1.714162 -0.056910
v -5.464859 -2.696835 -0.052951
v -5.464859 -1.714162 -0.052951
v -5.464859 -2.696835 -0.052951
v -5.464859 -1.714162 -0.052951
v -5.452115 -2.696835 -0.046521
v -5.452115 -1.714162 -0.046521
v -5.440946 -2.696835 -0.037868
v -5.440946 -1.714162 -0.037868
v -5.431778 -2.696835 -0.027325
v -5.431778 -1.714162 -0.027325
v -5.424968 -2.696835 -0.015296
v -5.424968 -1.714162 -0.015296
v -5.420773 -2.696835 -0.002244
v -5.420773 -1.714162 -0.002244
v -5.419356 -2.696835 0.011329
v -5.419356 -1.714162 0.011329
v -5.420773 -2.696835 0.024903
v -5.420773 -1.714162 0.024903
v -5.424968 -2.696835 0.037955
v -5.424968 -1.714162 0.037955
v -5.431778 -2.696835 0.049984
v -5.431778 -1.714162 0.049984
v -5.440946 -2.696835 0.060527
v -5.440946 -1.714162 0.060527
v -5.452115 -2.696835 0.069180
v -5.452115 -1.714162 0.069180
v -5.464859 -2.696835 0.075609
v -5.464859 -1.714162 0.075609
v 5.525540 -2.696835 0.080906
v 5.539920 -2.696835 0.079569
v 5.511160 -2.696835 0.079569
v 5.497333 -2.696835 0.075609
v 5.553748 -2.696835 0.075609
v 5.484590 -2.696835 0.069180
v 5.566491 -2.696835 0.069180
v 5.577661 -2.696835 0.060527
v 5.473420 -2.696835 0.060527
v 5.586827 -2.696835 0.049984
v 5.464253 -2.696835 0.049984
v 5.457442 -2.696835 0.037955
v 5.593639 -2.696835 0.037955
v 5.453247 -2.696835 0.024903
v 5.599249 -2.696835 0.011329
v 5.451831 -2.696835 0.011329
v 5.597833 -2.696835 0.024903
v 5.597833 -2.696835 -0.002244
v 5.453247 -2.696835 -0.002244
v 5.457442 -2.696835 -0.015296
v 5.593639 -2.696835 -0.015296
v 5.464253 -2.696835 -0.027325
v 5.577661 -2.696835 -0.037868
v 5.473420 -2.696835 -0.037868
v 5.586827 -2.696835 -0.027325
v 5.566491 -2.696835 -0.046521
v 5.484590 -2.696835 -0.046521
v 5.497333 -2.696835 -0.052951
v 5.553748 -2.696835 -0.052951
v 5.511160 -2.696835 -0.056910
v 5.539920 -2.696835 -0.056910
v 5.525540 -2.696835 -0.058247
v 5.497333 -2.696835 0.075609
v 5.497333 -1.714162 0.075609
v 5.484590 -2.696835 0.069180
v 5.484590 -1.714162 0.069180
v 5.473420 -2.696835 0.060527
v 5.473420 -1.714162 0.060527
v 5.464253 -2.696835 0.049984
v 5.464253 -1.714162 0.049984
v 5.457442 -2.696835 0.037955
v 5.457442 -1.714162 0.037955
v 5.453247 -2.696835 0.024903
v 5.453247 -1.714162 0.024903
v 5.451831 -2.696835 0.011329
v 5.451831 -1.714162 0.011329
v 5.453247 -2.696835 -0.002244
v 5.453247 -1.714162 -0.002244
v 5.457442 -2.696835 -0.015296
v 5.457442 -1.714162 -0.015296
v 5.464253 -2.696835 -0.027325
v 5.464253 -1.714162 -0.027325
v 5.473420 -2.696835 -0.037868
v 5.473420 -1.714162 -0.037868
v 5.484590 -2.696835 -0.046521
v 5.484590 -1.714162 -0.046521
v 5.497333 -2.696835 -0.052951
v 5.497333 -1.714162 -0.052951
v 5.525540 -2.696835 0.080906
v 5.525540 -1.714162 0.080906
v 5.511160 -2.696835 0.079569
v 5.511160 -1.714162 0.079569
v 5.497333 -2.696835 0.075609
v 5.497333 -1.714162 0.075609
v 5.525540 -2.696835 0.080906
v 5.539920 -1.714162 0.079569
v 5.539920 -2.696835 0.079569
v 5.525540 -1.714162 0.080906
v 5.553748 -1.714162 0.075609
v 5.553748 -2.696835 0.075609
v 5.525540 -1.714162 0.080906
v 5.511160 -1.714162 0.079569
v 5.539920 -1.714162 0.079569
v 5.497333 -1.714162 0.075609
v 5.553748 -1.714162 0.075609
v 5.566491 -1.714162 0.069180
v 5.484590 -1.714162 0.069180
v 5.577661 -1.714162 0.060527
v 5.473420 -1.714162 0.060527
v 5.586827 -1.714162 0.049984
v 5.464253 -1.714162 0.049984
v 5.593639 -1.714162 0.037955
v 5.453247 -1.714162 0.024903
v 5.597833 -1.714162 0.024903
v 5.457442 -1.714162 0.037955
v 5.451831 -1.714162 0.011329
v 5.599249 -1.714162 0.011329
v 5.453247 -1.714162 -0.002244
v 5.597833 -1.714162 -0.002244
v 5.457442 -1.714162 -0.015296
v 5.593639 -1.714162 -0.015296
v 5.586827 -1.714162 -0.027325
v 5.464253 -1.714162 -0.027325
v 5.577661 -1.714162 -0.037868
v 5.473420 -1.714162 -0.037868
v 5.566491 -1.714162 -0.046521
v 5.484590 -1.714162 -0.046521
v 5.553748 -1.714162 -0.052951
v 5.511160 -1.714162 -0.056910
v 5.539920 -1.714162 -0.056910
v 5.497333 -1.714162 -0.052951
v 5.525540 -1.714162 -0.058247
v 5.497333 -2.696835 -0.052951
v 5.497333 -1.714162 -0.052951
v 5.511160 -2.696835 -0.056910
v 5.511160 -1.714162 -0.056910
v 5.525540 -2.696835 -0.058247
v 5.525540 -1.714162 -0.058247
v 5.525540 -2.696835 -0.058247
v 5.525540 -1.714162 -0.058247
v 5.539920 -2.696835 -0.056910
v 5.539920 -1.714162 -0.056910
v 5.553748 -2.696835 -0.052951
v 5.553748 -1.714162 -0.052951
v 5.553748 -2.696835 -0.052951
v 5.553748 -1.714162 -0.052951
v 5.566491 -2.696835 -0.046521
v 5.566491 -1.714162 -0.046521
v 5.577661 -2.696835 -0.037868
v 5.577661 -1.714162 -0.037868
v 5.586827 -2.696835 -0.027325
v 5.586827 -1.714162 -0.027325
v 5.593639 -2.696835 -0.015296
v 5.593639 -1.714162 -0.015296
v 5.597833 -2.696835 -0.002244
v 5.597833 -1.714162 -0.002244
v 5.599249 -2.696835 0.011329
v 5.599249 -1.714162 0.011329
v 5.597833 -2.696835 0.024903
v 5.597833 -1.714162 0.024903
v 5.593639 -2.696835 0.037955
v 5.593639 -1.714162 0.037955
v 5.586827 -2.696835 0.049984
v 5.586827 -1.714162 0.049984
v 5.577661 -2.696835 0.060527
v 5.577661 -1.714162 0.060527
v 5.566491 -2.696835 0.069180
v 5.566491 -1.714162 0.069180
v 5.553748 -2.696835 0.075609
v 5.553748 -1.714162 0.075609
vn 0.0673 0.2828 -0.9568
vn -0.0701 -0.0000 0.9975
vn -0.0000 -0.0000 1.0000
vn -0.0000 0.2835 0.9590
vn -0.0673 0.2828 0.9568
vn -0.0000 1.0000 -0.0000
vn -0.2314 0.9729 -0.0000
vn -1.0000 -0.0000 -0.0000
vn -0.0000 -0.2835 0.9590
vn -0.0000 -1.0000 -0.0000
vn -0.0673 -0.2828 0.9568
vn -0.2314 -0.9729 -0.0000
vn -0.0673 0.2828 -0.9568
vn -0.0701 -0.0000 -0.9975
vn -0.0000 0.2835 -0.9590
vn -0.0000 -0.0000 -1.0000
vn -0.0673 -0.2828 -0.9568
vn -0.0000 -0.2835 -0.9590
vn 0.0673 0.2828 0.9568
vn 0.0701 -0.0000 0.9975
vn 0.2314 0.9729 -0.0000
vn 1.0000 -0.0000 -0.0000
vn 0.0673 -0.2828 0.9568
vn 0.2314 -0.9729 -0.0000
vn 0.0701 -0.0000 -0.9975
vn 0.0673 -0.2828 -0.9568
vn -0.0926 -0.0000 0.9957
vn -0.1462 -0.0000 0.9893
vn -0.5469 -0.0000 0.8372
vn -0.5468 -0.0000 0.8373
vn 0.1462 -0.0000 0.9893
vn 0.0926 -0.0000 0.9957
vn 0.5468 -0.0000 0.8373
vn 0.5468 -0.0000 0.8372
vn -0.2445 -0.0000 0.9697
vn -0.5217 -0.0000 0.8532
vn -0.2444 -0.0000 0.9697
vn -0.5216 -0.0000 0.8532
vn -0.6794 -0.0000 0.7337
vn -0.8124 -0.0000 0.5831
vn -0.9140 -0.0000 0.4056
vn -0.9781 -0.0000 0.2082
vn -0.9781 -0.0000 -0.2082
vn -0.9140 -0.0000 -0.4056
vn -0.8124 -0.0000 -0.5831
vn -0.6794 -0.0000 -0.7337
vn -0.5216 -0.0000 -0.8532
vn -0.5217 -0.0000 -0.8532
vn -0.2445 -0.0000 -0.9697
vn -0.2444 -0.0000 -0.9697
vn -0.5469 -0.0000 -0.8372
vn -0.1462 -0.0000 -0.9893
vn -0.5468 -0.0000 -0.8373
vn -0.0926 -0.0000 -0.9957
vn 0.0926 -0.0000 -0.9957
vn 0.1462 -0.0000 -0.9893
vn 0.5468 -0.0000 -0.8373
vn 0.5468 -0.0000 -0.8372
vn 0.2445 -0.0000 -0.9697
vn 0.5216 -0.0000 -0.8532
vn 0.2444 -0.0000 -0.9697
vn 0.5217 -0.0000 -0.8531
vn 0.6794 -0.0000 -0.7337
vn 0.8124 -0.0000 -0.5831
vn 0.9140 -0.0000 -0.4056
vn 0.9781 -0.0000 -0.2082
vn 0.9781 -0.0000 0.2082
vn 0.9140 -0.0000 0.4056
vn 0.8124 -0.0000 0.5831
vn 0.6794 -0.0000 0.7337
vn 0.5217 -0.0000 0.8531
vn 0.5216 -0.0000 0.8532
vn 0.2445 -0.0000 0.9697
vn 0.2444 -0.0000 0.9697
vn -0.2444 -0.0001 0.9697
vn -0.5217 -0.0000 0.8531
vn -0.9140 -0.0000 0.4057
vn -0.9140 -0.0000 -0.4057
vn -0.5217 -0.0000 -0.8531
vn 0.5469 -0.0000 0.8372
vn 0.5469 -0.0000 -0.8372
vn 0.2445 -0.0001 -0.9697
vn 0.5217 -0.0000 -0.8532
vn 0.5217 -0.0000 0.8532
vt 0.608599 0.784287
vt 0.608599 0.780474
vt 0.612412 0.780474
vt 0.908383 0.587626
vt 0.904570 0.587626
vt 0.904570 0.142461
vt 0.908383 0.142461
vt -0.000000 0.445165
vt 0.445165 0.000000
vt 0.445165 0.445165
vt 0.000000 0.000000
vt 0.919822 0.000000
vt 0.923636 0.000000
vt 0.923636 0.445165
vt 0.919822 0.445165
vt 0.616225 0.780474
vt 0.612412 0.784287
vt 0.552372 0.445165
vt 0.445165 -0.000000
vt 0.552372 0.000000
vt 0.445165 0.445165
vt 0.966568 0.000000
vt 0.970381 0.107206
vt 0.966568 0.107206
vt 0.970381 0.000000
vt 0.659578 0.000000
vt 0.766784 0.445165
vt 0.659578 0.445165
vt 0.766784 0.000000
vt 0.919822 0.587626
vt 0.916009 0.142461
vt 0.919822 0.142461
vt 0.916009 0.587626
vt 0.552372 0.000000
vt 0.659578 0.000000
vt 0.552372 0.445165
vt 0.620038 0.784288
vt 0.616225 0.784288
vt 0.616225 0.780474
vt 0.971020 0.832760
vt 0.967207 0.725554
vt 0.971020 0.725554
vt 0.967207 0.832760
vt 0.623851 0.784287
vt 0.627664 0.780474
vt 0.627664 0.784287
vt 0.904570 0.587626
vt 0.900757 0.587626
vt 0.900757 0.142461
vt 0.904570 0.142461
vt 0.912196 0.142461
vt 0.916009 0.587626
vt 0.912196 0.587626
vt 0.916009 0.142461
vt 0.000000 0.890331
vt 0.445165 0.445165
vt 0.445165 0.890331
vt 0.000000 0.445165
vt 0.631478 0.780474
vt 0.631478 0.784287
vt 0.912196 0.587626
vt 0.908383 0.587626
vt 0.908383 0.142461
vt 0.912196 0.142461
vt 0.635291 0.784287
vt 0.635291 0.780474
vt 0.896944 0.142461
vt 0.896944 0.587626
vt 0.971020 0.939966
vt 0.967207 0.939966
vt 0.873991 0.000000
vt 0.873991 0.445165
vt 0.639104 0.780474
vt 0.639104 0.784287
vt 0.967970 0.573497
vt 0.971783 0.573497
vt 0.971783 0.680704
vt 0.967970 0.680704
vt 0.893130 0.142461
vt 0.893130 0.587626
vt 0.623851 0.784288
vt 0.620038 0.784288
vt 0.620038 0.780474
vt 0.863388 0.936603
vt 0.862919 0.937214
vt 0.862459 0.936597
vt 0.862026 0.934775
vt 0.863848 0.934788
vt 0.861636 0.931818
vt 0.864281 0.931838
vt 0.864671 0.927866
vt 0.861304 0.927841
vt 0.865002 0.923026
vt 0.861044 0.922997
vt 0.860864 0.917470
vt 0.865263 0.917502
vt 0.860773 0.911474
vt 0.865442 0.911508
vt 0.860773 0.905239
vt 0.865534 0.905274
vt 0.865534 0.899039
vt 0.860864 0.899005
vt 0.861044 0.893011
vt 0.865442 0.893043
vt 0.861304 0.887487
vt 0.865263 0.887516
vt 0.861636 0.882647
vt 0.865002 0.882671
vt 0.864671 0.878694
vt 0.862026 0.878675
vt 0.862459 0.875725
vt 0.864281 0.875738
vt 0.862919 0.873909
vt 0.863848 0.873916
vt 0.863388 0.873299
vt 0.979066 0.000000
vt 0.979680 0.133424
vt 0.979066 0.133424
vt 0.979680 0.000000
vt 0.981499 0.133424
vt 0.981499 0.000000
vt 0.980992 0.354142
vt 0.981606 0.487566
vt 0.980992 0.487566
vt 0.981606 0.354142
vt 0.979174 0.354142
vt 0.979174 0.487566
vt 0.942890 0.341432
vt 0.942421 0.342043
vt 0.941961 0.341426
vt 0.943350 0.339617
vt 0.941528 0.339604
vt 0.941138 0.336648
vt 0.943783 0.336667
vt 0.940806 0.332671
vt 0.944173 0.332695
vt 0.940546 0.327826
vt 0.944505 0.327855
vt 0.940366 0.322299
vt 0.944765 0.322331
vt 0.940275 0.316303
vt 0.944945 0.316337
vt 0.945036 0.310103
vt 0.940275 0.310068
vt 0.945036 0.303868
vt 0.940366 0.303834
vt 0.944945 0.297872
vt 0.940546 0.297840
vt 0.940806 0.292316
vt 0.944765 0.292345
vt 0.941138 0.287476
vt 0.944505 0.287500
vt 0.941528 0.283504
vt 0.944173 0.283523
vt 0.941961 0.280554
vt 0.943783 0.280567
vt 0.942421 0.278739
vt 0.943350 0.278745
vt 0.942890 0.278128
vt 0.646866 0.445165
vt 0.649819 0.578589
vt 0.646866 0.578589
vt 0.649819 0.445165
vt 0.653794 0.578589
vt 0.653794 0.445165
vt 0.658637 0.578589
vt 0.658637 0.445165
vt 0.664162 0.578589
vt 0.664162 0.445165
vt 0.670157 0.578589
vt 0.670157 0.445165
vt 0.676392 0.578589
vt 0.676392 0.445165
vt 0.682626 0.578589
vt 0.682626 0.445165
vt 0.688622 0.578589
vt 0.688622 0.445165
vt 0.694147 0.578589
vt 0.694147 0.445165
vt 0.698990 0.578589
vt 0.698990 0.445165
vt 0.702964 0.578589
vt 0.702964 0.445165
vt 0.705917 0.578589
vt 0.705917 0.445165
vt 0.979223 0.527406
vt 0.981041 0.660830
vt 0.979223 0.660830
vt 0.981041 0.527406
vt 0.981655 0.660830
vt 0.981655 0.527406
vt 0.979396 0.163522
vt 0.980010 0.296946
vt 0.979396 0.296946
vt 0.980010 0.163522
vt 0.981829 0.296946
vt 0.981829 0.163522
vt 0.646866 0.578589
vt 0.649819 0.712013
vt 0.646866 0.712013
vt 0.649819 0.578589
vt 0.653794 0.712013
vt 0.653794 0.578589
vt 0.658637 0.712013
vt 0.658637 0.578589
vt 0.664162 0.712013
vt 0.664162 0.578589
vt 0.670157 0.712013
vt 0.670157 0.578589
vt 0.676392 0.712013
vt 0.676392 0.578589
vt 0.682626 0.712013
vt 0.682626 0.578589
vt 0.688622 0.712013
vt 0.688622 0.578589
vt 0.694147 0.712013
vt 0.694147 0.578589
vt 0.698990 0.712013
vt 0.698990 0.578589
vt 0.702964 0.712013
vt 0.702964 0.578589
vt 0.705917 0.712013
vt 0.705917 0.578589
vt 0.817352 0.936603
vt 0.816883 0.937214
vt 0.816423 0.936597
vt 0.815990 0.934775
vt 0.817812 0.934788
vt 0.815600 0.931818
vt 0.818245 0.931838
vt 0.818635 0.927866
vt 0.815268 0.927841
vt 0.818967 0.923026
vt 0.815008 0.922997
vt 0.814828 0.917470
vt 0.819227 0.917502
vt 0.814737 0.911474
vt 0.819407 0.911508
vt 0.814737 0.905239
vt 0.819498 0.905274
vt 0.819498 0.899039
vt 0.814828 0.899005
vt 0.815008 0.893011
vt 0.819407 0.893043
vt 0.815268 0.887487
vt 0.819227 0.887516
vt 0.815600 0.882647
vt 0.818967 0.882671
vt 0.818635 0.878694
vt 0.815990 0.878675
vt 0.816423 0.875725
vt 0.818245 0.875738
vt 0.816883 0.873909
vt 0.817812 0.873916
vt 0.817352 0.873299
vt 0.708871 0.578589
vt 0.708871 0.445165
vt 0.712845 0.578589
vt 0.712845 0.445165
vt 0.717688 0.578589
vt 0.717688 0.445165
vt 0.723213 0.578589
vt 0.723213 0.445165
vt 0.729208 0.578589
vt 0.729208 0.445165
vt 0.735443 0.578589
vt 0.735443 0.445165
vt 0.741678 0.578589
vt 0.741678 0.445165
vt 0.747673 0.578589
vt 0.747673 0.445165
vt 0.753198 0.578589
vt 0.753198 0.445165
vt 0.758041 0.578589
vt 0.758041 0.445165
vt 0.762016 0.578589
vt 0.762016 0.445165
vt 0.764969 0.578589
vt 0.764969 0.445165
vt 0.979705 0.725554
vt 0.980319 0.858978
vt 0.979705 0.858978
vt 0.980319 0.725554
vt 0.982138 0.858978
vt 0.982138 0.725554
vt 0.983317 0.000000
vt 0.983932 0.133424
vt 0.983317 0.133424
vt 0.983932 0.000000
vt 0.981499 0.000000
vt 0.981499 0.133424
vt 0.868149 0.936603
vt 0.867680 0.937214
vt 0.867220 0.936597
vt 0.868609 0.934788
vt 0.866787 0.934775
vt 0.866397 0.931818
vt 0.869042 0.931838
vt 0.866065 0.927841
vt 0.869432 0.927866
vt 0.865805 0.922997
vt 0.869764 0.923026
vt 0.865625 0.917470
vt 0.870024 0.917502
vt 0.865534 0.911474
vt 0.870204 0.911508
vt 0.870295 0.905274
vt 0.865534 0.905239
vt 0.870295 0.899039
vt 0.865625 0.899005
vt 0.870204 0.893043
vt 0.865805 0.893011
vt 0.866065 0.887487
vt 0.870024 0.887516
vt 0.866397 0.882647
vt 0.869764 0.882671
vt 0.866787 0.878675
vt 0.869432 0.878694
vt 0.867220 0.875725
vt 0.869042 0.875738
vt 0.867680 0.873909
vt 0.868609 0.873916
vt 0.868149 0.873299
vt 0.981607 0.354142
vt 0.983425 0.487566
vt 0.981607 0.487566
vt 0.983425 0.354142
vt 0.984039 0.487566
vt 0.984039 0.354142
vt 0.981655 0.527406
vt 0.982269 0.660830
vt 0.981655 0.660830
vt 0.982269 0.527406
vt 0.984088 0.660830
vt 0.984088 0.527406
vt 0.708871 0.712013
vt 0.708871 0.578589
vt 0.712845 0.712013
vt 0.712845 0.578589
vt 0.717688 0.712013
vt 0.717688 0.578589
vt 0.723213 0.712013
vt 0.723213 0.578589
vt 0.729208 0.712013
vt 0.729208 0.578589
vt 0.735443 0.712013
vt 0.735443 0.578589
vt 0.741678 0.712013
vt 0.741678 0.578589
vt 0.747673 0.712013
vt 0.747673 0.578589
vt 0.753198 0.712013
vt 0.753198 0.578589
vt 0.758041 0.712013
vt 0.758041 0.578589
vt 0.762016 0.712013
vt 0.762016 0.578589
vt 0.764969 0.712013
vt 0.764969 0.578589
s 0
g off
g sign_puertablanca
usemtl puertablanca
f 1/1/1 3/2/1 2/3/1
f 5/4/2 7/5/2 4/6/2
f 5/4/2 4/6/2 6/7/2
f 10/8/3 9/9/3 11/10/3
f 10/8/3 8/11/3 9/9/3
f 13/12/4 12/13/4 14/14/4
f 13/12/4 14/14/4 15/15/4
f 16/3/5 18/16/5 17/17/5
f 20/18/6 21/19/6 19/20/6
f 20/18/6 22/21/6 21/19/6
f 24/22/7 25/23/7 23/24/7
f 24/22/7 26/25/7 25/23/7
f 27/26/8 29/27/8 28/28/8
f 27/26/8 30/29/8 29/27/8
f 32/30/9 33/31/9 31/32/9
f 32/30/9 34/33/9 33/31/9
f 35/28/10 37/34/10 36/35/10
f 35/28/10 38/36/10 37/34/10
f 39/37/11 41/38/11 40/39/11
f 42/40/12 44/41/12 43/42/12
f 42/40/12 45/43/12 44/41/12
f 46/44/13 48/45/13 47/46/13
f 50/47/14 52/48/14 49/49/14
f 50/47/14 49/49/14 51/50/14
f 54/51/15 55/52/15 53/53/15
f 54/51/15 56/54/15 55/52/15
f 57/55/16 59/56/16 58/57/16
f 57/55/16 60/58/16 59/56/16
f 61/45/17 63/59/17 62/60/17
f 65/61/18 64/62/18 66/63/18
f 65/61/18 66/63/18 67/64/18
f 68/65/19 70/60/19 69/66/19
f 72/48/20 73/67/20 71/49/20
f 72/48/20 74/68/20 73/67/20
f 76/69/21 75/70/21 77/43/21
f 76/69/21 77/43/21 78/40/21
f 80/29/22 79/71/22 81/72/22
f 80/29/22 81/72/22 82/27/22
f 83/66/23 85/73/23 84/74/23
f 87/75/24 89/76/24 86/77/24
f 87/75/24 86/77/24 88/78/24
f 91/79/25 90/67/25 92/68/25
f 91/79/25 92/68/25 93/80/25
f 94/81/26 96/82/26 95/83/26
f 98/84/10 97/85/10 99/86/10
f 99/86/10 100/87/10 98/84/10
f 98/84/10 100/87/10 101/88/10
f 100/87/10 102/89/10 101/88/10
f 103/90/10 101/88/10 102/89/10
f 104/91/10 103/90/10 102/89/10
f 102/89/10 105/92/10 104/91/10
f 106/93/10 104/91/10 105/92/10
f 105/92/10 107/94/10 106/93/10
f 107/94/10 108/95/10 106/93/10
f 106/93/10 108/95/10 109/96/10
f 108/95/10 110/97/10 109/96/10
f 113/98/10 109/96/10 110/97/10
f 110/97/10 112/99/10 111/100/10
f 111/100/10 113/98/10 110/97/10
f 114/101/10 111/100/10 112/99/10
f 112/99/10 115/102/10 114/101/10
f 115/102/10 116/103/10 114/101/10
f 114/101/10 116/103/10 117/104/10
f 116/103/10 118/105/10 117/104/10
f 121/106/10 117/104/10 118/105/10
f 118/105/10 120/107/10 119/108/10
f 119/108/10 121/106/10 118/105/10
f 122/109/10 119/108/10 120/107/10
f 120/107/10 123/110/10 122/109/10
f 123/110/10 124/111/10 122/109/10
f 122/109/10 124/111/10 125/112/10
f 124/111/10 126/113/10 125/112/10
f 127/114/10 125/112/10 126/113/10
f 126/113/10 128/115/10 127/114/10
s 75
f 130/116/27 131/117/28 129/118/27
f 130/116/27 132/119/28 131/117/28
f 132/119/28 133/120/29 131/117/28
f 132/119/28 134/121/30 133/120/29
s 76
f 136/122/31 135/123/32 137/124/31
f 136/122/31 138/125/32 135/123/32
f 139/126/33 137/124/31 140/127/34
f 139/126/33 136/122/31 137/124/31
s 0
f 142/128/6 141/129/6 143/130/6
f 144/131/6 142/128/6 143/130/6
f 143/130/6 145/132/6 144/131/6
f 145/132/6 146/133/6 144/131/6
f 144/131/6 146/133/6 147/134/6
f 146/133/6 148/135/6 147/134/6
f 149/136/6 147/134/6 148/135/6
f 148/135/6 150/137/6 149/136/6
f 149/136/6 150/137/6 151/138/6
f 150/137/6 152/139/6 151/138/6
f 155/140/6 151/138/6 152/139/6
f 152/139/6 154/141/6 153/142/6
f 153/142/6 155/140/6 152/139/6
f 156/143/6 153/142/6 154/141/6
f 154/141/6 157/144/6 156/143/6
f 158/145/6 156/143/6 157/144/6
f 157/144/6 159/146/6 158/145/6
f 160/147/6 158/145/6 159/146/6
f 159/146/6 161/148/6 160/147/6
f 161/148/6 162/149/6 160/147/6
f 160/147/6 162/149/6 163/150/6
f 162/149/6 164/151/6 163/150/6
f 165/152/6 163/150/6 164/151/6
f 164/151/6 166/153/6 165/152/6
f 165/152/6 166/153/6 167/154/6
f 166/153/6 168/155/6 167/154/6
f 171/156/6 167/154/6 168/155/6
f 168/155/6 170/157/6 169/158/6
f 169/158/6 171/156/6 168/155/6
f 170/157/6 172/159/6 169/158/6
s 107
f 174/160/35 175/161/36 173/162/37
f 174/160/35 176/163/38 175/161/36
f 176/163/38 177/164/39 175/161/36
f 176/163/38 178/165/39 177/164/39
f 178/165/39 179/166/40 177/164/39
f 178/165/39 180/167/40 179/166/40
f 180/167/40 181/168/41 179/166/40
f 180/167/40 182/169/41 181/168/41
f 182/169/41 183/170/42 181/168/41
f 182/169/41 184/171/42 183/170/42
f 184/171/42 185/172/8 183/170/42
f 184/171/42 186/173/8 185/172/8
f 186/173/8 187/174/43 185/172/8
f 186/173/8 188/175/43 187/174/43
f 188/175/43 189/176/44 187/174/43
f 188/175/43 190/177/44 189/176/44
f 190/177/44 191/178/45 189/176/44
f 190/177/44 192/179/45 191/178/45
f 192/179/45 193/180/46 191/178/45
f 192/179/45 194/181/46 193/180/46
f 194/181/46 195/182/47 193/180/46
f 194/181/46 196/183/48 195/182/47
f 196/183/48 197/184/49 195/182/47
f 196/183/48 198/185/50 197/184/49
s 108
f 200/186/51 201/187/52 199/188/53
f 200/186/51 202/189/52 201/187/52
f 202/189/52 203/190/54 201/187/52
f 202/189/52 204/191/54 203/190/54
s 109
f 206/192/55 207/193/56 205/194/55
f 206/192/55 208/195/56 207/193/56
f 208/195/56 209/196/57 207/193/56
f 208/195/56 210/197/58 209/196/57
s 110
f 212/198/59 213/199/60 211/200/61
f 212/198/59 214/201/62 213/199/60
f 214/201/62 215/202/63 213/199/60
f 214/201/62 216/203/63 215/202/63
f 216/203/63 217/204/64 215/202/63
f 216/203/63 218/205/64 217/204/64
f 218/205/64 219/206/65 217/204/64
f 218/205/64 220/207/65 219/206/65
f 220/207/65 221/208/66 219/206/65
f 220/207/65 222/209/66 221/208/66
f 222/209/66 223/210/22 221/208/66
f 222/209/66 224/211/22 223/210/22
f 224/211/22 225/212/67 223/210/22
f 224/211/22 226/213/67 225/212/67
f 226/213/67 227/214/68 225/212/67
f 226/213/67 228/215/68 227/214/68
f 228/215/68 229/216/69 227/214/68
f 228/215/68 230/217/69 229/216/69
f 230/217/69 231/218/70 229/216/69
f 230/217/69 232/219/70 231/218/70
f 232/219/70 233/220/71 231/218/70
f 232/219/70 234/221/72 233/220/71
f 234/221/72 235/222/73 233/220/71
f 234/221/72 236/223/74 235/222/73
s 0
f 238/224/10 237/225/10 239/226/10
f 239/226/10 240/227/10 238/224/10
f 238/224/10 240/227/10 241/228/10
f 240/227/10 242/229/10 241/228/10
f 243/230/10 241/228/10 242/229/10
f 244/231/10 243/230/10 242/229/10
f 242/229/10 245/232/10 244/231/10
f 246/233/10 244/231/10 245/232/10
f 245/232/10 247/234/10 246/233/10
f 247/234/10 248/235/10 246/233/10
f 246/233/10 248/235/10 249/236/10
f 248/235/10 250/237/10 249/236/10
f 253/238/10 249/236/10 250/237/10
f 250/237/10 252/239/10 251/240/10
f 251/240/10 253/238/10 250/237/10
f 254/241/10 251/240/10 252/239/10
f 252/239/10 255/242/10 254/241/10
f 255/242/10 256/243/10 254/241/10
f 254/241/10 256/243/10 257/244/10
f 256/243/10 258/245/10 257/244/10
f 261/246/10 257/244/10 258/245/10
f 258/245/10 260/247/10 259/248/10
f 259/248/10 261/246/10 258/245/10
f 262/249/10 259/248/10 260/247/10
f 260/247/10 263/250/10 262/249/10
f 263/250/10 264/251/10 262/249/10
f 262/249/10 264/251/10 265/252/10
f 264/251/10 266/253/10 265/252/10
f 267/254/10 265/252/10 266/253/10
f 266/253/10 268/255/10 267/254/10
s 141
f 270/185/75 271/256/38 269/184/37
f 270/185/75 272/257/76 271/256/38
f 272/257/76 273/258/39 271/256/38
f 272/257/76 274/259/39 273/258/39
f 274/259/39 275/260/40 273/258/39
f 274/259/39 276/261/40 275/260/40
f 276/261/40 277/262/77 275/260/40
f 276/261/40 278/263/41 277/262/77
f 278/263/41 279/264/42 277/262/77
f 278/263/41 280/265/42 279/264/42
f 280/265/42 281/266/8 279/264/42
f 280/265/42 282/267/8 281/266/8
f 282/267/8 283/268/43 281/266/8
f 282/267/8 284/269/43 283/268/43
f 284/269/43 285/270/44 283/268/43
f 284/269/43 286/271/78 285/270/44
f 286/271/78 287/272/45 285/270/44
f 286/271/78 288/273/45 287/272/45
f 288/273/45 289/274/46 287/272/45
f 288/273/45 290/275/46 289/274/46
f 290/275/46 291/276/79 289/274/46
f 290/275/46 292/277/47 291/276/79
f 292/277/47 293/278/50 291/276/79
f 292/277/47 294/279/50 293/278/50
s 142
f 296/280/27 297/281/28 295/282/27
f 296/280/27 298/283/28 297/281/28
f 298/283/28 299/284/30 297/281/28
f 298/283/28 300/285/29 299/284/30
s 143
f 302/286/31 301/287/32 303/288/31
f 302/286/31 304/289/32 301/287/32
f 305/290/80 303/288/31 306/291/33
f 305/290/80 302/286/31 303/288/31
s 0
f 308/292/6 307/293/6 309/294/6
f 310/295/6 308/292/6 309/294/6
f 309/294/6 311/296/6 310/295/6
f 311/296/6 312/297/6 310/295/6
f 310/295/6 312/297/6 313/298/6
f 312/297/6 314/299/6 313/298/6
f 315/300/6 313/298/6 314/299/6
f 314/299/6 316/301/6 315/300/6
f 315/300/6 316/301/6 317/302/6
f 316/301/6 318/303/6 317/302/6
f 321/304/6 317/302/6 318/303/6
f 318/303/6 320/305/6 319/306/6
f 319/306/6 321/304/6 318/303/6
f 322/307/6 319/306/6 320/305/6
f 320/305/6 323/308/6 322/307/6
f 324/309/6 322/307/6 323/308/6
f 323/308/6 325/310/6 324/309/6
f 326/311/6 324/309/6 325/310/6
f 325/310/6 327/312/6 326/311/6
f 327/312/6 328/313/6 326/311/6
f 326/311/6 328/313/6 329/314/6
f 328/313/6 330/315/6 329/314/6
f 331/316/6 329/314/6 330/315/6
f 330/315/6 332/317/6 331/316/6
f 331/316/6 332/317/6 333/318/6
f 332/317/6 334/319/6 333/318/6
f 337/320/6 333/318/6 334/319/6
f 334/319/6 336/321/6 335/322/6
f 335/322/6 337/320/6 334/319/6
f 336/321/6 338/323/6 335/322/6
s 174
f 340/324/53 341/325/52 339/326/51
f 340/324/53 342/327/52 341/325/52
f 342/327/52 343/328/54 341/325/52
f 342/327/52 344/329/54 343/328/54
s 175
f 346/330/55 347/331/56 345/332/55
f 346/330/55 348/333/56 347/331/56
f 348/333/56 349/334/81 347/331/56
f 348/333/56 350/335/57 349/334/81
s 176
f 352/223/82 353/336/83 351/222/59
f 352/223/82 354/337/60 353/336/83
f 354/337/60 355/338/63 353/336/83
f 354/337/60 356/339/63 355/338/63
f 356/339/63 357/340/64 355/338/63
f 356/339/63 358/341/64 357/340/64
f 358/341/64 359/342/65 357/340/64
f 358/341/64 360/343/65 359/342/65
f 360/343/65 361/344/66 359/342/65
f 360/343/65 362/345/66 361/344/66
f 362/345/66 363/346/22 361/344/66
f 362/345/66 364/347/22 363/346/22
f 364/347/22 365/348/67 363/346/22
f 364/347/22 366/349/67 365/348/67
f 366/349/67 367/350/68 365/348/67
f 366/349/67 368/351/68 367/350/68
f 368/351/68 369/352/69 367/350/68
f 368/351/68 370/353/69 369/352/69
f 370/353/69 371/354/70 369/352/69
f 370/353/69 372/355/70 371/354/70
f 372/355/70 373/356/72 371/354/70
f 372/355/70 374/357/84 373/356/72
f 374/357/84 375/358/73 373/356/72
f 374/357/84 376/359/73 375/358/73
