# Blender 4.5.3 LTS
# www.blender.org
mtllib pilares.mtl
g Pilares_Mesh
v 6.313235 3.459356 -0.990837
v 4.675188 3.459356 -0.990837
v 4.705568 3.594642 -0.952804
v 6.282862 3.594642 -0.952804
v 4.675188 3.459356 -0.990837
v 4.675188 3.459356 1.059900
v 4.705568 3.594642 1.021875
v 4.705568 3.594642 -0.952804
v 4.675188 3.459356 1.059900
v 6.313235 3.459356 1.059900
v 6.282862 3.594642 1.021875
v 4.705568 3.594642 1.021875
v 6.313235 3.459356 1.059900
v 6.313235 3.459356 -0.990837
v 6.282862 3.594642 -0.952804
v 6.282862 3.594642 1.021875
v 4.755362 3.723183 -0.890465
v 6.233061 3.723183 -0.890465
v 4.755362 3.723183 0.959528
v 4.755362 3.723183 -0.890465
v 6.233061 3.723183 0.959528
v 4.755362 3.723183 0.959528
v 6.233061 3.723183 -0.890465
v 6.233061 3.723183 0.959528
v 4.823347 3.841807 -0.805351
v 6.165076 3.841807 -0.805351
v 4.823347 3.841807 0.874414
v 4.823347 3.841807 -0.805351
v 6.165076 3.841807 0.874414
v 4.823347 3.841807 0.874414
v 6.165076 3.841807 -0.805351
v 6.165076 3.841807 0.874414
v 4.907854 3.947604 -0.699550
v 6.080568 3.947604 -0.699550
v 4.907854 3.947604 0.768615
v 4.907854 3.947604 -0.699550
v 6.080568 3.947604 0.768615
v 4.907854 3.947604 0.768615
v 6.080568 3.947604 -0.699550
v 6.080568 3.947604 0.768615
v 5.006802 4.037955 -0.575676
v 5.981621 4.037955 -0.575676
v 5.006802 4.037955 0.644742
v 5.006802 4.037955 -0.575676
v 5.981621 4.037955 0.644742
v 5.006802 4.037955 0.644742
v 5.981621 4.037955 -0.575676
v 5.981621 4.037955 0.644742
v 5.117745 4.110652 -0.436777
v 5.870677 4.110652 -0.436777
v 5.117745 4.110652 0.505843
v 5.117745 4.110652 -0.436777
v 5.870677 4.110652 0.505843
v 5.117745 4.110652 0.505843
v 5.870677 4.110652 -0.436777
v 5.870677 4.110652 0.505843
v 5.237964 4.163896 -0.286273
v 5.750459 4.163896 -0.286273
v 5.237964 4.163896 0.355339
v 5.237964 4.163896 -0.286273
v 5.750459 4.163896 0.355339
v 5.237964 4.163896 0.355339
v 5.750459 4.163896 -0.286273
v 5.750459 4.163896 0.355339
v 5.364493 4.196375 -0.127870
v 5.623929 4.196375 -0.127870
v 5.364493 4.196375 0.196935
v 5.364493 4.196375 -0.127870
v 5.623929 4.196375 0.196935
v 5.364493 4.196375 0.196935
v 5.623929 4.196375 -0.127870
v 5.623929 4.196375 0.196935
v 5.494211 4.207289 0.034533
v 5.494211 4.207289 0.034533
v 5.494211 4.207289 0.034533
v 5.494211 4.207289 0.034533
v 4.722422 -4.211719 0.995301
v 6.263767 -4.211719 0.995301
v 6.263767 -2.670373 0.995301
v 4.722422 -2.670373 0.995301
v 4.722422 -2.670373 -0.934373
v 6.263767 -2.670373 -0.934373
v 6.263767 -4.211719 -0.934373
v 4.722422 -4.211719 -0.934373
v 6.263767 -4.211719 0.995301
v 6.263767 -4.211719 -0.934373
v 6.263767 -2.670373 -0.934373
v 6.263767 -2.670373 0.995301
v 4.722422 -4.211719 -0.934373
v 4.722422 -4.211719 0.995301
v 4.722422 -2.670373 0.995301
v 4.722422 -2.670373 -0.934373
v 4.722422 -2.670373 0.995301
v 6.263767 -2.670373 0.995301
v 6.164410 -2.670373 0.870911
v 4.821773 -2.670373 0.870911
v 6.263767 -2.670373 0.995301
v 6.263767 -2.670373 -0.934373
v 6.164410 -2.670373 -0.809991
v 6.164410 -2.670373 0.870911
v 6.263767 -2.670373 -0.934373
v 4.722422 -2.670373 -0.934373
v 4.821773 -2.670373 -0.809991
v 6.164410 -2.670373 -0.809991
v 4.722422 -2.670373 -0.934373
v 4.722422 -2.670373 0.995301
v 4.821773 -2.670373 0.870911
v 4.821773 -2.670373 -0.809991
v 4.838473 -1.373651 0.850004
v 6.147709 -1.373651 0.850004
v 6.147709 -1.349327 0.850004
v 4.838473 -1.349327 0.850004
v 6.147709 -1.373651 0.850004
v 6.147709 -1.373650 -0.789081
v 6.147709 -1.349326 -0.789081
v 6.147709 -1.349327 0.850004
v 6.147709 -1.373650 -0.789081
v 4.838473 -1.373650 -0.789081
v 4.838473 -1.349326 -0.789081
v 6.147709 -1.349326 -0.789081
v 4.838473 -1.373650 -0.789081
v 4.838473 -1.373651 0.850004
v 4.838473 -1.349327 0.850004
v 4.838473 -1.349326 -0.789081
v 4.839395 0.156544 0.848850
v 6.146788 0.156544 0.848850
v 6.146788 0.189792 0.848850
v 4.839395 0.189792 0.848850
v 6.146788 0.156544 0.848850
v 6.146788 0.156545 -0.787928
v 6.146788 0.189792 -0.787928
v 6.146788 0.189792 0.848850
v 6.146788 0.156545 -0.787928
v 4.839395 0.156545 -0.787928
v 4.839395 0.189792 -0.787928
v 6.146788 0.189792 -0.787928
v 4.839395 0.156545 -0.787928
v 4.839395 0.156544 0.848850
v 4.839395 0.189792 0.848850
v 4.839395 0.189792 -0.787928
v 4.821773 0.189792 0.870912
v 6.164410 0.189792 0.870912
v 6.164410 1.704784 0.870912
v 4.821773 1.704784 0.870912
v 6.164410 0.189792 0.870912
v 6.164410 0.189792 -0.809991
v 6.164410 1.704784 -0.809991
v 6.164410 1.704784 0.870912
v 6.164410 0.189792 -0.809991
v 4.821773 0.189792 -0.809991
v 4.821773 1.704784 -0.809991
v 6.164410 1.704784 -0.809991
v 4.821773 0.189792 -0.809991
v 4.821773 0.189792 0.870912
v 4.821773 1.704784 0.870912
v 4.821773 1.704784 -0.809991
v 4.838703 1.704784 0.849723
v 6.147485 1.704784 0.849723
v 6.147485 1.733365 0.849723
v 4.838703 1.733365 0.849723
v 6.147485 1.704784 0.849723
v 6.147485 1.704784 -0.788798
v 6.147485 1.733365 -0.788798
v 6.147485 1.733365 0.849723
v 6.147485 1.704784 -0.788798
v 4.838703 1.704784 -0.788798
v 4.838703 1.733365 -0.788798
v 6.147485 1.733365 -0.788798
v 4.838703 1.704784 -0.788798
v 4.838703 1.704784 0.849723
v 4.838703 1.733365 0.849723
v 4.838703 1.733365 -0.788798
v 4.821773 -2.670373 0.870911
v 6.164410 -2.670373 0.870911
v 6.164410 -1.373651 0.870911
v 4.821773 -1.373651 0.870911
v 6.164410 -2.670373 0.870911
v 6.164410 -2.670373 -0.809991
v 6.164410 -1.373650 -0.809991
v 6.164410 -1.373651 0.870911
v 6.164410 -2.670373 -0.809991
v 4.821773 -2.670373 -0.809991
v 4.821773 -1.373650 -0.809991
v 6.164410 -1.373650 -0.809991
v 4.821773 -2.670373 -0.809991
v 4.821773 -2.670373 0.870911
v 4.821773 -1.373651 0.870911
v 4.821773 -1.373650 -0.809991
v 4.821773 -1.349326 -0.809991
v 4.821773 -1.349327 0.870911
v 4.821773 0.156544 0.870912
v 4.821773 0.156545 -0.809991
v 6.164410 -1.349326 -0.809991
v 4.821773 -1.349326 -0.809991
v 4.821773 0.156545 -0.809991
v 6.164410 0.156545 -0.809991
v 6.164410 -1.349327 0.870911
v 6.164410 -1.349326 -0.809991
v 6.164410 0.156545 -0.809991
v 6.164410 0.156544 0.870912
v 4.821773 -1.349327 0.870911
v 6.164410 -1.349327 0.870911
v 6.164410 0.156544 0.870912
v 4.821773 0.156544 0.870912
v 4.821773 -1.373651 0.870911
v 6.164410 -1.373651 0.870911
v 6.147709 -1.373651 0.850004
v 4.838473 -1.373651 0.850004
v 6.164410 -1.349327 0.870911
v 4.821773 -1.349327 0.870911
v 4.838473 -1.349327 0.850004
v 6.147709 -1.349327 0.850004
v 6.164410 -1.373651 0.870911
v 6.164410 -1.373650 -0.809991
v 6.147709 -1.373650 -0.789081
v 6.147709 -1.373651 0.850004
v 6.164410 -1.349326 -0.809991
v 6.164410 -1.349327 0.870911
v 6.147709 -1.349327 0.850004
v 6.147709 -1.349326 -0.789081
v 6.164410 -1.373650 -0.809991
v 4.821773 -1.373650 -0.809991
v 4.838473 -1.373650 -0.789081
v 6.147709 -1.373650 -0.789081
v 4.821773 -1.349326 -0.809991
v 6.164410 -1.349326 -0.809991
v 6.147709 -1.349326 -0.789081
v 4.838473 -1.349326 -0.789081
v 4.821773 -1.373650 -0.809991
v 4.821773 -1.373651 0.870911
v 4.838473 -1.373651 0.850004
v 4.838473 -1.373650 -0.789081
v 4.821773 -1.349327 0.870911
v 4.821773 -1.349326 -0.809991
v 4.838473 -1.349326 -0.789081
v 4.838473 -1.349327 0.850004
v 4.821773 0.156544 0.870912
v 6.164410 0.156544 0.870912
v 6.146788 0.156544 0.848850
v 4.839395 0.156544 0.848850
v 6.164410 0.189792 0.870912
v 4.821773 0.189792 0.870912
v 4.839395 0.189792 0.848850
v 6.146788 0.189792 0.848850
v 6.164410 0.156544 0.870912
v 6.164410 0.156545 -0.809991
v 6.146788 0.156545 -0.787928
v 6.146788 0.156544 0.848850
v 6.164410 0.189792 -0.809991
v 6.164410 0.189792 0.870912
v 6.146788 0.189792 0.848850
v 6.146788 0.189792 -0.787928
v 6.164410 0.156545 -0.809991
v 4.821773 0.156545 -0.809991
v 4.839395 0.156545 -0.787928
v 6.146788 0.156545 -0.787928
v 4.821773 0.189792 -0.809991
v 6.164410 0.189792 -0.809991
v 6.146788 0.189792 -0.787928
v 4.839395 0.189792 -0.787928
v 4.821773 0.156545 -0.809991
v 4.821773 0.156544 0.870912
v 4.839395 0.156544 0.848850
v 4.839395 0.156545 -0.787928
v 4.821773 0.189792 0.870912
v 4.821773 0.189792 -0.809991
v 4.839395 0.189792 -0.787928
v 4.839395 0.189792 0.848850
v 4.821773 1.733365 0.870912
v 6.164410 1.733365 0.870912
v 6.164410 2.724340 0.870912
v 4.821773 2.724340 0.870912
v 6.164410 1.733365 0.870912
v 6.164410 1.733365 -0.809991
v 6.164410 2.724340 -0.809991
v 6.164410 2.724340 0.870912
v 6.164410 1.733365 -0.809991
v 4.821773 1.733365 -0.809991
v 4.821773 2.724340 -0.809991
v 6.164410 2.724340 -0.809991
v 4.821773 1.733365 -0.809991
v 4.821773 1.733365 0.870912
v 4.821773 2.724340 0.870912
v 4.821773 2.724340 -0.809991
v 4.821773 1.704784 0.870912
v 6.164410 1.704784 0.870912
v 6.147485 1.704784 0.849723
v 4.838703 1.704784 0.849723
v 6.164410 1.733365 0.870912
v 4.821773 1.733365 0.870912
v 4.838703 1.733365 0.849723
v 6.147485 1.733365 0.849723
v 6.164410 1.704784 0.870912
v 6.164410 1.704784 -0.809991
v 6.147485 1.704784 -0.788798
v 6.147485 1.704784 0.849723
v 6.164410 1.733365 -0.809991
v 6.164410 1.733365 0.870912
v 6.147485 1.733365 0.849723
v 6.147485 1.733365 -0.788798
v 6.164410 1.704784 -0.809991
v 4.821773 1.704784 -0.809991
v 4.838703 1.704784 -0.788798
v 6.147485 1.704784 -0.788798
v 4.821773 1.733365 -0.809991
v 6.164410 1.733365 -0.809991
v 6.147485 1.733365 -0.788798
v 4.838703 1.733365 -0.788798
v 4.821773 1.704784 -0.809991
v 4.821773 1.704784 0.870912
v 4.838703 1.704784 0.849723
v 4.838703 1.704784 -0.788798
v 4.821773 1.733365 0.870912
v 4.821773 1.733365 -0.809991
v 4.838703 1.733365 -0.788798
v 4.838703 1.733365 0.849723
v 4.821773 2.724340 0.870912
v 6.164410 2.724340 0.870912
v 6.221411 2.724340 0.942274
v 4.764771 2.724340 0.942274
v 6.164410 2.724340 0.870912
v 6.164410 2.724340 -0.809991
v 6.221411 2.724340 -0.881353
v 6.221411 2.724340 0.942274
v 6.164410 2.724340 -0.809991
v 4.821773 2.724340 -0.809991
v 4.764771 2.724340 -0.881353
v 6.221411 2.724340 -0.881353
v 4.821773 2.724340 -0.809991
v 4.821773 2.724340 0.870912
v 4.764771 2.724340 0.942274
v 4.764771 2.724340 -0.881353
v 4.764771 2.724340 0.942274
v 6.221411 2.724340 0.942274
v 6.221411 2.753894 0.942274
v 4.764771 2.753894 0.942274
v 6.221411 2.724340 0.942274
v 6.221411 2.724340 -0.881353
v 6.221411 2.753894 -0.881353
v 6.221411 2.753894 0.942274
v 6.221411 2.724340 -0.881353
v 4.764771 2.724340 -0.881353
v 4.764771 2.753894 -0.881353
v 6.221411 2.753894 -0.881353
v 4.764771 2.724340 -0.881353
v 4.764771 2.724340 0.942274
v 4.764771 2.753894 0.942274
v 4.764771 2.753894 -0.881353
v 4.764771 2.753894 0.942274
v 6.221411 2.753894 0.942274
v 6.122201 2.753894 0.818069
v 4.863987 2.753894 0.818069
v 6.221411 2.753894 0.942274
v 6.221411 2.753894 -0.881353
v 6.122201 2.753894 -0.757142
v 6.122201 2.753894 0.818069
v 6.221411 2.753894 -0.881353
v 4.764771 2.753894 -0.881353
v 4.863987 2.753894 -0.757142
v 6.122201 2.753894 -0.757142
v 4.764771 2.753894 -0.881353
v 4.764771 2.753894 0.942274
v 4.863987 2.753894 0.818069
v 4.863987 2.753894 -0.757142
v 4.816709 2.753894 0.877251
v 6.169473 2.753894 0.877251
v 6.169473 3.221063 0.877251
v 4.816709 3.221063 0.877251
v 6.169473 2.753894 0.877251
v 6.169473 2.753894 -0.816330
v 6.169473 3.221063 -0.816330
v 6.169473 3.221063 0.877251
v 6.169473 2.753894 -0.816330
v 4.816709 2.753894 -0.816330
v 4.816709 3.221063 -0.816330
v 6.169473 3.221063 -0.816330
v 4.816709 2.753894 -0.816330
v 4.816709 2.753894 0.877251
v 4.816709 3.221063 0.877251
v 4.816709 3.221063 -0.816330
v 4.863987 2.753894 0.818069
v 6.122201 2.753894 0.818069
v 6.169473 2.753894 0.877251
v 4.816709 2.753894 0.877251
v 6.122201 2.753894 0.818069
v 6.122201 2.753894 -0.757142
v 6.169473 2.753894 -0.816330
v 6.169473 2.753894 0.877251
v 6.122201 2.753894 -0.757142
v 4.863987 2.753894 -0.757142
v 4.816709 2.753894 -0.816330
v 6.169473 2.753894 -0.816330
v 4.863987 2.753894 -0.757142
v 4.863987 2.753894 0.818069
v 4.816709 2.753894 0.877251
v 4.816709 2.753894 -0.816330
v 6.401070 3.467716 1.167197
v 6.401070 3.467716 -1.106275
v 4.585112 3.467716 -1.106275
v 4.585112 3.467716 1.167197
v 6.169473 3.221063 0.877251
v 6.169473 3.221063 -0.816330
v 6.226660 3.221063 -0.887917
v 6.226660 3.221063 0.948846
v 6.169473 3.221063 -0.816330
v 4.816709 3.221063 -0.816330
v 4.759528 3.221063 -0.887917
v 6.226660 3.221063 -0.887917
v 4.816709 3.221063 -0.816330
v 4.816709 3.221063 0.877251
v 4.759528 3.221063 0.948846
v 4.759528 3.221063 -0.887917
v 4.816709 3.221063 0.877251
v 6.169473 3.221063 0.877251
v 6.226660 3.221063 0.948846
v 4.759528 3.221063 0.948846
v 6.226660 3.221063 0.948846
v 6.226660 3.221063 -0.887917
v 6.226660 3.269584 -0.887917
v 6.226660 3.269584 0.948846
v 6.226660 3.221063 -0.887917
v 4.759528 3.221063 -0.887917
v 4.759528 3.269584 -0.887917
v 6.226660 3.269584 -0.887917
v 4.759528 3.221063 -0.887917
v 4.759528 3.221063 0.948846
v 4.759528 3.269584 0.948846
v 4.759528 3.269584 -0.887917
v 4.759528 3.221063 0.948846
v 6.226660 3.221063 0.948846
v 6.226660 3.269584 0.948846
v 4.759528 3.269584 0.948846
v 6.226660 3.269584 0.948846
v 6.226660 3.269584 -0.887917
v 6.280986 3.269584 -0.955929
v 6.280980 3.269584 1.016850
v 6.226660 3.269584 -0.887917
v 4.759528 3.269584 -0.887917
v 4.705203 3.269584 -0.955929
v 6.280986 3.269584 -0.955929
v 4.759528 3.269584 -0.887917
v 4.759528 3.269584 0.948846
v 4.705203 3.269584 1.016850
v 4.705203 3.269584 -0.955929
v 4.759528 3.269584 0.948846
v 6.226660 3.269584 0.948846
v 6.280980 3.269584 1.016850
v 4.705203 3.269584 1.016850
v 6.280980 3.269584 1.016850
v 6.280986 3.269584 -0.955929
v 6.280986 3.334279 -0.955929
v 6.280980 3.334279 1.016850
v 6.280986 3.269584 -0.955929
v 4.705203 3.269584 -0.955929
v 4.705203 3.334279 -0.955929
v 6.280986 3.334279 -0.955929
v 4.705203 3.269584 -0.955929
v 4.705203 3.269584 1.016850
v 4.705203 3.334279 1.016850
v 4.705203 3.334279 -0.955929
v 4.705203 3.269584 1.016850
v 6.280980 3.269584 1.016850
v 6.280980 3.334279 1.016850
v 4.705203 3.334279 1.016850
v 6.280980 3.334279 1.016850
v 6.280986 3.334279 -0.955929
v 6.318151 3.334279 -1.002465
v 6.318151 3.334279 1.063386
v 6.280986 3.334279 -0.955929
v 4.705203 3.334279 -0.955929
v 4.668032 3.334279 -1.002465
v 6.318151 3.334279 -1.002465
v 4.705203 3.334279 -0.955929
v 4.705203 3.334279 1.016850
v 4.668032 3.334279 1.063386
v 4.668032 3.334279 -1.002465
v 4.705203 3.334279 1.016850
v 6.280980 3.334279 1.016850
v 6.318151 3.334279 1.063386
v 4.668032 3.334279 1.063386
v 6.318151 3.334279 1.063386
v 6.318151 3.334279 -1.002465
v 6.358183 3.411111 -1.052575
v 6.358183 3.411111 1.113504
v 6.318151 3.334279 -1.002465
v 4.668032 3.334279 -1.002465
v 4.628006 3.411111 -1.052575
v 6.358183 3.411111 -1.052575
v 4.668032 3.334279 -1.002465
v 4.668032 3.334279 1.063386
v 4.628006 3.411111 1.113504
v 4.628006 3.411111 -1.052575
v 4.668032 3.334279 1.063386
v 6.318151 3.334279 1.063386
v 6.358183 3.411111 1.113504
v 4.628006 3.411111 1.113504
v 6.358183 3.411111 1.113504
v 6.358183 3.411111 -1.052575
v 6.401070 3.411111 -1.106275
v 6.401070 3.411111 1.167197
v 6.358183 3.411111 -1.052575
v 4.628006 3.411111 -1.052575
v 4.585112 3.411111 -1.106275
v 6.401070 3.411111 -1.106275
v 4.628006 3.411111 -1.052575
v 4.628006 3.411111 1.113504
v 4.585112 3.411111 1.167197
v 4.585112 3.411111 -1.106275
v 4.628006 3.411111 1.113504
v 6.358183 3.411111 1.113504
v 6.401070 3.411111 1.167197
v 4.585112 3.411111 1.167197
v 6.401070 3.411111 1.167197
v 6.401070 3.411111 -1.106275
v 6.401070 3.467716 -1.106275
v 6.401070 3.467716 1.167197
v 6.401070 3.411111 -1.106275
v 4.585112 3.411111 -1.106275
v 4.585112 3.467716 -1.106275
v 6.401070 3.467716 -1.106275
v 4.585112 3.411111 -1.106275
v 4.585112 3.411111 1.167197
v 4.585112 3.467716 1.167197
v 4.585112 3.467716 -1.106275
v 4.585112 3.411111 1.167197
v 6.401070 3.411111 1.167197
v 6.401070 3.467716 1.167197
v 4.585112 3.467716 1.167197
v -6.313235 3.459356 0.990838
v -4.675188 3.459356 0.990838
v -4.705568 3.594642 0.952804
v -6.282862 3.594642 0.952804
v -4.675188 3.459356 0.990838
v -4.675188 3.459356 -1.059900
v -4.705568 3.594642 -1.021874
v -4.705568 3.594642 0.952804
v -4.675188 3.459356 -1.059900
v -6.313235 3.459356 -1.059900
v -6.282862 3.594642 -1.021874
v -4.705568 3.594642 -1.021874
v -6.313235 3.459356 -1.059900
v -6.313235 3.459356 0.990838
v -6.282862 3.594642 0.952804
v -6.282862 3.594642 -1.021874
v -4.755362 3.723183 0.890465
v -6.233061 3.723183 0.890465
v -4.755362 3.723183 -0.959527
v -4.755362 3.723183 0.890465
v -6.233061 3.723183 -0.959527
v -4.755362 3.723183 -0.959527
v -6.233061 3.723183 0.890465
v -6.233061 3.723183 -0.959527
v -4.823347 3.841807 0.805351
v -6.165076 3.841807 0.805351
v -4.823347 3.841807 -0.874413
v -4.823347 3.841807 0.805351
v -6.165076 3.841807 -0.874413
v -4.823347 3.841807 -0.874413
v -6.165076 3.841807 0.805351
v -6.165076 3.841807 -0.874413
v -4.907854 3.947604 0.699550
v -6.080568 3.947604 0.699549
v -4.907854 3.947604 -0.768615
v -4.907854 3.947604 0.699550
v -6.080568 3.947604 -0.768615
v -4.907854 3.947604 -0.768615
v -6.080568 3.947604 0.699549
v -6.080568 3.947604 -0.768615
v -5.006802 4.037955 0.575677
v -5.981621 4.037955 0.575676
v -5.006802 4.037955 -0.644741
v -5.006802 4.037955 0.575677
v -5.981621 4.037955 -0.644741
v -5.006802 4.037955 -0.644741
v -5.981621 4.037955 0.575676
v -5.981621 4.037955 -0.644741
v -5.117745 4.110652 0.436778
v -5.870677 4.110652 0.436778
v -5.117745 4.110652 -0.505843
v -5.117745 4.110652 0.436778
v -5.870677 4.110652 -0.505843
v -5.117745 4.110652 -0.505843
v -5.870677 4.110652 0.436778
v -5.870677 4.110652 -0.505843
v -5.237964 4.163896 0.286273
v -5.750459 4.163896 0.286273
v -5.237964 4.163896 -0.355339
v -5.237964 4.163896 0.286273
v -5.750459 4.163896 -0.355339
v -5.237964 4.163896 -0.355339
v -5.750459 4.163896 0.286273
v -5.750459 4.163896 -0.355339
v -5.364493 4.196375 0.127869
v -5.623929 4.196375 0.127869
v -5.364493 4.196375 -0.196935
v -5.364493 4.196375 0.127869
v -5.623929 4.196375 -0.196935
v -5.364493 4.196375 -0.196935
v -5.623929 4.196375 0.127869
v -5.623929 4.196375 -0.196935
v -5.494211 4.207289 -0.034532
v -5.494211 4.207289 -0.034532
v -5.494211 4.207289 -0.034532
v -5.494211 4.207289 -0.034532
v -4.722422 -4.211719 -0.995301
v -6.263767 -4.211719 -0.995301
v -6.263767 -2.670373 -0.995301
v -4.722422 -2.670373 -0.995301
v -4.722422 -2.670373 0.934372
v -6.263767 -2.670373 0.934372
v -6.263767 -4.211719 0.934372
v -4.722422 -4.211719 0.934372
v -6.263767 -4.211719 -0.995301
v -6.263767 -4.211719 0.934372
v -6.263767 -2.670373 0.934372
v -6.263767 -2.670373 -0.995301
v -4.722422 -4.211719 0.934372
v -4.722422 -4.211719 -0.995301
v -4.722422 -2.670373 -0.995301
v -4.722422 -2.670373 0.934372
v -4.722422 -2.670373 -0.995301
v -6.263767 -2.670373 -0.995301
v -6.164410 -2.670373 -0.870912
v -4.821773 -2.670373 -0.870912
v -6.263767 -2.670373 -0.995301
v -6.263767 -2.670373 0.934372
v -6.164410 -2.670373 0.809991
v -6.164410 -2.670373 -0.870912
v -6.263767 -2.670373 0.934372
v -4.722422 -2.670373 0.934372
v -4.821773 -2.670373 0.809991
v -6.164410 -2.670373 0.809991
v -4.722422 -2.670373 0.934372
v -4.722422 -2.670373 -0.995301
v -4.821773 -2.670373 -0.870912
v -4.821773 -2.670373 0.809991
v -4.838473 -1.373650 -0.850004
v -6.147709 -1.373650 -0.850004
v -6.147709 -1.349326 -0.850004
v -4.838473 -1.349326 -0.850004
v -6.147709 -1.373650 -0.850004
v -6.147709 -1.373650 0.789081
v -6.147709 -1.349326 0.789081
v -6.147709 -1.349326 -0.850004
v -6.147709 -1.373650 0.789081
v -4.838473 -1.373650 0.789081
v -4.838473 -1.349326 0.789081
v -6.147709 -1.349326 0.789081
v -4.838473 -1.373650 0.789081
v -4.838473 -1.373650 -0.850004
v -4.838473 -1.349326 -0.850004
v -4.838473 -1.349326 0.789081
v -4.839395 0.156545 -0.848850
v -6.146788 0.156545 -0.848850
v -6.146788 0.189792 -0.848850
v -4.839395 0.189792 -0.848850
v -6.146788 0.156545 -0.848850
v -6.146788 0.156544 0.787927
v -6.146788 0.189792 0.787927
v -6.146788 0.189792 -0.848850
v -6.146788 0.156544 0.787927
v -4.839395 0.156544 0.787927
v -4.839395 0.189792 0.787927
v -6.146788 0.189792 0.787927
v -4.839395 0.156544 0.787927
v -4.839395 0.156545 -0.848850
v -4.839395 0.189792 -0.848850
v -4.839395 0.189792 0.787927
v -4.821773 0.189792 -0.870911
v -6.164410 0.189792 -0.870911
v -6.164410 1.704784 -0.870911
v -4.821773 1.704784 -0.870911
v -6.164410 0.189792 -0.870911
v -6.164410 0.189792 0.809991
v -6.164410 1.704784 0.809991
v -6.164410 1.704784 -0.870911
v -6.164410 0.189792 0.809991
v -4.821773 0.189792 0.809991
v -4.821773 1.704784 0.809991
v -6.164410 1.704784 0.809991
v -4.821773 0.189792 0.809991
v -4.821773 0.189792 -0.870911
v -4.821773 1.704784 -0.870911
v -4.821773 1.704784 0.809991
v -4.838703 1.704784 -0.849723
v -6.147485 1.704784 -0.849723
v -6.147485 1.733365 -0.849723
v -4.838703 1.733365 -0.849723
v -6.147485 1.704784 -0.849723
v -6.147485 1.704784 0.788798
v -6.147485 1.733365 0.788798
v -6.147485 1.733365 -0.849723
v -6.147485 1.704784 0.788798
v -4.838703 1.704784 0.788798
v -4.838703 1.733365 0.788798
v -6.147485 1.733365 0.788798
v -4.838703 1.704784 0.788798
v -4.838703 1.704784 -0.849723
v -4.838703 1.733365 -0.849723
v -4.838703 1.733365 0.788798
v -4.821773 -2.670373 -0.870912
v -6.164410 -2.670373 -0.870912
v -6.164410 -1.373650 -0.870912
v -4.821773 -1.373650 -0.870912
v -6.164410 -2.670373 -0.870912
v -6.164410 -2.670373 0.809991
v -6.164410 -1.373651 0.809991
v -6.164410 -1.373650 -0.870912
v -6.164410 -2.670373 0.809991
v -4.821773 -2.670373 0.809991
v -4.821773 -1.373651 0.809991
v -6.164410 -1.373651 0.809991
v -4.821773 -2.670373 0.809991
v -4.821773 -2.670373 -0.870912
v -4.821773 -1.373650 -0.870912
v -4.821773 -1.373651 0.809991
v -4.821773 -1.349327 0.809991
v -4.821773 -1.349326 -0.870912
v -4.821773 0.156545 -0.870911
v -4.821773 0.156544 0.809991
v -6.164410 -1.349327 0.809991
v -4.821773 -1.349327 0.809991
v -4.821773 0.156544 0.809991
v -6.164410 0.156544 0.809991
v -6.164410 -1.349326 -0.870912
v -6.164410 -1.349327 0.809991
v -6.164410 0.156544 0.809991
v -6.164410 0.156545 -0.870911
v -4.821773 -1.349326 -0.870912
v -6.164410 -1.349326 -0.870912
v -6.164410 0.156545 -0.870911
v -4.821773 0.156545 -0.870911
v -4.821773 -1.373650 -0.870912
v -6.164410 -1.373650 -0.870912
v -6.147709 -1.373650 -0.850004
v -4.838473 -1.373650 -0.850004
v -6.164410 -1.349326 -0.870912
v -4.821773 -1.349326 -0.870912
v -4.838473 -1.349326 -0.850004
v -6.147709 -1.349326 -0.850004
v -6.164410 -1.373650 -0.870912
v -6.164410 -1.373651 0.809991
v -6.147709 -1.373650 0.789081
v -6.147709 -1.373650 -0.850004
v -6.164410 -1.349327 0.809991
v -6.164410 -1.349326 -0.870912
v -6.147709 -1.349326 -0.850004
v -6.147709 -1.349326 0.789081
v -6.164410 -1.373651 0.809991
v -4.821773 -1.373651 0.809991
v -4.838473 -1.373650 0.789081
v -6.147709 -1.373650 0.789081
v -4.821773 -1.349327 0.809991
v -6.164410 -1.349327 0.809991
v -6.147709 -1.349326 0.789081
v -4.838473 -1.349326 0.789081
v -4.821773 -1.373651 0.809991
v -4.821773 -1.373650 -0.870912
v -4.838473 -1.373650 -0.850004
v -4.838473 -1.373650 0.789081
v -4.821773 -1.349326 -0.870912
v -4.821773 -1.349327 0.809991
v -4.838473 -1.349326 0.789081
v -4.838473 -1.349326 -0.850004
v -4.821773 0.156545 -0.870911
v -6.164410 0.156545 -0.870911
v -6.146788 0.156545 -0.848850
v -4.839395 0.156545 -0.848850
v -6.164410 0.189792 -0.870911
v -4.821773 0.189792 -0.870911
v -4.839395 0.189792 -0.848850
v -6.146788 0.189792 -0.848850
v -6.164410 0.156545 -0.870911
v -6.164410 0.156544 0.809991
v -6.146788 0.156544 0.787927
v -6.146788 0.156545 -0.848850
v -6.164410 0.189792 0.809991
v -6.164410 0.189792 -0.870911
v -6.146788 0.189792 -0.848850
v -6.146788 0.189792 0.787927
v -6.164410 0.156544 0.809991
v -4.821773 0.156544 0.809991
v -4.839395 0.156544 0.787927
v -6.146788 0.156544 0.787927
v -4.821773 0.189792 0.809991
v -6.164410 0.189792 0.809991
v -6.146788 0.189792 0.787927
v -4.839395 0.189792 0.787927
v -4.821773 0.156544 0.809991
v -4.821773 0.156545 -0.870911
v -4.839395 0.156545 -0.848850
v -4.839395 0.156544 0.787927
v -4.821773 0.189792 -0.870911
v -4.821773 0.189792 0.809991
v -4.839395 0.189792 0.787927
v -4.839395 0.189792 -0.848850
v -4.821773 1.733365 -0.870911
v -6.164410 1.733365 -0.870911
v -6.164410 2.724340 -0.870911
v -4.821773 2.724340 -0.870911
v -6.164410 1.733365 -0.870911
v -6.164410 1.733365 0.809991
v -6.164410 2.724340 0.809991
v -6.164410 2.724340 -0.870911
v -6.164410 1.733365 0.809991
v -4.821773 1.733365 0.809991
v -4.821773 2.724340 0.809991
v -6.164410 2.724340 0.809991
v -4.821773 1.733365 0.809991
v -4.821773 1.733365 -0.870911
v -4.821773 2.724340 -0.870911
v -4.821773 2.724340 0.809991
v -4.821773 1.704784 -0.870911
v -6.164410 1.704784 -0.870911
v -6.147485 1.704784 -0.849723
v -4.838703 1.704784 -0.849723
v -6.164410 1.733365 -0.870911
v -4.821773 1.733365 -0.870911
v -4.838703 1.733365 -0.849723
v -6.147485 1.733365 -0.849723
v -6.164410 1.704784 -0.870911
v -6.164410 1.704784 0.809991
v -6.147485 1.704784 0.788798
v -6.147485 1.704784 -0.849723
v -6.164410 1.733365 0.809991
v -6.164410 1.733365 -0.870911
v -6.147485 1.733365 -0.849723
v -6.147485 1.733365 0.788798
v -6.164410 1.704784 0.809991
v -4.821773 1.704784 0.809991
v -4.838703 1.704784 0.788798
v -6.147485 1.704784 0.788798
v -4.821773 1.733365 0.809991
v -6.164410 1.733365 0.809991
v -6.147485 1.733365 0.788798
v -4.838703 1.733365 0.788798
v -4.821773 1.704784 0.809991
v -4.821773 1.704784 -0.870911
v -4.838703 1.704784 -0.849723
v -4.838703 1.704784 0.788798
v -4.821773 1.733365 -0.870911
v -4.821773 1.733365 0.809991
v -4.838703 1.733365 0.788798
v -4.838703 1.733365 -0.849723
v -4.821773 2.724340 -0.870911
v -6.164410 2.724340 -0.870911
v -6.221411 2.724340 -0.942274
v -4.764771 2.724340 -0.942274
v -6.164410 2.724340 -0.870911
v -6.164410 2.724340 0.809991
v -6.221411 2.724340 0.881354
v -6.221411 2.724340 -0.942274
v -6.164410 2.724340 0.809991
v -4.821773 2.724340 0.809991
v -4.764771 2.724340 0.881354
v -6.221411 2.724340 0.881354
v -4.821773 2.724340 0.809991
v -4.821773 2.724340 -0.870911
v -4.764771 2.724340 -0.942274
v -4.764771 2.724340 0.881354
v -4.764771 2.724340 -0.942274
v -6.221411 2.724340 -0.942274
v -6.221411 2.753894 -0.942274
v -4.764771 2.753894 -0.942274
v -6.221411 2.724340 -0.942274
v -6.221411 2.724340 0.881354
v -6.221411 2.753894 0.881354
v -6.221411 2.753894 -0.942274
v -6.221411 2.724340 0.881354
v -4.764771 2.724340 0.881354
v -4.764771 2.753894 0.881354
v -6.221411 2.753894 0.881354
v -4.764771 2.724340 0.881354
v -4.764771 2.724340 -0.942274
v -4.764771 2.753894 -0.942274
v -4.764771 2.753894 0.881354
v -4.764771 2.753894 -0.942274
v -6.221411 2.753894 -0.942274
v -6.122201 2.753894 -0.818069
v -4.863987 2.753894 -0.818069
v -6.221411 2.753894 -0.942274
v -6.221411 2.753894 0.881354
v -6.122201 2.753894 0.757142
v -6.122201 2.753894 -0.818069
v -6.221411 2.753894 0.881354
v -4.764771 2.753894 0.881354
v -4.863987 2.753894 0.757142
v -6.122201 2.753894 0.757142
v -4.764771 2.753894 0.881354
v -4.764771 2.753894 -0.942274
v -4.863987 2.753894 -0.818069
v -4.863987 2.753894 0.757142
v -4.816709 2.753894 -0.877250
v -6.169473 2.753894 -0.877250
v -6.169473 3.221063 -0.877250
v -4.816709 3.221063 -0.877250
v -6.169473 2.753894 -0.877250
v -6.169473 2.753894 0.816330
v -6.169473 3.221063 0.816330
v -6.169473 3.221063 -0.877250
v -6.169473 2.753894 0.816330
v -4.816709 2.753894 0.816330
v -4.816709 3.221063 0.816330
v -6.169473 3.221063 0.816330
v -4.816709 2.753894 0.816330
v -4.816709 2.753894 -0.877250
v -4.816709 3.221063 -0.877250
v -4.816709 3.221063 0.816330
v -4.863987 2.753894 -0.818069
v -6.122201 2.753894 -0.818069
v -6.169473 2.753894 -0.877250
v -4.816709 2.753894 -0.877250
v -6.122201 2.753894 -0.818069
v -6.122201 2.753894 0.757142
v -6.169473 2.753894 0.816330
v -6.169473 2.753894 -0.877250
v -6.122201 2.753894 0.757142
v -4.863987 2.753894 0.757142
v -4.816709 2.753894 0.816330
v -6.169473 2.753894 0.816330
v -4.863987 2.753894 0.757142
v -4.863987 2.753894 -0.818069
v -4.816709 2.753894 -0.877250
v -4.816709 2.753894 0.816330
v -6.401070 3.467716 -1.167196
v -6.401070 3.467716 1.106276
v -4.585112 3.467716 1.106276
v -4.585112 3.467716 -1.167196
v -6.169473 3.221063 -0.877250
v -6.169473 3.221063 0.816330
v -6.226660 3.221063 0.887917
v -6.226660 3.221063 -0.948845
v -6.169473 3.221063 0.816330
v -4.816709 3.221063 0.816330
v -4.759528 3.221063 0.887917
v -6.226660 3.221063 0.887917
v -4.816709 3.221063 0.816330
v -4.816709 3.221063 -0.877250
v -4.759528 3.221063 -0.948845
v -4.759528 3.221063 0.887917
v -4.816709 3.221063 -0.877250
v -6.169473 3.221063 -0.877250
v -6.226660 3.221063 -0.948845
v -4.759528 3.221063 -0.948845
v -6.226660 3.221063 -0.948845
v -6.226660 3.221063 0.887917
v -6.226660 3.269584 0.887917
v -6.226660 3.269584 -0.948845
v -6.226660 3.221063 0.887917
v -4.759528 3.221063 0.887917
v -4.759528 3.269584 0.887917
v -6.226660 3.269584 0.887917
v -4.759528 3.221063 0.887917
v -4.759528 3.221063 -0.948845
v -4.759528 3.269584 -0.948845
v -4.759528 3.269584 0.887917
v -4.759528 3.221063 -0.948845
v -6.226660 3.221063 -0.948845
v -6.226660 3.269584 -0.948845
v -4.759528 3.269584 -0.948845
v -6.226660 3.269584 -0.948845
v -6.226660 3.269584 0.887917
v -6.280986 3.269584 0.955930
v -6.280980 3.269584 -1.016850
v -6.226660 3.269584 0.887917
v -4.759528 3.269584 0.887917
v -4.705203 3.269584 0.955930
v -6.280986 3.269584 0.955930
v -4.759528 3.269584 0.887917
v -4.759528 3.269584 -0.948845
v -4.705203 3.269584 -1.016850
v -4.705203 3.269584 0.955930
v -4.759528 3.269584 -0.948845
v -6.226660 3.269584 -0.948845
v -6.280980 3.269584 -1.016850
v -4.705203 3.269584 -1.016850
v -6.280980 3.269584 -1.016850
v -6.280986 3.269584 0.955930
v -6.280986 3.334279 0.955930
v -6.280980 3.334279 -1.016850
v -6.280986 3.269584 0.955930
v -4.705203 3.269584 0.955930
v -4.705203 3.334279 0.955930
v -6.280986 3.334279 0.955930
v -4.705203 3.269584 0.955930
v -4.705203 3.269584 -1.016850
v -4.705203 3.334279 -1.016850
v -4.705203 3.334279 0.955930
v -4.705203 3.269584 -1.016850
v -6.280980 3.269584 -1.016850
v -6.280980 3.334279 -1.016850
v -4.705203 3.334279 -1.016850
v -6.280980 3.334279 -1.016850
v -6.280986 3.334279 0.955930
v -6.318151 3.334279 1.002466
v -6.318151 3.334279 -1.063386
v -6.280986 3.334279 0.955930
v -4.705203 3.334279 0.955930
v -4.668032 3.334279 1.002466
v -6.318151 3.334279 1.002466
v -4.705203 3.334279 0.955930
v -4.705203 3.334279 -1.016850
v -4.668032 3.334279 -1.063386
v -4.668032 3.334279 1.002466
v -4.705203 3.334279 -1.016850
v -6.280980 3.334279 -1.016850
v -6.318151 3.334279 -1.063386
v -4.668032 3.334279 -1.063386
v -6.318151 3.334279 -1.063386
v -6.318151 3.334279 1.002466
v -6.358183 3.411111 1.052576
v -6.358183 3.411111 -1.113504
v -6.318151 3.334279 1.002466
v -4.668032 3.334279 1.002466
v -4.628006 3.411111 1.052576
v -6.358183 3.411111 1.052576
v -4.668032 3.334279 1.002466
v -4.668032 3.334279 -1.063386
v -4.628006 3.411111 -1.113504
v -4.628006 3.411111 1.052576
v -4.668032 3.334279 -1.063386
v -6.318151 3.334279 -1.063386
v -6.358183 3.411111 -1.113504
v -4.628006 3.411111 -1.113504
v -6.358183 3.411111 -1.113504
v -6.358183 3.411111 1.052576
v -6.401070 3.411111 1.106276
v -6.401070 3.411111 -1.167196
v -6.358183 3.411111 1.052576
v -4.628006 3.411111 1.052576
v -4.585112 3.411111 1.106276
v -6.401070 3.411111 1.106276
v -4.628006 3.411111 1.052576
v -4.628006 3.411111 -1.113504
v -4.585112 3.411111 -1.167196
v -4.585112 3.411111 1.106276
v -4.628006 3.411111 -1.113504
v -6.358183 3.411111 -1.113504
v -6.401070 3.411111 -1.167196
v -4.585112 3.411111 -1.167196
v -6.401070 3.411111 -1.167196
v -6.401070 3.411111 1.106276
v -6.401070 3.467716 1.106276
v -6.401070 3.467716 -1.167196
v -6.401070 3.411111 1.106276
v -4.585112 3.411111 1.106276
v -4.585112 3.467716 1.106276
v -6.401070 3.467716 1.106276
v -4.585112 3.411111 1.106276
v -4.585112 3.411111 -1.167196
v -4.585112 3.467716 -1.167196
v -4.585112 3.467716 1.106276
v -4.585112 3.411111 -1.167196
v -6.401070 3.411111 -1.167196
v -6.401070 3.467716 -1.167196
v -4.585112 3.467716 -1.167196
vn -0.0000 0.3380 -0.9411
vn -0.0000 0.2706 -0.9627
vn -0.9612 0.2757 -0.0000
vn -0.9757 0.2191 -0.0000
vn -0.0000 0.3380 0.9411
vn -0.0000 0.2706 0.9627
vn -0.0000 0.3380 0.9412
vn 0.9612 0.2757 -0.0000
vn 0.9757 0.2191 -0.0000
vn 0.9612 0.2758 -0.0000
vn -0.0000 0.4898 -0.8718
vn -0.9123 0.4094 -0.0000
vn -0.0000 0.4898 0.8718
vn 0.9123 0.4094 -0.0000
vn -0.0000 0.6236 -0.7817
vn -0.8433 0.5374 -0.0000
vn -0.0000 0.6236 0.7818
vn -0.0000 0.6236 0.7817
vn 0.8433 0.5374 -0.0000
vn -0.0000 0.7369 -0.6760
vn -0.7542 0.6567 -0.0000
vn -0.0000 0.7369 0.6760
vn 0.7542 0.6566 -0.0000
vn 0.7542 0.6567 -0.0000
vn -0.0000 0.8288 -0.5596
vn -0.6455 0.7637 -0.0000
vn -0.6456 0.7637 -0.0000
vn -0.0000 0.8288 0.5596
vn 0.6455 0.7637 -0.0000
vn 0.6456 0.7637 -0.0000
vn -0.0000 0.8997 -0.4365
vn -0.5191 0.8547 -0.0000
vn -0.0000 0.8997 0.4365
vn 0.5191 0.8547 -0.0000
vn -0.0000 0.9506 -0.3105
vn -0.3785 0.9256 -0.0000
vn -0.0000 0.9506 0.3105
vn 0.3786 0.9256 -0.0000
vn 0.3785 0.9256 -0.0000
vn -0.0000 0.9823 -0.1873
vn -0.2322 0.9727 -0.0000
vn -0.0000 0.9823 0.1873
vn 0.2322 0.9727 -0.0000
vn -0.0000 0.9977 -0.0671
vn -0.0838 0.9965 -0.0000
vn -0.0000 0.9977 0.0671
vn 0.0838 0.9965 -0.0000
vn -0.0000 -0.0000 1.0000
vn -0.0000 -0.0000 -1.0000
vn 1.0000 -0.0000 -0.0000
vn -1.0000 -0.0000 -0.0000
vn -0.0000 1.0000 -0.0000
vn -0.0000 -1.0000 -0.0000
vn 0.8868 -0.4621 -0.0000
vn -0.0000 -0.5463 -0.8376
vn -0.8869 -0.4620 -0.0000
vn -0.0000 -0.5463 0.8376
vn -0.0000 0.3380 -0.9412
vn -0.9757 0.2190 -0.0000
vn -0.9612 0.2758 -0.0000
vn -0.0000 0.6236 -0.7818
vn -0.3786 0.9256 -0.0000
vn -0.8868 -0.4621 -0.0000
vn 0.8869 -0.4620 -0.0000
vt 0.746661 0.833102
vt 0.741840 0.834176
vt 0.741840 0.776241
vt 0.746661 0.777316
vt 0.561525 0.889610
vt 0.566346 0.888536
vt 0.566346 0.946471
vt 0.561525 0.945397
vt 0.012739 0.891405
vt 0.017561 0.890331
vt 0.017561 0.948266
vt 0.012739 0.947192
vt 0.022382 0.947192
vt 0.017561 0.948266
vt 0.017561 0.890331
vt 0.022382 0.891405
vt 0.751269 0.831341
vt 0.751269 0.779077
vt 0.556916 0.891371
vt 0.556916 0.943635
vt 0.008131 0.893166
vt 0.008131 0.945430
vt 0.026990 0.945430
vt 0.026990 0.893166
vt 0.755551 0.828936
vt 0.755551 0.781481
vt 0.552635 0.893776
vt 0.552635 0.941231
vt 0.003850 0.895571
vt 0.003850 0.943026
vt 0.031271 0.943026
vt 0.031271 0.895571
vt 0.759400 0.825947
vt 0.759400 0.784470
vt 0.548785 0.896765
vt 0.548785 0.938242
vt -0.000000 0.898560
vt -0.000000 0.940037
vt 0.035121 0.940037
vt 0.035121 0.898560
vt 0.745339 0.872154
vt 0.741840 0.875653
vt 0.741840 0.834176
vt 0.745339 0.837676
vt 0.877933 0.669982
vt 0.881433 0.666482
vt 0.881433 0.707959
vt 0.877933 0.704460
vt 0.115219 0.928308
vt 0.111719 0.931808
vt 0.111719 0.890331
vt 0.115219 0.893830
vt 0.884933 0.704460
vt 0.881433 0.707959
vt 0.881433 0.666482
vt 0.884933 0.669982
vt 0.749263 0.868230
vt 0.749263 0.841600
vt 0.874010 0.673906
vt 0.874010 0.700536
vt 0.119143 0.924384
vt 0.119143 0.897754
vt 0.888857 0.700536
vt 0.888857 0.673906
vt 0.753515 0.863978
vt 0.753515 0.845852
vt 0.869758 0.678158
vt 0.869758 0.696284
vt 0.123395 0.920132
vt 0.123395 0.902006
vt 0.893109 0.696284
vt 0.893109 0.678158
vt 0.757990 0.859503
vt 0.757990 0.850327
vt 0.865282 0.682633
vt 0.865282 0.691809
vt 0.127870 0.915657
vt 0.127870 0.906481
vt 0.897584 0.691809
vt 0.897584 0.682633
vt 0.762578 0.854915
vt 0.860695 0.687221
vt 0.132458 0.911069
vt 0.902172 0.687221
vt 0.764969 0.499680
vt 0.819447 0.499680
vt 0.819447 0.554195
vt 0.764969 0.554195
vt 0.764969 0.554195
vt 0.819447 0.554195
vt 0.819447 0.608710
vt 0.764969 0.608710
vt 0.499643 0.787502
vt 0.445165 0.787502
vt 0.445165 0.732987
vt 0.499643 0.732987
vt 0.499643 0.732987
vt 0.554121 0.732987
vt 0.554121 0.787502
vt 0.499643 0.787502
vt 0.759718 0.779755
vt 0.763232 0.776241
vt 0.763232 0.830756
vt 0.759718 0.827242
vt 0.892272 0.606613
vt 0.888758 0.610128
vt 0.888758 0.555613
vt 0.892272 0.559126
vt 0.940097 0.568665
vt 0.936583 0.572179
vt 0.936583 0.517664
vt 0.940097 0.521178
vt 0.583907 0.892050
vt 0.587420 0.888536
vt 0.587420 0.943051
vt 0.583907 0.939537
vt 0.818530 0.663974
vt 0.819390 0.663974
vt 0.819390 0.710279
vt 0.818530 0.710279
vt 0.935272 0.348927
vt 0.934412 0.348927
vt 0.934412 0.302622
vt 0.935272 0.302622
vt 0.765287 0.929117
vt 0.764427 0.929117
vt 0.764427 0.882811
vt 0.765287 0.882811
vt 0.484074 0.894273
vt 0.484933 0.894273
vt 0.484933 0.940578
vt 0.484074 0.940578
vt 0.643668 0.732987
vt 0.644843 0.732987
vt 0.644843 0.779228
vt 0.643668 0.779228
vt 0.470206 0.940513
vt 0.469031 0.940513
vt 0.469031 0.894273
vt 0.470206 0.894273
vt 0.938933 0.618420
vt 0.937758 0.618420
vt 0.937758 0.572179
vt 0.938933 0.572179
vt 0.470206 0.894273
vt 0.471381 0.894273
vt 0.471381 0.940513
vt 0.470206 0.940513
vt 0.822808 0.766528
vt 0.822808 0.820075
vt 0.775321 0.820075
vt 0.775321 0.766528
vt 0.694353 0.776241
vt 0.694353 0.829787
vt 0.646866 0.829787
vt 0.646866 0.776241
vt 0.499643 0.841049
vt 0.499643 0.787502
vt 0.547130 0.787502
vt 0.547130 0.841049
vt 0.547130 0.841049
vt 0.547130 0.787502
vt 0.594617 0.787502
vt 0.594617 0.841049
vt 0.507584 0.894273
vt 0.508594 0.894273
vt 0.508594 0.940562
vt 0.507584 0.940562
vt 0.482053 0.940562
vt 0.481043 0.940562
vt 0.481043 0.894273
vt 0.482053 0.894273
vt 0.491642 0.940562
vt 0.490632 0.940562
vt 0.490632 0.894273
vt 0.491642 0.894273
vt 0.506574 0.894273
vt 0.507584 0.894273
vt 0.507584 0.940562
vt 0.506574 0.940562
vt 0.764969 0.663225
vt 0.810801 0.663225
vt 0.810801 0.710712
vt 0.764969 0.710712
vt 0.916127 0.814015
vt 0.870295 0.814015
vt 0.870295 0.766528
vt 0.916127 0.766528
vt 0.916127 0.861502
vt 0.870295 0.861502
vt 0.870295 0.814015
vt 0.916127 0.814016
vt 0.873991 0.047487
vt 0.919822 0.047487
vt 0.919822 0.094974
vt 0.873991 0.094974
vt 0.694353 0.883011
vt 0.694353 0.829787
vt 0.741840 0.829787
vt 0.741840 0.883011
vt 0.499643 0.894273
vt 0.547130 0.894273
vt 0.822808 0.873299
vt 0.775321 0.873299
vt 0.877286 0.712013
vt 0.877286 0.765237
vt 0.829799 0.765237
vt 0.829799 0.712013
vt 0.523750 0.894863
vt 0.524341 0.894273
vt 0.524341 0.941760
vt 0.523750 0.941169
vt 0.524341 0.894863
vt 0.524931 0.894273
vt 0.524931 0.941760
vt 0.524341 0.941169
vt 0.526703 0.941169
vt 0.526113 0.941760
vt 0.526113 0.894273
vt 0.526703 0.894863
vt 0.526703 0.894863
vt 0.527294 0.894273
vt 0.527294 0.941760
vt 0.526703 0.941169
vt 0.521978 0.941169
vt 0.521387 0.941760
vt 0.521387 0.894273
vt 0.521978 0.894863
vt 0.522569 0.941169
vt 0.521978 0.941760
vt 0.521978 0.894273
vt 0.522569 0.894863
vt 0.527294 0.894863
vt 0.527885 0.894273
vt 0.527885 0.941760
vt 0.527294 0.941169
vt 0.528475 0.941169
vt 0.527885 0.941760
vt 0.527885 0.894273
vt 0.528475 0.894863
vt 0.511710 0.894896
vt 0.512334 0.894273
vt 0.512334 0.941760
vt 0.511710 0.941136
vt 0.512334 0.894896
vt 0.512957 0.894273
vt 0.512957 0.941760
vt 0.512334 0.941136
vt 0.486180 0.941136
vt 0.485557 0.941760
vt 0.485557 0.894273
vt 0.486180 0.894896
vt 0.486180 0.894896
vt 0.486803 0.894273
vt 0.486803 0.941760
vt 0.486180 0.941136
vt 0.763232 0.877620
vt 0.762609 0.878243
vt 0.762609 0.830756
vt 0.763232 0.831379
vt 0.940721 0.564528
vt 0.940097 0.565151
vt 0.940097 0.517664
vt 0.940721 0.518287
vt 0.486803 0.894896
vt 0.487427 0.894273
vt 0.487427 0.941760
vt 0.486803 0.941136
vt 0.509217 0.941136
vt 0.508594 0.941760
vt 0.508594 0.894273
vt 0.509217 0.894896
vt 0.608599 0.732987
vt 0.643624 0.732987
vt 0.643624 0.780474
vt 0.608599 0.780474
vt 0.857833 0.920786
vt 0.822808 0.920786
vt 0.857833 0.873299
vt 0.917726 0.666482
vt 0.882701 0.666482
vt 0.882701 0.618995
vt 0.917726 0.618995
vt 0.729378 0.883011
vt 0.729378 0.930498
vt 0.694353 0.930498
vt 0.516598 0.894871
vt 0.517197 0.894273
vt 0.517197 0.941760
vt 0.516598 0.941161
vt 0.517197 0.894871
vt 0.517796 0.894273
vt 0.517796 0.941760
vt 0.517197 0.941161
vt 0.519591 0.941161
vt 0.518993 0.941760
vt 0.518993 0.894273
vt 0.519591 0.894871
vt 0.519591 0.894871
vt 0.520190 0.894273
vt 0.520190 0.941760
vt 0.519591 0.941161
vt 0.514802 0.941161
vt 0.514203 0.941760
vt 0.514203 0.894273
vt 0.514802 0.894871
vt 0.515401 0.941161
vt 0.514802 0.941760
vt 0.514802 0.894273
vt 0.515401 0.894871
vt 0.924745 0.784887
vt 0.925344 0.784288
vt 0.925344 0.831775
vt 0.924745 0.831177
vt 0.925344 0.878664
vt 0.924745 0.879262
vt 0.924745 0.831775
vt 0.925344 0.832374
vt 0.414829 0.941850
vt 0.412813 0.939834
vt 0.412813 0.892347
vt 0.414829 0.890331
vt 0.422894 0.941850
vt 0.420878 0.939834
vt 0.420878 0.892347
vt 0.422894 0.890331
vt 0.416846 0.890331
vt 0.418862 0.892347
vt 0.418862 0.939834
vt 0.416846 0.941850
vt 0.424910 0.892347
vt 0.424910 0.939834
vt 0.474776 0.894273
vt 0.475820 0.894273
vt 0.475820 0.945792
vt 0.474776 0.945792
vt 0.814737 0.924818
vt 0.813692 0.924818
vt 0.813692 0.873299
vt 0.814737 0.873299
vt 0.476865 0.945792
vt 0.475820 0.945792
vt 0.475820 0.894273
vt 0.476865 0.894273
vt 0.478954 0.894273
vt 0.479999 0.894273
vt 0.479999 0.945792
vt 0.478954 0.945792
vt 0.323635 0.893840
vt 0.327144 0.890331
vt 0.327144 0.941850
vt 0.323635 0.938341
vt 0.334162 0.938341
vt 0.330653 0.941850
vt 0.330653 0.890331
vt 0.334162 0.893840
vt 0.320126 0.938341
vt 0.316617 0.941850
vt 0.316617 0.890331
vt 0.320126 0.893840
vt 0.309599 0.893840
vt 0.313108 0.890331
vt 0.313108 0.941850
vt 0.309599 0.938341
vt 0.173935 0.890331
vt 0.190446 0.890331
vt 0.190446 0.938176
vt 0.173935 0.938176
vt 0.256494 0.938176
vt 0.239982 0.938176
vt 0.239982 0.890331
vt 0.256494 0.890331
vt 0.206958 0.938176
vt 0.190446 0.938176
vt 0.190446 0.890331
vt 0.206958 0.890331
vt 0.256494 0.890331
vt 0.273005 0.890331
vt 0.273005 0.938176
vt 0.256494 0.938176
vt 0.501315 0.942118
vt 0.499643 0.940446
vt 0.499643 0.895945
vt 0.501315 0.894273
vt 0.462100 0.942118
vt 0.460428 0.940446
vt 0.460428 0.895945
vt 0.462100 0.894273
vt 0.455412 0.894273
vt 0.457084 0.895945
vt 0.457084 0.940446
vt 0.455412 0.942118
vt 0.816858 0.663974
vt 0.818530 0.665646
vt 0.818530 0.710147
vt 0.816858 0.711819
vt 0.711094 0.712014
vt 0.711094 0.776241
vt 0.646866 0.776241
vt 0.646866 0.712014
vt 0.402701 0.942221
vt 0.400679 0.940198
vt 0.400679 0.892353
vt 0.402701 0.890331
vt 0.404724 0.890331
vt 0.406746 0.892353
vt 0.406746 0.940198
vt 0.404724 0.942221
vt 0.408769 0.890331
vt 0.410791 0.892353
vt 0.410791 0.940198
vt 0.408769 0.942221
vt 0.646866 0.784878
vt 0.644843 0.782855
vt 0.644843 0.735010
vt 0.646866 0.732987
vt 0.452025 0.946163
vt 0.450310 0.946163
vt 0.450310 0.894273
vt 0.452025 0.894273
vt 0.448595 0.946163
vt 0.446880 0.946163
vt 0.446880 0.894273
vt 0.448595 0.894273
vt 0.436423 0.890331
vt 0.438138 0.890331
vt 0.438138 0.942221
vt 0.436423 0.942221
vt 0.432993 0.890331
vt 0.434708 0.890331
vt 0.434708 0.942221
vt 0.432993 0.942221
vt 0.392892 0.946063
vt 0.390971 0.944142
vt 0.390971 0.892252
vt 0.392892 0.890331
vt 0.383285 0.890331
vt 0.385206 0.892252
vt 0.385206 0.944142
vt 0.383285 0.946064
vt 0.387128 0.890331
vt 0.389049 0.892252
vt 0.389049 0.944142
vt 0.387128 0.946063
vt 0.396735 0.946063
vt 0.394814 0.944142
vt 0.394814 0.892252
vt 0.396735 0.890331
vt 0.371852 0.946063
vt 0.369565 0.946063
vt 0.369565 0.890331
vt 0.371852 0.890331
vt 0.367279 0.946064
vt 0.364992 0.946064
vt 0.364992 0.890331
vt 0.367279 0.890331
vt 0.378712 0.890331
vt 0.380998 0.890331
vt 0.380998 0.946063
vt 0.378712 0.946063
vt 0.374138 0.890331
vt 0.376425 0.890331
vt 0.376425 0.946063
vt 0.374138 0.946063
vt 0.506574 0.952635
vt 0.505259 0.951320
vt 0.505259 0.895587
vt 0.506574 0.894273
vt 0.463772 0.894273
vt 0.465087 0.895587
vt 0.465087 0.951320
vt 0.463772 0.952635
vt 0.465087 0.894273
vt 0.466401 0.895587
vt 0.466401 0.951320
vt 0.465087 0.952635
vt 0.502630 0.952635
vt 0.501315 0.951320
vt 0.501315 0.895587
vt 0.502630 0.894273
vt 0.348324 0.951524
vt 0.345661 0.950108
vt 0.345661 0.891746
vt 0.348324 0.890331
vt 0.342997 0.951524
vt 0.340334 0.950108
vt 0.340334 0.891746
vt 0.342997 0.890331
vt 0.945036 0.278128
vt 0.947699 0.279544
vt 0.947699 0.337906
vt 0.945036 0.339322
vt 0.948532 0.514805
vt 0.951196 0.516221
vt 0.951196 0.574583
vt 0.948532 0.575999
vt 0.440115 0.954558
vt 0.438598 0.953041
vt 0.438598 0.891848
vt 0.440115 0.890331
vt 0.947699 0.278128
vt 0.949216 0.279645
vt 0.949216 0.340838
vt 0.947699 0.342355
vt 0.441632 0.891848
vt 0.441632 0.953041
vt 0.431477 0.954558
vt 0.429960 0.953041
vt 0.429960 0.891847
vt 0.431477 0.890331
vt 0.953197 0.579033
vt 0.951196 0.579033
vt 0.951196 0.514805
vt 0.953197 0.514805
vt 0.362991 0.954558
vt 0.360991 0.954558
vt 0.360991 0.890331
vt 0.362991 0.890331
vt 0.350987 0.890331
vt 0.352988 0.890331
vt 0.352988 0.954558
vt 0.350987 0.954558
vt 0.352988 0.890331
vt 0.354989 0.890331
vt 0.354989 0.954558
vt 0.352988 0.954558
vt 0.000000 0.000000
s 1
g off
g Pilares_puertablanca
usemtl puertablanca
f 4/1/1 1/2/2 2/3/2
f 2/3/2 3/4/1 4/1/1
s 2
f 8/5/3 5/6/4 6/7/4
f 6/7/4 7/8/3 8/5/3
s 3
f 12/9/5 9/10/6 10/11/6
f 10/11/6 11/12/7 12/9/5
s 4
f 16/13/8 13/14/9 14/15/9
f 14/15/9 15/16/10 16/13/8
s 1
f 18/17/11 4/1/1 3/4/1
f 3/4/1 17/18/11 18/17/11
s 2
f 20/19/12 8/5/3 7/8/3
f 7/8/3 19/20/12 20/19/12
s 3
f 22/21/13 12/9/5 11/12/7
f 11/12/7 21/22/13 22/21/13
s 4
f 24/23/14 16/13/8 15/16/10
f 15/16/10 23/24/14 24/23/14
s 1
f 26/25/15 18/17/11 17/18/11
f 17/18/11 25/26/15 26/25/15
s 2
f 28/27/16 20/19/12 19/20/12
f 19/20/12 27/28/16 28/27/16
s 3
f 30/29/17 22/21/13 21/22/13
f 21/22/13 29/30/18 30/29/17
s 4
f 32/31/19 24/23/14 23/24/14
f 23/24/14 31/32/19 32/31/19
s 1
f 34/33/20 26/25/15 25/26/15
f 25/26/15 33/34/20 34/33/20
s 2
f 36/35/21 28/27/16 27/28/16
f 27/28/16 35/36/21 36/35/21
s 3
f 38/37/22 30/29/17 29/30/18
f 29/30/18 37/38/22 38/37/22
s 4
f 40/39/23 32/31/19 31/32/19
f 31/32/19 39/40/24 40/39/23
s 1
f 42/41/25 34/42/20 33/43/20
f 33/43/20 41/44/25 42/41/25
s 2
f 44/45/26 36/46/21 35/47/21
f 35/47/21 43/48/27 44/45/26
s 3
f 46/49/28 38/50/22 37/51/22
f 37/51/22 45/52/28 46/49/28
s 4
f 48/53/29 40/54/23 39/55/24
f 39/55/24 47/56/30 48/53/29
s 1
f 50/57/31 42/41/25 41/44/25
f 41/44/25 49/58/31 50/57/31
s 2
f 52/59/32 44/45/26 43/48/27
f 43/48/27 51/60/32 52/59/32
s 3
f 54/61/33 46/49/28 45/52/28
f 45/52/28 53/62/33 54/61/33
s 4
f 56/63/34 48/53/29 47/56/30
f 47/56/30 55/64/34 56/63/34
s 1
f 58/65/35 50/57/31 49/58/31
f 49/58/31 57/66/35 58/65/35
s 2
f 60/67/36 52/59/32 51/60/32
f 51/60/32 59/68/36 60/67/36
s 3
f 62/69/37 54/61/33 53/62/33
f 53/62/33 61/70/37 62/69/37
s 4
f 64/71/38 56/63/34 55/64/34
f 55/64/34 63/72/39 64/71/38
s 1
f 66/73/40 58/65/35 57/66/35
f 57/66/35 65/74/40 66/73/40
s 2
f 68/75/41 60/67/36 59/68/36
f 59/68/36 67/76/41 68/75/41
s 3
f 70/77/42 62/69/37 61/70/37
f 61/70/37 69/78/42 70/77/42
s 4
f 72/79/43 64/71/38 63/72/39
f 63/72/39 71/80/43 72/79/43
s 1
f 66/73/40 65/74/40 73/81/44
s 2
f 68/75/41 67/76/41 74/82/45
s 3
f 70/77/42 69/78/42 75/83/46
s 4
f 72/79/43 71/80/43 76/84/47
s 0
f 80/85/48 77/86/48 78/87/48
f 78/87/48 79/88/48 80/85/48
f 84/89/49 81/90/49 82/91/49
f 82/91/49 83/92/49 84/89/49
f 88/93/50 85/94/50 86/95/50
f 86/95/50 87/96/50 88/93/50
f 92/97/51 89/98/51 90/99/51
f 90/99/51 91/100/51 92/97/51
f 96/101/52 93/102/52 94/103/52
f 94/103/52 95/104/52 96/101/52
f 100/105/52 97/106/52 98/107/52
f 98/107/52 99/108/52 100/105/52
f 104/109/52 101/110/52 102/111/52
f 102/111/52 103/112/52 104/109/52
f 108/113/52 105/114/52 106/115/52
f 106/115/52 107/116/52 108/113/52
f 112/117/48 109/118/48 110/119/48
f 110/119/48 111/120/48 112/117/48
f 116/121/50 113/122/50 114/123/50
f 114/123/50 115/124/50 116/121/50
f 120/125/49 117/126/49 118/127/49
f 118/127/49 119/128/49 120/125/49
f 124/129/51 121/130/51 122/131/51
f 122/131/51 123/132/51 124/129/51
f 128/133/48 125/134/48 126/135/48
f 126/135/48 127/136/48 128/133/48
f 132/137/50 129/138/50 130/139/50
f 130/139/50 131/140/50 132/137/50
f 136/141/49 133/142/49 134/143/49
f 134/143/49 135/144/49 136/141/49
f 140/145/51 137/146/51 138/147/51
f 138/147/51 139/148/51 140/145/51
f 144/149/48 141/150/48 142/151/48
f 142/151/48 143/152/48 144/149/48
f 148/153/50 145/154/50 146/155/50
f 146/155/50 147/156/50 148/153/50
f 152/157/49 149/158/49 150/159/49
f 150/159/49 151/160/49 152/157/49
f 156/161/51 153/162/51 154/163/51
f 154/163/51 155/164/51 156/161/51
f 160/165/48 157/166/48 158/167/48
f 158/167/48 159/168/48 160/165/48
f 164/169/50 161/170/50 162/171/50
f 162/171/50 163/172/50 164/169/50
f 168/173/49 165/174/49 166/175/49
f 166/175/49 167/176/49 168/173/49
f 172/177/51 169/178/51 170/179/51
f 170/179/51 171/180/51 172/177/51
f 176/181/48 173/182/48 174/183/48
f 174/183/48 175/184/48 176/181/48
f 180/185/50 177/186/50 178/187/50
f 178/187/50 179/188/50 180/185/50
f 184/189/49 181/190/49 182/191/49
f 182/191/49 183/192/49 184/189/49
f 188/193/51 185/194/51 186/195/51
f 186/195/51 187/196/51 188/193/51
f 192/197/51 189/198/51 190/199/51
f 190/199/51 191/200/51 192/197/51
f 196/201/49 193/157/49 194/160/49
f 194/160/49 195/202/49 196/201/49
f 200/150/50 197/203/50 198/204/50
f 198/204/50 199/151/50 200/150/50
f 204/205/48 201/206/48 202/207/48
f 202/207/48 203/208/48 204/205/48
f 208/209/52 205/210/52 206/211/52
f 206/211/52 207/212/52 208/209/52
f 212/213/53 209/214/53 210/215/53
f 210/215/53 211/216/53 212/213/53
f 216/217/52 213/218/52 214/219/52
f 214/219/52 215/220/52 216/217/52
f 220/221/53 217/222/53 218/223/53
f 218/223/53 219/224/53 220/221/53
f 224/225/52 221/226/52 222/227/52
f 222/227/52 223/228/52 224/225/52
f 228/229/53 225/230/53 226/231/53
f 226/231/53 227/232/53 228/229/53
f 232/233/52 229/234/52 230/235/52
f 230/235/52 231/236/52 232/233/52
f 236/237/53 233/238/53 234/239/53
f 234/239/53 235/240/53 236/237/53
f 240/241/52 237/242/52 238/243/52
f 238/243/52 239/244/52 240/241/52
f 244/245/53 241/246/53 242/247/53
f 242/247/53 243/248/53 244/245/53
f 248/249/52 245/250/52 246/251/52
f 246/251/52 247/252/52 248/249/52
f 252/253/53 249/254/53 250/255/53
f 250/255/53 251/256/53 252/253/53
f 256/257/52 253/258/52 254/259/52
f 254/259/52 255/260/52 256/257/52
f 260/261/53 257/262/53 258/263/53
f 258/263/53 259/264/53 260/261/53
f 264/265/52 261/266/52 262/267/52
f 262/267/52 263/268/52 264/265/52
f 268/269/53 265/270/53 266/271/53
f 266/271/53 267/272/53 268/269/53
f 272/273/48 269/274/48 270/275/48
f 270/275/48 271/276/48 272/273/48
f 276/277/50 273/278/50 274/203/50
f 274/203/50 275/279/50 276/277/50
f 280/280/49 277/281/49 278/282/49
f 278/282/49 279/283/49 280/280/49
f 284/197/51 281/284/51 282/285/51
f 282/285/51 283/286/51 284/197/51
f 288/287/52 285/288/52 286/289/52
f 286/289/52 287/290/52 288/287/52
f 292/291/53 289/292/53 290/293/53
f 290/293/53 291/294/53 292/291/53
f 296/295/52 293/296/52 294/297/52
f 294/297/52 295/298/52 296/295/52
f 300/299/53 297/300/53 298/301/53
f 298/301/53 299/302/53 300/299/53
f 304/303/52 301/304/52 302/305/52
f 302/305/52 303/306/52 304/303/52
f 308/307/53 305/308/53 306/309/53
f 306/309/53 307/310/53 308/307/53
f 312/311/52 309/312/52 310/313/52
f 310/313/52 311/314/52 312/311/52
f 316/315/53 313/316/53 314/317/53
f 314/317/53 315/318/53 316/315/53
f 320/319/53 317/320/53 318/321/53
f 318/321/53 319/322/53 320/319/53
f 324/323/53 321/324/53 322/325/53
f 322/325/53 323/326/53 324/323/53
f 328/327/53 325/328/53 326/329/53
f 326/329/53 327/330/53 328/327/53
f 332/326/53 329/331/53 330/332/53
f 330/332/53 331/323/53 332/326/53
f 336/333/48 333/334/48 334/335/48
f 334/335/48 335/336/48 336/333/48
f 340/337/50 337/338/50 338/339/50
f 338/339/50 339/340/50 340/337/50
f 344/341/49 341/342/49 342/343/49
f 342/343/49 343/344/49 344/341/49
f 348/345/51 345/346/51 346/347/51
f 346/347/51 347/348/51 348/345/51
f 352/349/52 349/350/52 350/351/52
f 350/351/52 351/352/52 352/349/52
f 356/353/52 353/354/52 354/355/52
f 354/355/52 355/356/52 356/353/52
f 360/357/52 357/358/52 358/359/52
f 358/359/52 359/360/52 360/357/52
f 364/361/52 361/362/52 362/363/52
f 362/363/52 363/364/52 364/361/52
f 368/365/48 365/366/48 366/367/48
f 366/367/48 367/368/48 368/365/48
f 372/369/50 369/370/50 370/371/50
f 370/371/50 371/372/50 372/369/50
f 376/373/49 373/374/49 374/375/49
f 374/375/49 375/376/49 376/373/49
f 380/377/51 377/378/51 378/379/51
f 378/379/51 379/380/51 380/377/51
f 384/381/53 381/382/53 382/383/53
f 382/383/53 383/384/53 384/381/53
f 388/385/53 385/386/53 386/387/53
f 386/387/53 387/388/53 388/385/53
f 392/389/53 389/390/53 390/391/53
f 390/391/53 391/392/53 392/389/53
f 396/393/53 393/394/53 394/395/53
f 394/395/53 395/396/53 396/393/53
f 400/397/52 397/398/52 398/399/52
f 398/399/52 399/400/52 400/397/52
f 404/401/53 401/402/53 402/403/53
f 402/403/53 403/404/53 404/401/53
f 408/405/53 405/406/53 406/407/53
f 406/407/53 407/408/53 408/405/53
f 412/409/53 409/410/53 410/411/53
f 410/411/53 411/412/53 412/409/53
f 416/413/53 413/414/53 414/415/53
f 414/415/53 415/416/53 416/413/53
f 420/417/50 417/418/50 418/419/50
f 418/419/50 419/420/50 420/417/50
f 424/421/49 421/422/49 422/423/49
f 422/423/49 423/424/49 424/421/49
f 428/425/51 425/426/51 426/427/51
f 426/427/51 427/428/51 428/425/51
f 432/429/48 429/430/48 430/431/48
f 430/431/48 431/432/48 432/429/48
f 436/433/53 433/434/53 434/435/53
f 434/435/53 435/436/53 436/433/53
f 440/437/53 437/438/53 438/439/53
f 438/439/53 439/440/53 440/437/53
f 444/441/53 441/442/53 442/443/53
f 442/443/53 443/444/53 444/441/53
f 448/445/53 445/446/53 446/447/53
f 446/447/53 447/448/53 448/445/53
f 452/449/50 449/450/50 450/451/50
f 450/451/50 451/452/50 452/449/50
f 456/453/49 453/454/49 454/455/49
f 454/455/49 455/456/49 456/453/49
f 460/457/51 457/458/51 458/459/51
f 458/459/51 459/460/51 460/457/51
f 464/461/48 461/462/48 462/463/48
f 462/463/48 463/464/48 464/461/48
f 468/465/53 465/466/53 466/467/53
f 466/467/53 467/468/53 468/465/53
f 472/469/53 469/470/53 470/471/53
f 470/471/53 471/472/53 472/469/53
f 476/473/53 473/474/53 474/475/53
f 474/475/53 475/476/53 476/473/53
f 480/477/53 477/478/53 478/479/53
f 478/479/53 479/480/53 480/477/53
f 484/481/54 481/482/54 482/483/54
f 482/483/54 483/484/54 484/481/54
f 488/485/55 485/486/55 486/487/55
f 486/487/55 487/488/55 488/485/55
f 492/489/56 489/490/56 490/491/56
f 490/491/56 491/492/56 492/489/56
f 496/493/57 493/494/57 494/495/57
f 494/495/57 495/496/57 496/493/57
f 500/497/53 497/498/53 498/499/53
f 498/499/53 499/500/53 500/497/53
f 504/501/53 501/502/53 502/503/53
f 502/503/53 503/504/53 504/501/53
f 508/500/53 505/505/53 506/506/53
f 506/506/53 507/497/53 508/500/53
f 512/507/53 509/508/53 510/509/53
f 510/509/53 511/510/53 512/507/53
f 516/511/50 513/512/50 514/513/50
f 514/513/50 515/514/50 516/511/50
f 520/515/49 517/516/49 518/517/49
f 518/517/49 519/518/49 520/515/49
f 524/519/51 521/520/51 522/521/51
f 522/521/51 523/522/51 524/519/51
f 528/523/48 525/524/48 526/525/48
f 526/525/48 527/526/48 528/523/48
s 231
f 532/527/5 529/527/6 530/527/6
f 530/527/6 531/527/5 532/527/5
s 232
f 536/527/8 533/527/9 534/527/9
f 534/527/9 535/527/8 536/527/8
s 233
f 540/527/1 537/527/2 538/527/2
f 538/527/2 539/527/58 540/527/1
s 234
f 544/527/3 541/527/59 542/527/4
f 542/527/4 543/527/60 544/527/3
s 231
f 546/527/13 532/527/5 531/527/5
f 531/527/5 545/527/13 546/527/13
s 232
f 548/527/14 536/527/8 535/527/8
f 535/527/8 547/527/14 548/527/14
s 233
f 550/527/11 540/527/1 539/527/58
f 539/527/58 549/527/11 550/527/11
s 234
f 552/527/12 544/527/3 543/527/60
f 543/527/60 551/527/12 552/527/12
s 231
f 554/527/18 546/527/13 545/527/13
f 545/527/13 553/527/18 554/527/18
s 232
f 556/527/19 548/527/14 547/527/14
f 547/527/14 555/527/19 556/527/19
s 233
f 558/527/61 550/527/11 549/527/11
f 549/527/11 557/527/15 558/527/61
s 234
f 560/527/16 552/527/12 551/527/12
f 551/527/12 559/527/16 560/527/16
s 231
f 562/527/22 554/527/18 553/527/18
f 553/527/18 561/527/22 562/527/22
s 232
f 564/527/24 556/527/19 555/527/19
f 555/527/19 563/527/24 564/527/24
s 233
f 566/527/20 558/527/61 557/527/15
f 557/527/15 565/527/20 566/527/20
s 234
f 568/527/21 560/527/16 559/527/16
f 559/527/16 567/527/21 568/527/21
s 231
f 570/527/28 562/527/22 561/527/22
f 561/527/22 569/527/28 570/527/28
s 232
f 572/527/29 564/527/24 563/527/24
f 563/527/24 571/527/30 572/527/29
s 233
f 574/527/25 566/527/20 565/527/20
f 565/527/20 573/527/25 574/527/25
s 234
f 576/527/26 568/527/21 567/527/21
f 567/527/21 575/527/27 576/527/26
s 231
f 578/527/33 570/527/28 569/527/28
f 569/527/28 577/527/33 578/527/33
s 232
f 580/527/34 572/527/29 571/527/30
f 571/527/30 579/527/34 580/527/34
s 233
f 582/527/31 574/527/25 573/527/25
f 573/527/25 581/527/31 582/527/31
s 234
f 584/527/32 576/527/26 575/527/27
f 575/527/27 583/527/32 584/527/32
s 231
f 586/527/37 578/527/33 577/527/33
f 577/527/33 585/527/37 586/527/37
s 232
f 588/527/39 580/527/34 579/527/34
f 579/527/34 587/527/39 588/527/39
s 233
f 590/527/35 582/527/31 581/527/31
f 581/527/31 589/527/35 590/527/35
s 234
f 592/527/62 584/527/32 583/527/32
f 583/527/32 591/527/36 592/527/62
s 231
f 594/527/42 586/527/37 585/527/37
f 585/527/37 593/527/42 594/527/42
s 232
f 596/527/43 588/527/39 587/527/39
f 587/527/39 595/527/43 596/527/43
s 233
f 598/527/40 590/527/35 589/527/35
f 589/527/35 597/527/40 598/527/40
s 234
f 600/527/41 592/527/62 591/527/36
f 591/527/36 599/527/41 600/527/41
s 231
f 594/527/42 593/527/42 601/527/46
s 232
f 596/527/43 595/527/43 602/527/47
s 233
f 598/527/40 597/527/40 603/527/44
s 234
f 600/527/41 599/527/41 604/527/45
s 0
f 608/527/49 605/527/49 606/527/49
f 606/527/49 607/527/49 608/527/49
f 612/527/48 609/527/48 610/527/48
f 610/527/48 611/527/48 612/527/48
f 616/527/51 613/527/51 614/527/51
f 614/527/51 615/527/51 616/527/51
f 620/527/50 617/527/50 618/527/50
f 618/527/50 619/527/50 620/527/50
f 624/527/52 621/527/52 622/527/52
f 622/527/52 623/527/52 624/527/52
f 628/527/52 625/527/52 626/527/52
f 626/527/52 627/527/52 628/527/52
f 632/527/52 629/527/52 630/527/52
f 630/527/52 631/527/52 632/527/52
f 636/527/52 633/527/52 634/527/52
f 634/527/52 635/527/52 636/527/52
f 640/527/49 637/527/49 638/527/49
f 638/527/49 639/527/49 640/527/49
f 644/527/51 641/527/51 642/527/51
f 642/527/51 643/527/51 644/527/51
f 648/527/48 645/527/48 646/527/48
f 646/527/48 647/527/48 648/527/48
f 652/527/50 649/527/50 650/527/50
f 650/527/50 651/527/50 652/527/50
f 656/527/49 653/527/49 654/527/49
f 654/527/49 655/527/49 656/527/49
f 660/527/51 657/527/51 658/527/51
f 658/527/51 659/527/51 660/527/51
f 664/527/48 661/527/48 662/527/48
f 662/527/48 663/527/48 664/527/48
f 668/527/50 665/527/50 666/527/50
f 666/527/50 667/527/50 668/527/50
f 672/527/49 669/527/49 670/527/49
f 670/527/49 671/527/49 672/527/49
f 676/527/51 673/527/51 674/527/51
f 674/527/51 675/527/51 676/527/51
f 680/527/48 677/527/48 678/527/48
f 678/527/48 679/527/48 680/527/48
f 684/527/50 681/527/50 682/527/50
f 682/527/50 683/527/50 684/527/50
f 688/527/49 685/527/49 686/527/49
f 686/527/49 687/527/49 688/527/49
f 692/527/51 689/527/51 690/527/51
f 690/527/51 691/527/51 692/527/51
f 696/527/48 693/527/48 694/527/48
f 694/527/48 695/527/48 696/527/48
f 700/527/50 697/527/50 698/527/50
f 698/527/50 699/527/50 700/527/50
f 704/527/49 701/527/49 702/527/49
f 702/527/49 703/527/49 704/527/49
f 708/527/51 705/527/51 706/527/51
f 706/527/51 707/527/51 708/527/51
f 712/527/48 709/527/48 710/527/48
f 710/527/48 711/527/48 712/527/48
f 716/527/50 713/527/50 714/527/50
f 714/527/50 715/527/50 716/527/50
f 720/527/50 717/527/50 718/527/50
f 718/527/50 719/527/50 720/527/50
f 724/527/48 721/527/48 722/527/48
f 722/527/48 723/527/48 724/527/48
f 728/527/51 725/527/51 726/527/51
f 726/527/51 727/527/51 728/527/51
f 732/527/49 729/527/49 730/527/49
f 730/527/49 731/527/49 732/527/49
f 736/527/52 733/527/52 734/527/52
f 734/527/52 735/527/52 736/527/52
f 740/527/53 737/527/53 738/527/53
f 738/527/53 739/527/53 740/527/53
f 744/527/52 741/527/52 742/527/52
f 742/527/52 743/527/52 744/527/52
f 748/527/53 745/527/53 746/527/53
f 746/527/53 747/527/53 748/527/53
f 752/527/52 749/527/52 750/527/52
f 750/527/52 751/527/52 752/527/52
f 756/527/53 753/527/53 754/527/53
f 754/527/53 755/527/53 756/527/53
f 760/527/52 757/527/52 758/527/52
f 758/527/52 759/527/52 760/527/52
f 764/527/53 761/527/53 762/527/53
f 762/527/53 763/527/53 764/527/53
f 768/527/52 765/527/52 766/527/52
f 766/527/52 767/527/52 768/527/52
f 772/527/53 769/527/53 770/527/53
f 770/527/53 771/527/53 772/527/53
f 776/527/52 773/527/52 774/527/52
f 774/527/52 775/527/52 776/527/52
f 780/527/53 777/527/53 778/527/53
f 778/527/53 779/527/53 780/527/53
f 784/527/52 781/527/52 782/527/52
f 782/527/52 783/527/52 784/527/52
f 788/527/53 785/527/53 786/527/53
f 786/527/53 787/527/53 788/527/53
f 792/527/52 789/527/52 790/527/52
f 790/527/52 791/527/52 792/527/52
f 796/527/53 793/527/53 794/527/53
f 794/527/53 795/527/53 796/527/53
f 800/527/49 797/527/49 798/527/49
f 798/527/49 799/527/49 800/527/49
f 804/527/51 801/527/51 802/527/51
f 802/527/51 803/527/51 804/527/51
f 808/527/48 805/527/48 806/527/48
f 806/527/48 807/527/48 808/527/48
f 812/527/50 809/527/50 810/527/50
f 810/527/50 811/527/50 812/527/50
f 816/527/52 813/527/52 814/527/52
f 814/527/52 815/527/52 816/527/52
f 820/527/53 817/527/53 818/527/53
f 818/527/53 819/527/53 820/527/53
f 824/527/52 821/527/52 822/527/52
f 822/527/52 823/527/52 824/527/52
f 828/527/53 825/527/53 826/527/53
f 826/527/53 827/527/53 828/527/53
f 832/527/52 829/527/52 830/527/52
f 830/527/52 831/527/52 832/527/52
f 836/527/53 833/527/53 834/527/53
f 834/527/53 835/527/53 836/527/53
f 840/527/52 837/527/52 838/527/52
f 838/527/52 839/527/52 840/527/52
f 844/527/53 841/527/53 842/527/53
f 842/527/53 843/527/53 844/527/53
f 848/527/53 845/527/53 846/527/53
f 846/527/53 847/527/53 848/527/53
f 852/527/53 849/527/53 850/527/53
f 850/527/53 851/527/53 852/527/53
f 856/527/53 853/527/53 854/527/53
f 854/527/53 855/527/53 856/527/53
f 860/527/53 857/527/53 858/527/53
f 858/527/53 859/527/53 860/527/53
f 864/527/49 861/527/49 862/527/49
f 862/527/49 863/527/49 864/527/49
f 868/527/51 865/527/51 866/527/51
f 866/527/51 867/527/51 868/527/51
f 872/527/48 869/527/48 870/527/48
f 870/527/48 871/527/48 872/527/48
f 876/527/50 873/527/50 874/527/50
f 874/527/50 875/527/50 876/527/50
f 880/527/52 877/527/52 878/527/52
f 878/527/52 879/527/52 880/527/52
f 884/527/52 881/527/52 882/527/52
f 882/527/52 883/527/52 884/527/52
f 888/527/52 885/527/52 886/527/52
f 886/527/52 887/527/52 888/527/52
f 892/527/52 889/527/52 890/527/52
f 890/527/52 891/527/52 892/527/52
f 896/527/49 893/527/49 894/527/49
f 894/527/49 895/527/49 896/527/49
f 900/527/51 897/527/51 898/527/51
f 898/527/51 899/527/51 900/527/51
f 904/527/48 901/527/48 902/527/48
f 902/527/48 903/527/48 904/527/48
f 908/527/50 905/527/50 906/527/50
f 906/527/50 907/527/50 908/527/50
f 912/527/53 909/527/53 910/527/53
f 910/527/53 911/527/53 912/527/53
f 916/527/53 913/527/53 914/527/53
f 914/527/53 915/527/53 916/527/53
f 920/527/53 917/527/53 918/527/53
f 918/527/53 919/527/53 920/527/53
f 924/527/53 921/527/53 922/527/53
f 922/527/53 923/527/53 924/527/53
f 928/527/52 925/527/52 926/527/52
f 926/527/52 927/527/52 928/527/52
f 932/527/53 929/527/53 930/527/53
f 930/527/53 931/527/53 932/527/53
f 936/527/53 933/527/53 934/527/53
f 934/527/53 935/527/53 936/527/53
f 940/527/53 937/527/53 938/527/53
f 938/527/53 939/527/53 940/527/53
f 944/527/53 941/527/53 942/527/53
f 942/527/53 943/527/53 944/527/53
f 948/527/51 945/527/51 946/527/51
f 946/527/51 947/527/51 948/527/51
f 952/527/48 949/527/48 950/527/48
f 950/527/48 951/527/48 952/527/48
f 956/527/50 953/527/50 954/527/50
f 954/527/50 955/527/50 956/527/50
f 960/527/49 957/527/49 958/527/49
f 958/527/49 959/527/49 960/527/49
f 964/527/53 961/527/53 962/527/53
f 962/527/53 963/527/53 964/527/53
f 968/527/53 965/527/53 966/527/53
f 966/527/53 967/527/53 968/527/53
f 972/527/53 969/527/53 970/527/53
f 970/527/53 971/527/53 972/527/53
f 976/527/53 973/527/53 974/527/53
f 974/527/53 975/527/53 976/527/53
f 980/527/51 977/527/51 978/527/51
f 978/527/51 979/527/51 980/527/51
f 984/527/48 981/527/48 982/527/48
f 982/527/48 983/527/48 984/527/48
f 988/527/50 985/527/50 986/527/50
f 986/527/50 987/527/50 988/527/50
f 992/527/49 989/527/49 990/527/49
f 990/527/49 991/527/49 992/527/49
f 996/527/53 993/527/53 994/527/53
f 994/527/53 995/527/53 996/527/53
f 1000/527/53 997/527/53 998/527/53
f 998/527/53 999/527/53 1000/527/53
f 1004/527/53 1001/527/53 1002/527/53
f 1002/527/53 1003/527/53 1004/527/53
f 1008/527/53 1005/527/53 1006/527/53
f 1006/527/53 1007/527/53 1008/527/53
f 1012/527/63 1009/527/63 1010/527/63
f 1010/527/63 1011/527/63 1012/527/63
f 1016/527/57 1013/527/57 1014/527/57
f 1014/527/57 1015/527/57 1016/527/57
f 1020/527/64 1017/527/64 1018/527/64
f 1018/527/64 1019/527/64 1020/527/64
f 1024/527/55 1021/527/55 1022/527/55
f 1022/527/55 1023/527/55 1024/527/55
f 1028/527/53 1025/527/53 1026/527/53
f 1026/527/53 1027/527/53 1028/527/53
f 1032/527/53 1029/527/53 1030/527/53
f 1030/527/53 1031/527/53 1032/527/53
f 1036/527/53 1033/527/53 1034/527/53
f 1034/527/53 1035/527/53 1036/527/53
f 1040/527/53 1037/527/53 1038/527/53
f 1038/527/53 1039/527/53 1040/527/53
f 1044/527/51 1041/527/51 1042/527/51
f 1042/527/51 1043/527/51 1044/527/51
f 1048/527/48 1045/527/48 1046/527/48
f 1046/527/48 1047/527/48 1048/527/48
f 1052/527/50 1049/527/50 1050/527/50
f 1050/527/50 1051/527/50 1052/527/50
f 1056/527/49 1053/527/49 1054/527/49
f 1054/527/49 1055/527/49 1056/527/49
