# Blender 4.5.3 LTS
# www.blender.org
mtllib puertaizquierda.mtl
g RightPartGate_Mesh
v 4.364134 2.854660 -0.163545
v 4.338974 2.977701 0.004426
v 4.620263 3.005155 0.004497
v 4.636627 2.880872 -0.163590
v 2.141410 2.329381 -0.163685
v 2.039819 2.438276 0.002911
v 2.210599 2.486758 0.003056
v 2.315539 2.378842 -0.163654
v 1.055558 2.077672 -0.163672
v 0.987509 2.194882 0.002231
v 1.164300 2.231586 0.002335
v 1.239269 2.115925 -0.163684
v 0.502525 1.966908 -0.163666
v 0.462973 2.089623 0.001888
v 0.636768 2.122569 0.002006
v 0.687887 2.001915 -0.163665
v 0.504055 1.962344 0.161509
v 0.543601 1.839629 -0.004044
v 0.741061 1.876583 -0.004165
v 0.689936 1.997243 0.161505
v 0.084222 1.778428 -0.003801
v 0.341001 1.806414 -0.003923
v 0.316222 1.931516 0.161514
v 0.078077 1.906309 0.161521
v 0.077865 1.910700 -0.163663
v 0.315294 1.935991 -0.163666
v 0.341001 1.806414 -0.003923
v 0.084222 1.778428 -0.003801
v 0.543601 1.839629 -0.004044
v 0.502525 1.966908 -0.163666
v 0.741061 1.876583 -0.004165
v 0.687887 2.001915 -0.163665
v 0.071720 2.038581 0.001660
v 0.290515 2.061093 0.001771
v 0.315294 1.935991 -0.163666
v 0.077865 1.910700 -0.163663
v 0.078077 1.906309 0.161521
v 0.316222 1.931516 0.161514
v 0.290515 2.061093 0.001771
v 0.071720 2.038581 0.001660
v 0.462973 2.089623 0.001888
v 0.504055 1.962344 0.161509
v 0.636768 2.122569 0.002006
v 0.689936 1.997243 0.161505
v 1.242591 2.110919 0.161471
v 1.058477 2.072782 0.161488
v 1.126533 1.955572 -0.004416
v 1.317561 1.995258 -0.004548
v 0.934764 1.915738 -0.004288
v 0.874440 2.034586 0.161499
v 0.871937 2.039374 -0.163667
v 0.934764 1.915738 -0.004288
v 1.055558 2.077672 -0.163672
v 1.126533 1.955572 -0.004416
v 1.317561 1.995258 -0.004548
v 1.239269 2.115925 -0.163684
v 0.811614 2.158229 0.002121
v 0.871937 2.039374 -0.163667
v 0.811614 2.158229 0.002121
v 0.874440 2.034586 0.161499
v 0.987509 2.194882 0.002231
v 1.058477 2.072782 0.161488
v 1.164300 2.231586 0.002335
v 1.242591 2.110919 0.161471
v 1.605218 2.194773 -0.163708
v 1.518228 2.307554 0.002541
v 1.694052 2.348316 0.002653
v 1.786337 2.236892 -0.163712
v 1.790817 2.231566 0.161427
v 1.609315 2.189550 0.161437
v 1.696305 2.076769 -0.004813
v 1.883102 2.120143 -0.004938
v 1.507615 2.035399 -0.004682
v 1.426373 2.149588 0.161453
v 1.422653 2.154703 -0.163698
v 1.507615 2.035399 -0.004682
v 1.605218 2.194773 -0.163708
v 1.696305 2.076769 -0.004813
v 1.883102 2.120143 -0.004938
v 1.786337 2.236892 -0.163712
v 1.341411 2.268891 0.002437
v 1.422653 2.154703 -0.163698
v 1.341411 2.268891 0.002437
v 1.426373 2.149588 0.161453
v 1.518228 2.307554 0.002541
v 1.609315 2.189550 0.161437
v 1.694052 2.348316 0.002653
v 1.790817 2.231566 0.161427
v 2.321088 2.373184 0.161467
v 2.146640 2.323838 0.161443
v 2.248231 2.214943 -0.005153
v 2.426028 2.265268 -0.005244
v 2.067280 2.166231 -0.005051
v 1.970073 2.276336 0.161429
v 1.965208 2.281770 -0.163705
v 2.067280 2.166231 -0.005051
v 2.141410 2.329381 -0.163685
v 2.248231 2.214943 -0.005153
v 2.426028 2.265268 -0.005244
v 2.315539 2.378842 -0.163654
v 1.868001 2.391881 0.002776
v 1.965208 2.281770 -0.163705
v 1.868001 2.391881 0.002776
v 1.970073 2.276336 0.161429
v 2.039819 2.438276 0.002911
v 2.146640 2.323838 0.161443
v 2.210599 2.486758 0.003056
v 2.321088 2.373184 0.161467
v 3.186750 2.625297 -0.163461
v 3.095240 2.735773 0.003823
v 3.283739 2.782513 0.003961
v 3.366127 2.670053 -0.163438
v 2.661120 2.479825 -0.163577
v 2.554548 2.587024 0.003364
v 2.730667 2.637426 0.003521
v 2.834582 2.529703 -0.163535
v 2.840471 2.523532 0.161568
v 2.667028 2.473860 0.161533
v 2.773593 2.366655 -0.005408
v 2.944392 2.415809 -0.005487
v 2.600994 2.316170 -0.005328
v 2.494237 2.423477 0.161498
v 2.488451 2.429276 -0.163618
v 2.600994 2.316170 -0.005328
v 2.661120 2.479825 -0.163577
v 2.773593 2.366655 -0.005408
v 2.944392 2.415809 -0.005487
v 2.834582 2.529703 -0.163535
v 2.381694 2.536578 0.003208
v 2.488451 2.429276 -0.163618
v 2.381694 2.536578 0.003208
v 2.494237 2.423477 0.161498
v 2.554548 2.587024 0.003364
v 2.667028 2.473860 0.161533
v 2.730667 2.637426 0.003521
v 2.840471 2.523532 0.161568
v 3.371126 2.663088 0.161645
v 3.192172 2.618620 0.161628
v 3.283675 2.508138 -0.005656
v 3.453508 2.550628 -0.005754
v 3.114175 2.463080 -0.005568
v 3.015387 2.571937 0.161602
v 3.009664 2.578344 -0.163495
v 3.114175 2.463080 -0.005568
v 3.186750 2.625297 -0.163461
v 3.283675 2.508138 -0.005656
v 3.453508 2.550628 -0.005754
v 3.366127 2.670053 -0.163438
v 2.910870 2.687208 0.003675
v 3.009664 2.578344 -0.163495
v 2.910870 2.687208 0.003675
v 3.015387 2.571937 0.161602
v 3.095240 2.735773 0.003823
v 3.192172 2.618620 0.161628
v 3.283739 2.782513 0.003961
v 3.371126 2.663088 0.161645
v 3.732179 2.750866 -0.163440
v 3.672188 2.867846 0.004188
v 3.870634 2.905561 0.004277
v 3.918399 2.786322 -0.163465
v 3.921580 2.778397 0.161595
v 3.736032 2.743268 0.161628
v 3.796023 2.626288 -0.005999
v 3.969351 2.659158 -0.006147
v 3.624167 2.590136 -0.005868
v 3.552411 2.704804 0.161646
v 3.547943 2.712082 -0.163430
v 3.624167 2.590136 -0.005868
v 3.732179 2.750866 -0.163440
v 3.796023 2.626288 -0.005999
v 3.969351 2.659158 -0.006147
v 3.918399 2.786322 -0.163465
v 3.476187 2.826751 0.004084
v 3.547943 2.712082 -0.163430
v 3.476187 2.826751 0.004084
v 3.552411 2.704804 0.161646
v 3.672188 2.867846 0.004188
v 3.736032 2.743268 0.161628
v 3.870634 2.905561 0.004277
v 3.921580 2.778397 0.161595
v 4.637790 2.872032 0.161448
v 4.365935 2.846114 0.161500
v 4.391095 2.723073 -0.006472
v 4.654154 2.747749 -0.006638
v 4.175719 2.695964 -0.006307
v 4.139827 2.817271 0.161550
v 4.137340 2.825515 -0.163503
v 4.175719 2.695964 -0.006307
v 4.364134 2.854660 -0.163545
v 4.391095 2.723073 -0.006472
v 4.654154 2.747749 -0.006638
v 4.636627 2.880872 -0.163590
v 4.101450 2.946822 0.004355
v 4.137340 2.825515 -0.163503
v 4.101450 2.946822 0.004355
v 4.139827 2.817271 0.161550
v 4.338974 2.977701 0.004426
v 4.365935 2.846114 0.161500
v 4.620263 3.005155 0.004497
v 4.637790 2.872032 0.161448
v 0.502570 -1.041448 0.057631
v 0.553036 -1.041448 0.057631
v 0.553036 1.921966 0.057631
v 0.502570 1.921966 0.057631
v 0.578269 -1.041448 -0.000952
v 0.578269 1.921966 -0.000951
v 0.553036 -1.041448 -0.059534
v 0.553036 1.921966 -0.059534
v 0.502570 -1.041448 -0.059534
v 0.502570 1.921966 -0.059534
v 0.477343 -1.041448 -0.000952
v 0.477343 1.921966 -0.000951
v 0.502570 -1.041448 0.057631
v 0.502570 1.921966 0.057631
v 0.477343 1.921966 -0.000951
v 0.502570 1.921966 0.057631
v 0.553036 1.921966 0.057631
v 0.578269 1.921966 -0.000951
v 0.553036 1.921966 -0.059534
v 0.502570 1.921966 -0.059534
v 1.263862 -1.041448 0.057631
v 1.314328 -1.041448 0.057631
v 1.314328 2.065101 0.057631
v 1.263862 2.065101 0.057631
v 1.339561 -1.041448 -0.000952
v 1.339561 2.065101 -0.000951
v 1.314328 -1.041448 -0.059534
v 1.314328 2.065101 -0.059534
v 1.263862 -1.041448 -0.059534
v 1.263862 2.065101 -0.059534
v 1.238636 -1.041448 -0.000952
v 1.238636 2.065101 -0.000951
v 1.263862 -1.041448 0.057631
v 1.263862 2.065101 0.057631
v 1.238636 2.065101 -0.000951
v 1.263862 2.065101 0.057631
v 1.314328 2.065101 0.057631
v 1.339561 2.065101 -0.000951
v 1.314328 2.065101 -0.059534
v 1.263862 2.065101 -0.059534
v 2.000068 -1.041448 0.057631
v 2.050534 -1.041448 0.057631
v 2.050534 2.200278 0.057631
v 2.000068 2.200278 0.057631
v 2.075761 -1.041448 -0.000952
v 2.075761 2.200278 -0.000951
v 2.050534 -1.041448 -0.059534
v 2.050534 2.200278 -0.059534
v 2.000068 -1.041448 -0.059534
v 2.000068 2.200278 -0.059534
v 1.974835 -1.041448 -0.000952
v 1.974835 2.200278 -0.000951
v 2.000068 -1.041448 0.057631
v 2.000068 2.200278 0.057631
v 1.974835 2.200278 -0.000951
v 2.000068 2.200278 0.057631
v 2.050534 2.200278 0.057631
v 2.075761 2.200278 -0.000951
v 2.050534 2.200278 -0.059534
v 2.000068 2.200278 -0.059534
v 2.677289 -1.041448 0.057631
v 2.727748 -1.041448 0.057631
v 2.727748 2.446784 0.057631
v 2.677289 2.446784 0.057631
v 2.752981 -1.041448 -0.000952
v 2.752981 2.446784 -0.000951
v 2.727748 -1.041448 -0.059534
v 2.727748 2.446784 -0.059534
v 2.677289 -1.041448 -0.059534
v 2.677289 2.446784 -0.059534
v 2.652056 -1.041448 -0.000952
v 2.652056 2.446784 -0.000951
v 2.677289 -1.041448 0.057631
v 2.677289 2.446784 0.057631
v 2.652056 2.446784 -0.000951
v 2.677289 2.446784 0.057631
v 2.727748 2.446784 0.057631
v 2.752981 2.446784 -0.000951
v 2.727748 2.446784 -0.059534
v 2.677289 2.446784 -0.059534
v 4.059363 -1.041448 0.057631
v 4.109827 -1.041448 0.057631
v 4.109827 2.804610 0.057631
v 4.059363 2.804610 0.057631
v 4.135058 -1.041448 -0.000952
v 4.135058 2.804610 -0.000951
v 4.109827 -1.041448 -0.059534
v 4.109827 2.804610 -0.059534
v 4.059363 -1.041448 -0.059534
v 4.059363 2.804610 -0.059534
v 4.034130 -1.041448 -0.000952
v 4.034130 2.804610 -0.000951
v 4.059363 -1.041448 0.057631
v 4.059363 2.804610 0.057631
v 4.034130 2.804610 -0.000951
v 4.059363 2.804610 0.057631
v 4.109827 2.804610 0.057631
v 4.135058 2.804610 -0.000951
v 4.109827 2.804610 -0.059534
v 4.059363 2.804610 -0.059534
v 3.348601 -1.041448 0.057631
v 3.399067 -1.041448 0.057631
v 3.399067 2.661475 0.057631
v 3.348601 2.661475 0.057631
v 3.424300 -1.041448 -0.000952
v 3.424300 2.661475 -0.000951
v 3.399067 -1.041448 -0.059534
v 3.399067 2.661475 -0.059534
v 3.348601 -1.041448 -0.059534
v 3.348601 2.661475 -0.059534
v 3.323374 -1.041448 -0.000952
v 3.323374 2.661475 -0.000951
v 3.348601 -1.041448 0.057631
v 3.348601 2.661475 0.057631
v 3.323374 2.661475 -0.000951
v 3.348601 2.661475 0.057631
v 3.399067 2.661475 0.057631
v 3.424300 2.661475 -0.000951
v 3.399067 2.661475 -0.059534
v 3.348601 2.661475 -0.059534
v 4.618883 -0.449712 -0.067879
v 0.049905 -0.449712 -0.067879
v 0.049905 -0.449712 0.077294
v 4.618883 -0.449712 0.077294
v 4.618883 -0.495757 -0.067879
v 0.049905 -0.495757 -0.067879
v 0.049905 -0.449712 -0.067879
v 4.618883 -0.449712 -0.067879
v 0.049905 -0.495757 -0.067879
v 0.049905 -0.495757 0.077294
v 0.049905 -0.449712 0.077294
v 0.049905 -0.449712 -0.067879
v 0.049905 -0.495757 0.077294
v 4.618883 -0.495757 0.077294
v 4.618883 -0.449712 0.077294
v 0.049905 -0.449712 0.077294
v 4.618883 -0.495757 0.077294
v 4.618883 -0.495757 -0.067879
v 4.618883 -0.449712 -0.067879
v 4.618883 -0.449712 0.077294
v 0.049905 -0.495757 -0.067879
v 4.618883 -0.495757 -0.067879
v 4.618883 -0.495757 0.077294
v 0.049905 -0.495757 0.077294
v 4.357897 -4.009835 -0.130214
v 0.288985 -4.009835 -0.130214
v 0.288985 -1.156526 -0.130214
v 4.357897 -1.156526 -0.130214
v 4.594718 -0.990457 0.082831
v 0.052165 -0.990457 0.082831
v 0.052165 -0.990457 0.155925
v 4.594718 -0.990457 0.155925
v 4.357897 -1.156526 0.045570
v 0.288985 -1.156526 0.045570
v 0.288985 -4.009835 0.045570
v 4.357897 -4.009835 0.045570
v 4.594718 -4.175905 0.155925
v 0.052165 -4.175905 0.155925
v 0.052165 -4.175905 0.082831
v 4.594718 -4.175905 0.082831
v 0.052165 -0.990457 0.082831
v 0.052165 -4.175905 0.082831
v 0.052165 -4.175905 0.155925
v 0.052165 -0.990457 0.155925
v 4.594718 -4.175905 0.155925
v 4.594718 -4.175905 0.082831
v 4.594718 -0.990457 0.082831
v 4.594718 -0.990457 0.155925
v 4.594718 -4.175905 -0.165355
v 0.052165 -4.175905 -0.165355
v 0.173837 -4.090585 -0.165355
v 4.473049 -4.090585 -0.165355
v 0.052165 -4.175905 -0.165355
v 0.052165 -0.990457 -0.165354
v 0.173837 -1.075777 -0.165354
v 0.173837 -4.090585 -0.165355
v 0.052165 -0.990457 -0.165354
v 4.594718 -0.990457 -0.165354
v 4.473049 -1.075777 -0.165354
v 0.173837 -1.075777 -0.165354
v 4.594718 -0.990457 -0.165354
v 4.594718 -4.175905 -0.165355
v 4.473049 -4.090585 -0.165355
v 4.473049 -1.075777 -0.165354
v 4.594718 -0.990457 0.155925
v 0.052165 -0.990457 0.155925
v 0.173837 -1.075777 0.155925
v 4.473049 -1.075777 0.155925
v 0.052165 -0.990457 0.155925
v 0.052165 -4.175905 0.155925
v 0.173837 -4.090585 0.155925
v 0.173837 -1.075777 0.155925
v 0.052165 -4.175905 0.155925
v 4.594718 -4.175905 0.155925
v 4.473049 -4.090585 0.155925
v 0.173837 -4.090585 0.155925
v 4.594718 -4.175905 0.155925
v 4.594718 -0.990457 0.155925
v 4.473049 -1.075777 0.155925
v 4.473049 -4.090585 0.155925
v 4.473049 -4.090585 -0.165355
v 0.173837 -4.090585 -0.165355
v 0.173837 -4.090585 -0.092607
v 4.473049 -4.090585 -0.092607
v 0.173837 -4.090585 -0.165355
v 0.173837 -1.075777 -0.165354
v 0.173837 -1.075777 -0.092606
v 0.173837 -4.090585 -0.092607
v 0.173837 -1.075777 -0.165354
v 4.473049 -1.075777 -0.165354
v 4.473049 -1.075777 -0.092606
v 0.173837 -1.075777 -0.092606
v 4.473049 -1.075777 -0.165354
v 4.473049 -4.090585 -0.165355
v 4.473049 -4.090585 -0.092607
v 4.473049 -1.075777 -0.092606
v 4.473049 -1.075777 0.155925
v 0.173837 -1.075777 0.155925
v 0.173837 -1.075777 0.083177
v 4.473049 -1.075777 0.083177
v 0.173837 -1.075777 0.155925
v 0.173837 -4.090585 0.155925
v 0.173837 -4.090585 0.083177
v 0.173837 -1.075777 0.083177
v 0.173837 -4.090585 0.155925
v 4.473049 -4.090585 0.155925
v 4.473049 -4.090585 0.083177
v 0.173837 -4.090585 0.083177
v 4.473049 -4.090585 0.155925
v 4.473049 -1.075777 0.155925
v 4.473049 -1.075777 0.083177
v 4.473049 -4.090585 0.083177
v 4.473049 -4.090585 -0.092607
v 0.173837 -4.090585 -0.092607
v 0.288985 -4.009835 -0.130214
v 4.357897 -4.009835 -0.130214
v 0.173837 -4.090585 -0.092607
v 0.173837 -1.075777 -0.092606
v 0.288985 -1.156526 -0.130214
v 0.288985 -4.009835 -0.130214
v 0.173837 -1.075777 -0.092606
v 4.473049 -1.075777 -0.092606
v 4.357897 -1.156526 -0.130214
v 0.288985 -1.156526 -0.130214
v 4.473049 -1.075777 -0.092606
v 4.473049 -4.090585 -0.092607
v 4.357897 -4.009835 -0.130214
v 4.357897 -1.156526 -0.130214
v 4.473049 -1.075777 0.083177
v 0.173837 -1.075777 0.083177
v 0.288985 -1.156526 0.045570
v 4.357897 -1.156526 0.045570
v 0.173837 -1.075777 0.083177
v 0.173837 -4.090585 0.083177
v 0.288985 -4.009835 0.045570
v 0.288985 -1.156526 0.045570
v 0.173837 -4.090585 0.083177
v 4.473049 -4.090585 0.083177
v 4.357897 -4.009835 0.045570
v 0.288985 -4.009835 0.045570
v 4.473049 -4.090585 0.083177
v 4.473049 -1.075777 0.083177
v 4.357897 -1.156526 0.045570
v 4.357897 -4.009835 0.045570
v 4.594718 -0.990457 -0.165354
v 0.052165 -0.990457 -0.165354
v 0.052165 -0.990457 -0.092260
v 4.594718 -0.990457 -0.092260
v 0.052165 -4.175905 -0.165355
v 0.052165 -4.175905 -0.092260
v 0.052165 -0.990457 -0.092260
v 0.052165 -0.990457 -0.165354
v 4.594718 -4.175905 -0.092260
v 0.052165 -4.175905 -0.092260
v 0.052165 -4.175905 -0.165355
v 4.594718 -4.175905 -0.165355
v 4.594718 -0.990457 -0.092260
v 4.594718 -4.175905 -0.092260
v 4.594718 -4.175905 -0.165355
v 4.594718 -0.990457 -0.165354
v 4.635135 -0.962113 -0.092260
v 0.011749 -0.962113 -0.092260
v 0.011749 -0.962113 0.082831
v 4.635135 -0.962113 0.082831
v 0.011749 -0.962113 -0.092260
v 0.011749 -4.204242 -0.092260
v 0.011749 -4.204242 0.082831
v 0.011749 -0.962113 0.082831
v 4.635135 -4.204242 0.082831
v 0.011749 -4.204242 0.082831
v 0.011749 -4.204242 -0.092260
v 4.635135 -4.204242 -0.092260
v 4.635135 -0.962113 0.082831
v 4.635135 -4.204242 0.082831
v 4.635135 -4.204242 -0.092260
v 4.635135 -0.962113 -0.092260
v 4.594718 -0.990457 -0.092260
v 0.052165 -0.990457 -0.092260
v 0.011749 -0.962113 -0.092260
v 4.635135 -0.962113 -0.092260
v 0.052165 -0.990457 0.082831
v 4.594718 -0.990457 0.082831
v 4.635135 -0.962113 0.082831
v 0.011749 -0.962113 0.082831
v 0.052165 -0.990457 -0.092260
v 0.052165 -4.175905 -0.092260
v 0.011749 -4.204242 -0.092260
v 0.011749 -0.962113 -0.092260
v 0.052165 -4.175905 0.082831
v 0.052165 -0.990457 0.082831
v 0.011749 -0.962113 0.082831
v 0.011749 -4.204242 0.082831
v 4.594718 -4.175905 0.082831
v 0.052165 -4.175905 0.082831
v 0.011749 -4.204242 0.082831
v 4.635135 -4.204242 0.082831
v 0.052165 -4.175905 -0.092260
v 4.594718 -4.175905 -0.092260
v 4.635135 -4.204242 -0.092260
v 0.011749 -4.204242 -0.092260
v 4.594718 -0.990457 0.082831
v 4.594718 -4.175905 0.082831
v 4.635135 -4.204242 0.082831
v 4.635135 -0.962113 0.082831
v 4.594718 -4.175905 -0.092260
v 4.594718 -0.990457 -0.092260
v 4.635135 -0.962113 -0.092260
v 4.635135 -4.204242 -0.092260
v 4.747746 3.030561 -0.171430
v 4.743849 3.039970 -0.171430
v 4.743849 3.039970 0.170029
v 4.747746 3.030561 0.170029
v 4.743849 3.039970 -0.171430
v 4.734442 3.043862 -0.171430
v 4.734442 3.043862 0.170029
v 4.743849 3.039970 0.170029
v 4.734442 3.030561 -0.188085
v 4.743849 3.030561 -0.183207
v 4.743849 -4.211719 -0.183208
v 4.734442 -4.211719 -0.188086
v 4.743849 3.030561 -0.183207
v 4.747746 -4.211719 -0.171431
v 4.743849 -4.211719 -0.183208
v 4.734442 3.039970 -0.183207
v 4.628004 3.039970 -0.183207
v 4.628004 3.043862 -0.171430
v 4.734442 3.039970 -0.183207
v 4.628004 3.030561 -0.188085
v 4.628004 3.039970 -0.183207
v 4.618597 3.039970 -0.171430
v 4.618597 3.039970 0.170029
v 4.628004 3.043862 0.170029
v 4.618597 3.039970 -0.171430
v 4.614700 3.030561 -0.171430
v 4.614700 3.030561 0.170029
v 4.618597 3.039970 0.170029
v 4.618597 3.030561 -0.183207
v 4.618597 -4.211719 -0.183208
v 4.614700 -4.211719 -0.171431
v 4.618597 3.030561 -0.183207
v 4.628004 -4.211719 -0.188086
v 4.618597 -4.211719 -0.183208
v 4.743849 3.030561 0.181806
v 4.743849 -4.211719 0.181805
v 4.747746 -4.211719 0.170028
v 4.743849 3.030561 0.181806
v 4.734442 3.030561 0.186684
v 4.734442 -4.211719 0.186683
v 4.743849 -4.211719 0.181805
v 4.734442 3.039970 0.181806
v 4.628004 3.039970 0.181806
v 4.628004 3.030561 0.186684
v 4.734442 3.039970 0.181806
v 4.628004 3.039970 0.181806
v 4.618597 3.030561 0.181806
v 4.618597 -4.211719 0.181805
v 4.628004 -4.211719 0.186683
v 4.618597 3.030561 0.181806
v 4.614700 -4.211719 0.170028
v 4.618597 -4.211719 0.181805
v 4.742120 3.038242 -0.181043
v 4.742120 3.038242 -0.181043
v 4.742120 3.038242 -0.181043
v 4.620326 3.038242 -0.181043
v 4.620326 3.038242 -0.181043
v 4.620326 3.038242 -0.181043
v 4.742120 3.038242 0.179642
v 4.742120 3.038242 0.179642
v 4.742120 3.038242 0.179642
v 4.620326 3.038242 0.179642
v 4.620326 3.038242 0.179642
v 4.620326 3.038242 0.179642
v 0.108712 -4.211719 -0.266262
v -0.062549 -4.211719 -0.266262
v -0.062549 2.153537 -0.266262
v 0.108712 2.153537 -0.266262
v 0.108712 2.153537 -0.266262
v -0.062549 2.153537 -0.266262
v -0.062549 2.153537 0.246433
v 0.108712 2.153537 0.246433
v 0.108712 2.153537 0.246433
v -0.062549 2.153537 0.246433
v -0.062549 -4.211719 0.246432
v 0.108712 -4.211719 0.246432
v 0.098989 -4.159550 0.184826
v 0.098989 -4.159550 -0.204656
v 0.098989 2.101362 -0.204655
v 0.098989 2.101362 0.184826
v 0.108712 -4.211719 0.246432
v 0.108712 -4.211719 -0.266262
v 0.108712 -4.186563 -0.231324
v 0.108712 -4.186563 0.211494
v 0.108712 -4.211719 -0.266262
v 0.108712 2.153537 -0.266262
v 0.108712 2.128375 -0.231323
v 0.108712 -4.186563 -0.231324
v 0.108712 2.153537 -0.266262
v 0.108712 2.153537 0.246433
v 0.108712 2.128375 0.211495
v 0.108712 2.128375 -0.231323
v 0.108712 2.153537 0.246433
v 0.108712 -4.211719 0.246432
v 0.108712 -4.186563 0.211494
v 0.108712 2.128375 0.211495
v 0.108712 -4.186563 0.211494
v 0.108712 -4.186563 -0.231324
v 0.085438 -4.186563 -0.231324
v 0.085438 -4.186563 0.211494
v 0.108712 -4.186563 -0.231324
v 0.108712 2.128375 -0.231323
v 0.085438 2.128375 -0.231323
v 0.085438 -4.186563 -0.231324
v 0.108712 2.128375 -0.231323
v 0.108712 2.128375 0.211495
v 0.085438 2.128375 0.211495
v 0.085438 2.128375 -0.231323
v 0.108712 2.128375 0.211495
v 0.108712 -4.186563 0.211494
v 0.085438 -4.186563 0.211494
v 0.085438 2.128375 0.211495
v 0.085438 -4.186563 0.211494
v 0.085438 -4.186563 -0.231324
v 0.085438 -4.159550 -0.204656
v 0.085438 -4.159550 0.184826
v 0.085438 -4.186563 -0.231324
v 0.085438 2.128375 -0.231323
v 0.085438 2.101362 -0.204655
v 0.085438 -4.159550 -0.204656
v 0.085438 2.128375 -0.231323
v 0.085438 2.128375 0.211495
v 0.085438 2.101362 0.184826
v 0.085438 2.101362 -0.204655
v 0.085438 2.128375 0.211495
v 0.085438 -4.186563 0.211494
v 0.085438 -4.159550 0.184826
v 0.085438 2.101362 0.184826
v 0.085438 -4.159550 0.184826
v 0.085438 -4.159550 -0.204656
v 0.098989 -4.159550 -0.204656
v 0.098989 -4.159550 0.184826
v 0.085438 -4.159550 -0.204656
v 0.085438 2.101362 -0.204655
v 0.098989 2.101362 -0.204655
v 0.098989 -4.159550 -0.204656
v 0.085438 2.101362 -0.204655
v 0.085438 2.101362 0.184826
v 0.098989 2.101362 0.184826
v 0.098989 2.101362 -0.204655
v 0.085438 2.101362 0.184826
v 0.085438 -4.159550 0.184826
v 0.098989 -4.159550 0.184826
v 0.098989 2.101362 0.184826
vn -0.0774 0.7983 -0.5973
vn -0.0886 0.7971 -0.5973
vn -0.0895 0.7970 -0.5973
vn -0.0774 0.7984 -0.5972
vn -0.2166 0.7518 -0.6228
vn -0.2101 0.7547 -0.6215
vn -0.2078 0.7560 -0.6207
vn -0.2154 0.7523 -0.6226
vn -0.1621 0.7738 -0.6123
vn -0.1611 0.7737 -0.6127
vn -0.1610 0.7737 -0.6127
vn -0.1619 0.7739 -0.6123
vn -0.1622 0.7739 -0.6122
vn -0.1528 0.7759 -0.6121
vn -0.1385 0.7795 -0.6109
vn -0.1374 0.7797 -0.6108
vn -0.1518 0.7761 -0.6120
vn 0.1509 -0.7764 0.6119
vn 0.1367 -0.7799 0.6108
vn 0.1378 -0.7797 0.6109
vn 0.1520 -0.7760 0.6121
vn 0.0850 -0.7874 0.6106
vn 0.0848 -0.7876 0.6103
vn 0.1048 -0.7851 0.6104
vn 0.1036 -0.7853 0.6104
vn 0.0823 -0.7667 -0.6367
vn 0.0825 -0.7668 -0.6366
vn 0.1008 -0.7642 -0.6371
vn 0.1020 -0.7640 -0.6371
vn 0.1328 -0.7580 -0.6386
vn 0.1336 -0.7576 -0.6390
vn 0.1465 -0.7536 -0.6408
vn 0.1475 -0.7532 -0.6410
vn -0.0822 0.7877 -0.6105
vn -0.0824 0.7879 -0.6103
vn -0.1025 0.7854 -0.6105
vn -0.1037 0.7852 -0.6105
vn -0.0801 0.7672 0.6364
vn -0.0802 0.7671 0.6365
vn -0.1010 0.7641 0.6372
vn -0.0997 0.7643 0.6371
vn -0.1344 0.7577 0.6387
vn -0.1336 0.7577 0.6388
vn -0.1482 0.7531 0.6410
vn -0.1474 0.7532 0.6410
vn 0.1623 -0.7738 0.6123
vn 0.1618 -0.7739 0.6123
vn 0.1608 -0.7739 0.6126
vn 0.1612 -0.7737 0.6127
vn 0.1591 -0.7741 0.6127
vn 0.1585 -0.7743 0.6127
vn 0.1537 -0.7506 -0.6427
vn 0.1542 -0.7503 -0.6428
vn 0.1586 -0.7742 0.6127
vn 0.1592 -0.7741 0.6127
vn 0.1609 -0.7737 0.6127
vn 0.1606 -0.7739 0.6126
vn 0.1587 -0.7742 0.6127
vn 0.1538 -0.7506 -0.6427
vn 0.1558 -0.7492 -0.6437
vn 0.1557 -0.7492 -0.6438
vn 0.1556 -0.7493 -0.6437
vn 0.1538 -0.7505 -0.6427
vn 0.1564 -0.7485 -0.6444
vn 0.1568 -0.7483 -0.6446
vn 0.1556 -0.7492 -0.6438
vn 0.1559 -0.7491 -0.6438
vn 0.1564 -0.7486 -0.6444
vn -0.1595 0.7740 -0.6128
vn -0.1592 0.7741 -0.6128
vn -0.1546 0.7502 0.6429
vn -0.1542 0.7504 0.6427
vn -0.1609 0.7739 -0.6126
vn -0.1596 0.7740 -0.6128
vn -0.1591 0.7741 -0.6128
vn -0.1609 0.7738 -0.6127
vn -0.1558 0.7492 0.6438
vn -0.1560 0.7491 0.6438
vn -0.1543 0.7504 0.6427
vn -0.1547 0.7502 0.6429
vn -0.1557 0.7492 0.6438
vn -0.1567 0.7483 0.6445
vn -0.1562 0.7486 0.6444
vn -0.1557 0.7493 0.6437
vn -0.1567 0.7483 0.6446
vn -0.1863 0.7653 -0.6161
vn -0.1745 0.7701 -0.6136
vn -0.1727 0.7707 -0.6133
vn -0.1833 0.7667 -0.6153
vn 0.1863 -0.7653 0.6161
vn 0.1832 -0.7669 0.6151
vn 0.1729 -0.7706 0.6134
vn 0.1750 -0.7697 0.6139
vn 0.1668 -0.7727 0.6125
vn 0.1657 -0.7729 0.6124
vn 0.1565 -0.7485 -0.6444
vn 0.1601 -0.7465 -0.6458
vn 0.1609 -0.7464 -0.6458
vn 0.1570 -0.7482 -0.6446
vn 0.1670 -0.7433 -0.6477
vn 0.1685 -0.7426 -0.6482
vn 0.1766 -0.7385 -0.6507
vn 0.1793 -0.7372 -0.6515
vn -0.1669 0.7725 -0.6128
vn -0.1617 0.7739 -0.6123
vn -0.1654 0.7731 -0.6123
vn -0.1607 0.7465 0.6457
vn -0.1599 0.7466 0.6457
vn -0.1563 0.7485 0.6444
vn -0.1682 0.7429 0.6480
vn -0.1667 0.7434 0.6478
vn -0.1790 0.7375 0.6512
vn -0.1768 0.7383 0.6509
vn 0.2164 -0.7519 0.6228
vn 0.2153 -0.7524 0.6226
vn 0.2077 -0.7559 0.6209
vn 0.2098 -0.7548 0.6215
vn 0.1989 -0.7600 0.6187
vn 0.1960 -0.7614 0.6179
vn 0.1886 -0.7322 -0.6545
vn 0.1914 -0.7306 -0.6554
vn 0.1994 -0.7259 -0.6582
vn 0.2015 -0.7247 -0.6590
vn 0.2065 -0.7214 -0.6610
vn 0.2077 -0.7206 -0.6616
vn -0.1993 0.7597 -0.6190
vn -0.1961 0.7613 -0.6180
vn -0.1915 0.7306 0.6554
vn -0.1890 0.7318 0.6548
vn -0.2018 0.7245 0.6591
vn -0.1998 0.7257 0.6584
vn -0.2078 0.7205 0.6616
vn -0.2067 0.7213 0.6611
vn -0.1835 0.7718 -0.6088
vn -0.1950 0.7661 -0.6125
vn -0.1969 0.7651 -0.6130
vn -0.1853 0.7712 -0.6090
vn -0.2120 0.7560 -0.6192
vn -0.2171 0.7526 -0.6216
vn -0.2179 0.7520 -0.6221
vn -0.2133 0.7553 -0.6197
vn 0.2126 -0.7558 0.6193
vn 0.2139 -0.7550 0.6199
vn 0.2182 -0.7518 0.6222
vn 0.2174 -0.7524 0.6218
vn 0.2152 -0.7524 0.6225
vn 0.2190 -0.7509 0.6230
vn 0.2190 -0.7510 0.6230
vn 0.2187 -0.7510 0.6230
vn 0.2153 -0.7524 0.6225
vn 0.2066 -0.7213 -0.6611
vn 0.2098 -0.7188 -0.6628
vn 0.2099 -0.7188 -0.6628
vn 0.2076 -0.7206 -0.6615
vn 0.2188 -0.7510 0.6231
vn 0.2191 -0.7509 0.6230
vn 0.2175 -0.7524 0.6218
vn 0.2183 -0.7518 0.6222
vn 0.2188 -0.7510 0.6229
vn 0.2097 -0.7190 -0.6626
vn 0.2090 -0.7189 -0.6629
vn 0.2083 -0.7193 -0.6627
vn 0.2082 -0.7194 -0.6627
vn 0.2099 -0.7187 -0.6628
vn 0.2096 -0.7191 -0.6626
vn 0.2048 -0.7211 -0.6618
vn 0.2033 -0.7219 -0.6614
vn 0.2089 -0.7190 -0.6629
vn 0.2048 -0.7211 -0.6619
vn -0.2189 0.7509 -0.6230
vn -0.2166 0.7517 -0.6229
vn -0.2155 0.7523 -0.6226
vn -0.2186 0.7510 -0.6230
vn -0.2189 0.7510 -0.6229
vn -0.2099 0.7188 0.6628
vn -0.2068 0.7212 0.6611
vn -0.2099 0.7187 0.6629
vn -0.2190 0.7509 -0.6230
vn -0.2188 0.7510 -0.6230
vn -0.2188 0.7509 -0.6231
vn -0.2078 0.7196 0.6626
vn -0.2087 0.7191 0.6628
vn -0.2097 0.7190 0.6626
vn -0.2097 0.7191 0.6625
vn -0.2097 0.7189 0.6628
vn -0.2027 0.7223 0.6612
vn -0.2043 0.7213 0.6618
vn -0.2086 0.7192 0.6628
vn -0.2079 0.7195 0.6626
vn 0.1841 -0.7716 0.6089
vn 0.1863 -0.7707 0.6094
vn 0.1978 -0.7647 0.6133
vn 0.1958 -0.7657 0.6127
vn 0.2053 -0.7603 0.6162
vn 0.2070 -0.7593 0.6169
vn 0.2047 -0.7211 -0.6618
vn 0.1979 -0.7248 -0.6600
vn 0.1961 -0.7257 -0.6594
vn 0.1890 -0.7293 -0.6575
vn 0.1868 -0.7304 -0.6570
vn 0.1778 -0.7345 -0.6549
vn 0.1754 -0.7356 -0.6543
vn -0.2045 0.7607 -0.6161
vn -0.2063 0.7597 -0.6167
vn -0.1954 0.7261 0.6593
vn -0.1973 0.7251 0.6598
vn -0.1861 0.7307 0.6568
vn -0.1883 0.7297 0.6574
vn -0.1748 0.7359 0.6542
vn -0.1772 0.7348 0.6548
vn -0.1443 0.7867 -0.6002
vn -0.1558 0.7829 -0.6023
vn -0.1572 0.7827 -0.6023
vn -0.1453 0.7865 -0.6003
vn 0.1440 -0.7868 0.6002
vn 0.1451 -0.7865 0.6003
vn 0.1572 -0.7826 0.6023
vn 0.1558 -0.7829 0.6024
vn 0.1706 -0.7773 0.6055
vn 0.1726 -0.7767 0.6058
vn 0.1645 -0.7399 -0.6523
vn 0.1620 -0.7409 -0.6518
vn 0.1498 -0.7448 -0.6502
vn 0.1479 -0.7454 -0.6500
vn 0.1376 -0.7480 -0.6492
vn 0.1368 -0.7483 -0.6491
vn -0.1699 0.7778 -0.6052
vn -0.1721 0.7769 -0.6057
vn -0.1616 0.7411 0.6517
vn -0.1641 0.7400 0.6523
vn -0.1477 0.7456 0.6498
vn -0.1497 0.7449 0.6501
vn -0.1372 0.7483 0.6490
vn -0.1379 0.7480 0.6493
vn 0.0759 -0.7985 0.5972
vn 0.0878 -0.7973 0.5972
vn 0.0870 -0.7974 0.5972
vn 0.1195 -0.7923 0.5983
vn 0.1220 -0.7918 0.5985
vn 0.1160 -0.7521 -0.6488
vn 0.1133 -0.7526 -0.6486
vn 0.0832 -0.7567 -0.6484
vn 0.0822 -0.7568 -0.6484
vn 0.0715 -0.7574 -0.6490
vn 0.0717 -0.7576 -0.6488
vn -0.1205 0.7921 -0.5983
vn -0.1227 0.7913 -0.5989
vn -0.1142 0.7525 0.6486
vn -0.1168 0.7519 0.6488
vn -0.0837 0.7567 0.6484
vn -0.0847 0.7565 0.6485
vn -0.0733 0.7572 0.6491
vn -0.0731 0.7574 0.6489
vn -0.6120 -0.0000 0.7908
vn 0.6121 -0.0000 0.7908
vn 1.0000 -0.0000 -0.0000
vn 0.6121 -0.0000 -0.7908
vn -0.6120 -0.0000 -0.7908
vn -0.6121 -0.0000 -0.7908
vn -1.0000 -0.0000 -0.0000
vn -0.0000 1.0000 -0.0000
vn 0.6120 -0.0000 0.7908
vn 0.6120 -0.0000 -0.7908
vn -0.0000 -0.0000 -1.0000
vn -0.0000 -0.0000 1.0000
vn -0.0000 -1.0000 -0.0000
vn -0.0000 -0.4222 -0.9065
vn -0.3105 -0.0000 -0.9506
vn -0.0000 0.4222 -0.9065
vn 0.3105 -0.0000 -0.9506
vn -0.0000 -0.4222 0.9065
vn 0.3105 -0.0000 0.9506
vn -0.0000 0.4222 0.9065
vn -0.3104 -0.0000 0.9506
vn -0.3105 -0.0000 0.9506
vn 0.9999 0.0006 0.0111
vn 0.9999 0.0006 -0.0111
vn 0.9239 0.3826 -0.0069
vn 0.9242 0.3817 0.0069
vn 0.3823 0.9240 0.0069
vn 0.3817 0.9243 -0.0069
vn 0.0333 0.9994 -0.0108
vn 0.0333 0.9994 0.0108
vn 0.0421 -0.0000 -0.9991
vn 0.0421 0.0007 -0.9991
vn 0.4604 0.0004 -0.8877
vn 0.4604 -0.0000 -0.8877
vn 0.9494 -0.0000 -0.3141
vn 0.9494 0.0003 -0.3141
vn 0.9999 0.0001 -0.0111
vn -0.0333 0.9994 -0.0107
vn 0.0218 0.9498 -0.3120
vn -0.0218 0.9498 -0.3120
vn -0.0256 0.4576 -0.8888
vn 0.0255 0.4576 -0.8888
vn -0.0421 0.0007 -0.9991
vn -0.0333 0.9994 0.0107
vn -0.3823 0.9240 -0.0069
vn -0.3817 0.9243 0.0069
vn -0.9239 0.3826 0.0069
vn -0.9243 0.3817 -0.0069
vn -0.9999 0.0006 -0.0110
vn -0.9999 0.0006 0.0111
vn -0.9999 -0.0000 -0.0111
vn -0.9494 0.0004 -0.3141
vn -0.9494 -0.0000 -0.3141
vn -0.4604 -0.0000 -0.8877
vn -0.4603 0.0005 -0.8878
vn -0.0421 -0.0001 -0.9991
vn 0.9999 -0.0000 0.0111
vn 0.9494 0.0003 0.3141
vn 0.9494 -0.0000 0.3141
vn 0.4603 -0.0000 0.8877
vn 0.4603 0.0004 0.8877
vn 0.0421 0.0007 0.9991
vn 0.0421 0.0001 0.9991
vn -0.0421 0.0007 0.9991
vn 0.0256 0.4576 0.8888
vn -0.0255 0.4576 0.8888
vn -0.0218 0.9498 0.3120
vn 0.0218 0.9498 0.3120
vn -0.0421 -0.0000 0.9991
vn -0.4604 0.0004 0.8877
vn -0.4604 -0.0000 0.8877
vn -0.9494 -0.0000 0.3141
vn -0.9494 0.0004 0.3141
vn -0.9999 -0.0000 0.0110
vn 0.3316 0.9054 -0.2649
vn 0.9055 0.3316 -0.2649
vn 0.3848 0.3847 -0.8390
vn -0.9055 0.3316 -0.2649
vn -0.3316 0.9054 -0.2649
vn -0.3848 0.3847 -0.8390
vn 0.3848 0.3847 0.8390
vn 0.9055 0.3316 0.2649
vn 0.3318 0.9053 0.2651
vn -0.9055 0.3316 0.2649
vn -0.3848 0.3847 0.8390
vn -0.3317 0.9054 0.2650
vt 0.810801 0.697335
vt 0.810804 0.687697
vt 0.815549 0.686808
vt 0.815549 0.696757
vt 0.918399 0.865124
vt 0.918085 0.858730
vt 0.922812 0.856136
vt 0.923119 0.862407
vt 0.917930 0.825943
vt 0.918078 0.819308
vt 0.922823 0.817936
vt 0.922677 0.824320
vt 0.918402 0.806035
vt 0.918675 0.799369
vt 0.923382 0.799023
vt 0.923130 0.805274
vt 0.916997 0.737860
vt 0.916994 0.744434
vt 0.912318 0.743034
vt 0.912317 0.736050
vt 0.916988 0.759501
vt 0.912318 0.759281
vt 0.912318 0.750199
vt 0.916992 0.751078
vt 0.925957 0.165606
vt 0.930406 0.166384
vt 0.929422 0.174771
vt 0.924914 0.174681
vt 0.929024 0.181471
vt 0.924475 0.181929
vt 0.928781 0.188138
vt 0.924205 0.189029
vt 0.920127 0.784288
vt 0.924745 0.785134
vt 0.923775 0.792853
vt 0.919104 0.792671
vt 0.926725 0.609615
vt 0.921954 0.610459
vt 0.920973 0.602046
vt 0.925801 0.601891
vt 0.920577 0.595325
vt 0.925444 0.595718
vt 0.920335 0.588641
vt 0.925230 0.589466
vt 0.912315 0.715660
vt 0.917004 0.718313
vt 0.917002 0.724825
vt 0.912316 0.722416
vt 0.912317 0.729199
vt 0.916999 0.731334
vt 0.928633 0.194779
vt 0.924040 0.196016
vt 0.928518 0.201412
vt 0.923913 0.202942
vt 0.928400 0.208048
vt 0.923788 0.209842
vt 0.918224 0.812676
vt 0.922964 0.811583
vt 0.920189 0.581984
vt 0.925101 0.583156
vt 0.920076 0.575338
vt 0.924998 0.576802
vt 0.919961 0.568689
vt 0.924889 0.570417
vt 0.917732 0.845758
vt 0.917726 0.839181
vt 0.922470 0.837121
vt 0.922471 0.843504
vt 0.912312 0.695658
vt 0.917011 0.698924
vt 0.917008 0.705343
vt 0.912313 0.702264
vt 0.912314 0.708938
vt 0.917006 0.711813
vt 0.928302 0.214676
vt 0.923685 0.216711
vt 0.928256 0.221287
vt 0.923636 0.223543
vt 0.928292 0.227863
vt 0.923670 0.230325
vt 0.917803 0.832571
vt 0.922549 0.830720
vt 0.919866 0.562047
vt 0.924799 0.564017
vt 0.919822 0.555425
vt 0.924758 0.557615
vt 0.919861 0.548836
vt 0.924798 0.551232
vt 0.912311 0.676455
vt 0.917019 0.680169
vt 0.917016 0.686339
vt 0.912311 0.682744
vt 0.912311 0.689144
vt 0.917013 0.692584
vt 0.928440 0.234384
vt 0.923819 0.237038
vt 0.928704 0.240834
vt 0.924083 0.243660
vt 0.929047 0.247226
vt 0.924427 0.250186
vt 0.917851 0.852279
vt 0.922584 0.849846
vt 0.920012 0.542303
vt 0.924948 0.544892
vt 0.920278 0.535842
vt 0.925213 0.538603
vt 0.920624 0.529440
vt 0.925557 0.532334
vt 0.920047 0.903646
vt 0.919937 0.897108
vt 0.924638 0.894874
vt 0.924745 0.901742
vt 0.919454 0.884211
vt 0.919120 0.877837
vt 0.923829 0.875058
vt 0.924160 0.881528
vt 0.873993 0.427913
vt 0.878710 0.431591
vt 0.878706 0.437725
vt 0.873992 0.433954
vt 0.896806 0.610128
vt 0.892272 0.607579
vt 0.892275 0.601134
vt 0.896806 0.603751
vt 0.929434 0.253585
vt 0.924814 0.256619
vt 0.892287 0.594774
vt 0.878702 0.443836
vt 0.929826 0.259936
vt 0.925204 0.262967
vt 0.930189 0.266309
vt 0.925563 0.269242
vt 0.918757 0.871484
vt 0.923470 0.868699
vt 0.921012 0.523075
vt 0.925945 0.526044
vt 0.921407 0.516721
vt 0.926341 0.519688
vt 0.921772 0.510351
vt 0.926711 0.513220
vt 0.873994 0.409906
vt 0.878722 0.412822
vt 0.878718 0.419152
vt 0.873994 0.415913
vt 0.873993 0.421908
vt 0.878714 0.425404
vt 0.930497 0.272728
vt 0.925865 0.275468
vt 0.930731 0.279203
vt 0.926093 0.281667
vt 0.930871 0.285740
vt 0.926229 0.287857
vt 0.919733 0.890632
vt 0.924437 0.888134
vt 0.922082 0.503940
vt 0.927027 0.506615
vt 0.922318 0.497478
vt 0.927269 0.499877
vt 0.922460 0.490958
vt 0.927415 0.493010
vt 0.810809 0.671932
vt 0.810811 0.665346
vt 0.815548 0.663225
vt 0.815549 0.670244
vt 0.873992 0.391662
vt 0.878730 0.393354
vt 0.878728 0.399916
vt 0.873993 0.397792
vt 0.873994 0.403870
vt 0.878725 0.406410
vt 0.930898 0.292340
vt 0.926257 0.294052
vt 0.930795 0.298998
vt 0.926159 0.300262
vt 0.930561 0.305698
vt 0.925937 0.306498
vt 0.920045 0.910246
vt 0.924733 0.908726
vt 0.922490 0.484379
vt 0.927445 0.486026
vt 0.919911 0.916903
vt 0.924585 0.915807
vt 0.922390 0.477744
vt 0.927339 0.478944
vt 0.922159 0.471069
vt 0.927097 0.471804
vt 0.873991 0.367441
vt 0.878739 0.368022
vt 0.878736 0.377637
vt 0.873991 0.376745
vt 0.873991 0.384363
vt 0.878733 0.385634
vt 0.930200 0.313557
vt 0.925592 0.313904
vt 0.929431 0.321607
vt 0.924842 0.321545
vt 0.928204 0.331211
vt 0.923636 0.330811
vt 0.810807 0.679676
vt 0.815549 0.678407
vt 0.921804 0.463237
vt 0.926726 0.463520
vt 0.921041 0.455211
vt 0.925945 0.455084
vt 0.919822 0.445630
vt 0.924706 0.445165
vt 0.594617 0.888536
vt 0.594617 0.993278
vt 0.592832 0.993278
vt 0.592832 0.888536
vt 0.975044 0.468714
vt 0.975044 0.573468
vt 0.973389 0.573497
vt 0.973389 0.468744
vt 0.971734 0.573468
vt 0.971734 0.468714
vt 0.307814 0.995073
vt 0.307814 0.890331
vt 0.309599 0.890331
vt 0.309599 0.995073
vt 0.819498 0.978038
vt 0.819498 0.873340
vt 0.821153 0.873299
vt 0.821153 0.977996
vt 0.822808 0.873340
vt 0.822808 0.978038
vt 0.838237 0.709144
vt 0.839892 0.708252
vt 0.841547 0.709144
vt 0.841547 0.710929
vt 0.839892 0.711822
vt 0.838237 0.710929
vt 0.995190 0.527406
vt 0.995190 0.637207
vt 0.993405 0.637207
vt 0.993405 0.527406
vt 0.926946 0.331211
vt 0.926946 0.441024
vt 0.925291 0.441054
vt 0.925291 0.331241
vt 0.923636 0.441024
vt 0.923636 0.331211
vt 0.993577 0.835355
vt 0.993577 0.725554
vt 0.995362 0.725554
vt 0.995362 0.835355
vt 0.973691 0.109796
vt 0.973691 0.000042
vt 0.975346 -0.000000
vt 0.975346 0.109754
vt 0.977001 0.000042
vt 0.977001 0.109796
vt 0.843202 0.708252
vt 0.844857 0.709144
vt 0.844857 0.710929
vt 0.843202 0.711822
vt 0.841547 0.710929
vt 0.994236 -0.000000
vt 0.994236 0.114579
vt 0.992451 0.114579
vt 0.992451 0.000000
vt 0.964392 0.856478
vt 0.964392 0.971070
vt 0.962737 0.971099
vt 0.962737 0.856507
vt 0.961082 0.971070
vt 0.961082 0.856478
vt 0.993356 0.468721
vt 0.993356 0.354142
vt 0.995141 0.354142
vt 0.995141 0.468721
vt 0.971734 0.354184
vt 0.973389 0.354142
vt 0.973389 0.468672
vt 0.975044 0.354184
vt 0.831617 0.705575
vt 0.833272 0.704682
vt 0.834927 0.705575
vt 0.834927 0.707360
vt 0.833272 0.708252
vt 0.831617 0.707360
vt 0.993356 0.354142
vt 0.993356 0.477434
vt 0.991572 0.477434
vt 0.991572 0.354142
vt 0.968424 0.477477
vt 0.968424 0.354172
vt 0.970079 0.354142
vt 0.970079 0.477448
vt 0.971734 0.354172
vt 0.971734 0.477477
vt 0.991792 0.848845
vt 0.991792 0.725554
vt 0.993577 0.725554
vt 0.993577 0.848845
vt 0.970381 0.123281
vt 0.970381 0.000042
vt 0.972036 0.000000
vt 0.972036 0.123239
vt 0.973691 0.000042
vt 0.973691 0.123281
vt 0.846260 0.704492
vt 0.847831 0.705525
vt 0.847831 0.707405
vt 0.846260 0.708252
vt 0.844689 0.707219
vt 0.844689 0.705339
vt 0.989399 0.000000
vt 0.989399 0.135939
vt 0.987614 0.135939
vt 0.987614 -0.000000
vt 0.952983 0.135984
vt 0.952983 0.000030
vt 0.954638 -0.000000
vt 0.954638 0.135954
vt 0.956293 0.000030
vt 0.956293 0.135984
vt 0.987771 0.663345
vt 0.987771 0.527406
vt 0.989555 0.527406
vt 0.989555 0.663345
vt 0.954879 0.890902
vt 0.954879 0.755021
vt 0.956534 0.754979
vt 0.956534 0.890860
vt 0.958189 0.755021
vt 0.958189 0.890902
vt 0.828307 0.709144
vt 0.829962 0.708252
vt 0.831617 0.709144
vt 0.831617 0.710929
vt 0.829962 0.711822
vt 0.828307 0.710929
vt 0.989780 0.163522
vt 0.989780 0.294402
vt 0.987995 0.294402
vt 0.987995 0.163522
vt 0.964392 0.725554
vt 0.964392 0.856448
vt 0.962737 0.856478
vt 0.962737 0.725583
vt 0.961082 0.856448
vt 0.961082 0.725554
vt 0.988033 0.987314
vt 0.988033 0.856434
vt 0.989818 0.856434
vt 0.989818 0.987314
vt 0.962521 0.294388
vt 0.962521 0.163564
vt 0.964176 0.163522
vt 0.964176 0.294346
vt 0.965831 0.163564
vt 0.965831 0.294388
vt 0.834927 0.709144
vt 0.836582 0.708252
vt 0.836582 0.711822
vt 0.834927 0.710929
vt 0.892860 0.555613
vt 0.888758 0.555613
vt 0.888758 0.394015
vt 0.892860 0.394015
vt 0.498016 0.787502
vt 0.499643 0.787502
vt 0.499643 0.949100
vt 0.498016 0.949100
vt 0.851086 0.704492
vt 0.852713 0.704492
vt 0.852713 0.708593
vt 0.851086 0.708593
vt 0.986143 0.527406
vt 0.987771 0.527406
vt 0.987771 0.689004
vt 0.986143 0.689004
vt 0.851086 0.708593
vt 0.849458 0.708593
vt 0.849458 0.704492
vt 0.851086 0.704492
vt 0.940923 0.515740
vt 0.936821 0.515740
vt 0.936821 0.354142
vt 0.940923 0.354142
vt 0.546016 0.445165
vt 0.646866 0.445165
vt 0.646866 0.589076
vt 0.546016 0.589076
vt 0.977158 0.688069
vt 0.975093 0.688069
vt 0.975093 0.527406
vt 0.977158 0.527406
vt 0.646866 0.732987
vt 0.546016 0.732987
vt 0.646866 0.589076
vt 0.977109 0.354142
vt 0.979174 0.354142
vt 0.979174 0.514805
vt 0.977109 0.514805
vt 0.986268 0.990152
vt 0.984203 0.990152
vt 0.984203 0.877610
vt 0.986268 0.877610
vt 0.981770 0.858978
vt 0.981770 0.971580
vt 0.979705 0.971580
vt 0.979705 0.858978
vt 0.951900 0.358446
vt 0.954916 0.354142
vt 0.954916 0.514805
vt 0.951900 0.510502
vt 0.944376 0.003016
vt 0.948679 -0.000000
vt 0.948679 0.112590
vt 0.944376 0.109574
vt 0.948885 0.510502
vt 0.945869 0.514805
vt 0.945869 0.354142
vt 0.948885 0.358446
vt 0.951863 0.728569
vt 0.947560 0.731585
vt 0.947560 0.618995
vt 0.951863 0.622011
vt 0.952540 0.319882
vt 0.949524 0.324185
vt 0.949524 0.163522
vt 0.952540 0.167825
vt 0.943257 0.734601
vt 0.947560 0.731585
vt 0.947560 0.844175
vt 0.943257 0.841159
vt 0.955556 0.163522
vt 0.955556 0.324185
vt 0.952540 0.319882
vt 0.952983 0.109574
vt 0.948680 0.112590
vt 0.948680 0.000000
vt 0.952983 0.003016
vt 0.987995 0.315578
vt 0.985939 0.315578
vt 0.985939 0.163522
vt 0.987995 0.163522
vt 0.683946 0.989582
vt 0.681891 0.989582
vt 0.681891 0.883011
vt 0.683946 0.883011
vt 0.984193 0.877610
vt 0.982138 0.877610
vt 0.982138 0.725554
vt 0.984193 0.725554
vt 0.692298 0.989525
vt 0.690242 0.989525
vt 0.690242 0.883012
vt 0.692298 0.883012
vt 0.984039 0.354142
vt 0.986094 0.354142
vt 0.986094 0.506199
vt 0.984039 0.506199
vt 0.763232 0.776241
vt 0.765287 0.776241
vt 0.765287 0.882811
vt 0.763232 0.882811
vt 0.984088 0.527406
vt 0.986143 0.527406
vt 0.986143 0.679462
vt 0.984088 0.679462
vt 0.686002 0.883012
vt 0.688057 0.883012
vt 0.688057 0.989525
vt 0.686002 0.989525
vt 0.965154 0.577570
vt 0.967970 0.573497
vt 0.967970 0.725554
vt 0.965154 0.721481
vt 0.961082 0.621811
vt 0.965154 0.618995
vt 0.965154 0.725554
vt 0.961082 0.722661
vt 0.961082 0.919035
vt 0.958189 0.923108
vt 0.958189 0.771052
vt 0.961082 0.775124
vt 0.958989 0.593731
vt 0.954916 0.596623
vt 0.954916 0.490065
vt 0.958989 0.492880
vt 0.968646 0.311505
vt 0.965831 0.315578
vt 0.965831 0.163522
vt 0.968646 0.167594
vt 0.959186 0.002815
vt 0.963258 0.000000
vt 0.963258 0.106559
vt 0.959185 0.103666
vt 0.958189 0.623068
vt 0.961082 0.618995
vt 0.961082 0.771052
vt 0.958189 0.766979
vt 0.951402 0.947841
vt 0.947329 0.950733
vt 0.947329 0.844175
vt 0.951402 0.846990
vt 0.979705 0.886217
vt 0.977640 0.886217
vt 0.977640 0.725554
vt 0.979705 0.725554
vt 0.989399 0.112542
vt 0.989399 -0.000000
vt 0.991464 -0.000000
vt 0.991464 0.112542
vt 0.979223 0.527406
vt 0.979223 0.688069
vt 0.977158 0.688069
vt 0.857833 0.873299
vt 0.859898 0.873299
vt 0.859898 0.985901
vt 0.857833 0.985901
vt 0.940275 0.163522
vt 0.935328 0.163522
vt 0.935328 0.000000
vt 0.940275 0.000000
vt 0.945869 0.468687
vt 0.940923 0.468687
vt 0.940923 0.354142
vt 0.945869 0.354142
vt 0.935328 0.163522
vt 0.940275 0.163522
vt 0.940275 0.327044
vt 0.935328 0.327044
vt 0.492652 0.787502
vt 0.497599 0.787502
vt 0.497599 0.902108
vt 0.492652 0.902108
vt 0.996115 0.725554
vt 0.997117 0.726983
vt 0.997117 0.887646
vt 0.996115 0.889076
vt 0.997117 0.725554
vt 0.998119 0.726983
vt 0.998119 0.887646
vt 0.997117 0.889076
vt 0.999041 0.230976
vt 0.997612 0.229974
vt 0.997612 0.117384
vt 0.999041 0.116383
vt 0.998040 0.394498
vt 0.996610 0.393496
vt 0.996610 0.280906
vt 0.998040 0.279904
vt 0.999120 0.889076
vt 0.998119 0.887646
vt 0.998119 0.726983
vt 0.999120 0.725554
vt 0.999702 0.577502
vt 0.998700 0.576073
vt 0.998700 0.415410
vt 0.999702 0.413980
vt 0.996021 0.000000
vt 0.997450 0.001002
vt 0.997450 0.113592
vt 0.996021 0.114593
vt 0.986603 0.861493
vt 0.988033 0.862494
vt 0.988033 0.975084
vt 0.986603 0.976086
vt 0.829426 0.445503
vt 0.819780 0.445503
vt 0.819780 0.445165
vt 0.829426 0.445165
vt 0.823877 0.711489
vt 0.823877 0.701842
vt 0.824210 0.701842
vt 0.824210 0.711489
vt 0.931231 -0.000000
vt 0.931231 0.255979
vt 0.930898 0.255984
vt 0.930898 0.000005
vt 0.819447 0.701505
vt 0.819447 0.445498
vt 0.819780 0.701510
vt 0.827974 0.701842
vt 0.824210 0.701510
vt 0.827974 0.701510
vt 0.934996 0.256316
vt 0.931231 0.256316
vt 0.934996 0.255979
vt 0.827974 0.711489
vt 0.828307 0.701842
vt 0.828307 0.711489
vt 0.850050 0.701374
vt 0.840403 0.701374
vt 0.840403 0.701035
vt 0.850050 0.701035
vt 0.840403 0.445165
vt 0.840071 0.701041
vt 0.840071 0.445172
vt 0.935328 0.000005
vt 0.935328 0.255984
vt 0.934996 -0.000000
vt 0.829426 0.701510
vt 0.829759 0.445498
vt 0.829759 0.701505
vt 0.925349 0.875306
vt 0.925349 0.619328
vt 0.925682 0.619333
vt 0.925682 0.875311
vt 0.929446 0.619333
vt 0.925682 0.618995
vt 0.929446 0.618995
vt 0.827974 0.711822
vt 0.824210 0.711822
vt 0.929446 0.875311
vt 0.929779 0.619328
vt 0.929779 0.875306
vt 0.850383 0.445172
vt 0.850383 0.701041
vt 0.850050 0.445165
vt 0.823938 0.701571
vt 0.819508 0.445224
vt 0.930960 0.256257
vt 0.840132 0.701315
vt 0.828246 0.701571
vt 0.935267 0.256257
vt 0.925410 0.619054
vt 0.829698 0.445224
vt 0.823938 0.711761
vt 0.850322 0.701315
vt 0.929718 0.619054
vt 0.828246 0.711761
vt 0.886105 0.367441
vt 0.886105 0.142461
vt 0.892162 0.142461
vt 0.892162 0.367441
vt 0.882253 0.381925
vt 0.882253 0.367441
vt 0.888310 0.367441
vt 0.888310 0.381925
vt 0.880048 0.367441
vt 0.880048 0.142461
vt 0.886105 0.142461
vt 0.886105 0.367441
vt 0.871698 0.445165
vt 0.871698 0.666482
vt 0.860695 0.666482
vt 0.860695 0.445165
vt 0.880518 0.435453
vt 0.879628 0.436440
vt 0.879628 0.421956
vt 0.880518 0.422943
vt 0.917114 0.990645
vt 0.916127 0.991534
vt 0.916127 0.766528
vt 0.917114 0.767418
vt 0.815549 0.678696
vt 0.816439 0.677709
vt 0.816439 0.692193
vt 0.815549 0.691206
vt 0.989818 0.726443
vt 0.990805 0.725554
vt 0.990805 0.950559
vt 0.989818 0.949670
vt 0.893096 0.593143
vt 0.892272 0.593143
vt 0.892272 0.580633
vt 0.893096 0.580633
vt 0.991464 0.335743
vt 0.990641 0.335743
vt 0.990641 0.112542
vt 0.991464 0.112542
vt 0.898715 0.594774
vt 0.899538 0.594774
vt 0.899538 0.607284
vt 0.898715 0.607284
vt 0.995857 0.339584
vt 0.995034 0.339584
vt 0.995034 0.116383
vt 0.995857 0.116383
vt 0.898715 0.606531
vt 0.897760 0.607284
vt 0.897760 0.594774
vt 0.898715 0.595528
vt 0.995943 0.636252
vt 0.995190 0.637207
vt 0.995190 0.413981
vt 0.995943 0.414935
vt 0.880518 0.422709
vt 0.881472 0.421956
vt 0.881472 0.434466
vt 0.880518 0.433713
vt 0.995362 0.726509
vt 0.996115 0.725554
vt 0.996115 0.948780
vt 0.995362 0.947826
vt 0.883691 0.392928
vt 0.883212 0.392928
vt 0.883212 0.381925
vt 0.883691 0.381925
vt 0.999599 0.725554
vt 0.999599 0.946846
vt 0.999120 0.946846
vt 0.884170 0.381925
vt 0.884170 0.392928
vt 0.999521 0.116383
vt 1.000000 0.116383
vt 1.000000 0.337675
vt 0.999521 0.337675
s 1
g off
g RightPartGate_puertablanca
usemtl puertablanca
f 4/1/1 1/2/2 2/3/3
f 2/3/3 3/4/4 4/1/1
s 2
f 8/5/5 5/6/6 6/7/7
f 6/7/7 7/8/8 8/5/5
s 0
f 12/9/9 9/10/10 10/11/10
f 10/11/11 11/12/12 12/9/13
s 5
f 16/13/14 13/14/15 14/15/16
f 14/15/16 15/16/17 16/13/14
s 6
f 20/17/18 17/18/19 18/19/20
f 18/19/20 19/20/21 20/17/18
f 24/21/22 21/22/23 22/23/24
f 22/23/24 23/24/25 24/21/22
s 7
f 28/25/26 25/26/27 26/27/28
f 26/27/28 27/28/29 28/25/26
s 6
f 17/18/19 23/24/25 22/23/24
f 22/23/24 18/19/20 17/18/19
s 7
f 30/29/30 29/30/31 27/28/29
f 27/28/29 26/27/28 30/29/30
f 32/31/32 31/32/33 29/30/31
f 29/30/31 30/29/30 32/31/32
s 5
f 36/33/34 33/34/35 34/35/36
f 34/35/36 35/36/37 36/33/34
s 8
f 40/37/38 37/38/39 38/39/40
f 38/39/40 39/40/41 40/37/38
s 5
f 13/14/15 35/36/37 34/35/36
f 34/35/36 14/15/16 13/14/15
s 8
f 42/41/42 41/42/43 39/40/41
f 39/40/41 38/39/40 42/41/42
f 44/43/44 43/44/45 41/42/43
f 41/42/43 42/41/42 44/43/44
s 0
f 48/45/46 45/46/47 46/47/48
f 46/47/49 47/48/49 48/45/46
s 6
f 20/17/18 19/20/21 49/49/50
f 49/49/50 50/50/51 20/17/18
s 7
f 32/31/32 51/51/52 52/52/53
f 52/52/53 31/32/33 32/31/32
s 0
f 50/50/54 49/49/55 47/48/56
f 47/48/57 46/47/57 50/50/58
f 51/51/59 53/53/60 54/54/61
f 54/54/62 52/52/53 51/51/63
f 56/55/64 55/56/65 54/54/66
f 54/54/67 53/53/67 56/55/68
s 5
f 58/57/69 16/13/14 15/16/17
f 15/16/17 57/58/70 58/57/69
s 8
f 60/59/71 59/60/72 43/44/45
f 43/44/45 44/43/44 60/59/71
s 0
f 9/10/73 58/57/74 57/58/70
f 57/58/75 10/11/76 9/10/76
f 62/61/77 61/62/78 59/60/72
f 59/60/79 60/59/80 62/61/81
f 64/63/82 63/64/83 61/62/77
f 61/62/84 62/61/81 64/63/85
s 2
f 68/65/86 65/66/87 66/67/88
f 66/67/88 67/68/89 68/65/86
s 23
f 72/69/90 69/70/91 70/71/92
f 70/71/92 71/72/93 72/69/90
f 45/46/47 48/45/46 73/73/94
f 73/73/94 74/74/95 45/46/47
s 24
f 56/55/96 75/75/97 76/76/98
f 76/76/98 55/56/99 56/55/96
s 23
f 74/74/95 73/73/94 71/72/93
f 71/72/93 70/71/92 74/74/95
s 24
f 75/75/97 77/77/100 78/78/101
f 78/78/101 76/76/98 75/75/97
f 80/79/102 79/80/103 78/78/101
f 78/78/101 77/77/100 80/79/102
s 2
f 82/81/104 12/9/13 11/12/105
f 11/12/105 81/82/106 82/81/104
s 25
f 84/83/107 83/84/108 63/64/109
f 63/64/109 64/63/82 84/83/107
s 2
f 65/66/87 82/81/104 81/82/106
f 81/82/106 66/67/88 65/66/87
s 25
f 86/85/110 85/86/111 83/84/108
f 83/84/108 84/83/107 86/85/110
f 88/87/112 87/88/113 85/86/111
f 85/86/111 86/85/110 88/87/112
s 23
f 92/89/114 89/90/115 90/91/116
f 90/91/116 91/92/117 92/89/114
f 69/70/91 72/69/90 93/93/118
f 93/93/118 94/94/119 69/70/91
s 24
f 80/79/102 95/95/120 96/96/121
f 96/96/121 79/80/103 80/79/102
s 23
f 94/94/119 93/93/118 91/92/117
f 91/92/117 90/91/116 94/94/119
s 24
f 95/95/120 97/97/122 98/98/123
f 98/98/123 96/96/121 95/95/120
f 100/99/124 99/100/125 98/98/123
f 98/98/123 97/97/122 100/99/124
s 2
f 102/101/126 68/65/86 67/68/89
f 67/68/89 101/102/127 102/101/126
s 25
f 104/103/128 103/104/129 87/88/113
f 87/88/113 88/87/112 104/103/128
s 2
f 5/6/6 102/101/126 101/102/127
f 101/102/127 6/7/7 5/6/6
s 25
f 106/105/130 105/106/131 103/104/129
f 103/104/129 104/103/128 106/105/130
f 108/107/132 107/108/133 105/106/131
f 105/106/131 106/105/130 108/107/132
s 1
f 112/109/134 109/110/135 110/111/136
f 110/111/136 111/112/137 112/109/134
f 116/113/138 113/114/139 114/115/140
f 114/115/140 115/116/141 116/113/138
s 26
f 120/117/142 117/118/143 118/119/144
f 118/119/144 119/120/145 120/117/142
s 0
f 89/121/146 92/122/114 121/123/147
f 121/123/148 122/124/149 89/121/150
f 100/99/151 123/125/152 124/126/152
f 124/126/153 99/100/154 100/99/124
f 122/124/155 121/123/156 119/127/157
f 119/120/157 118/119/158 122/128/159
f 123/125/160 125/129/161 126/130/162
f 126/130/163 124/126/164 123/125/165
f 128/131/166 127/132/167 126/130/163
f 126/130/163 125/129/168 128/131/169
f 130/133/170 8/5/171 7/8/172
f 7/8/172 129/134/173 130/133/174
f 132/135/175 131/136/175 107/108/176
f 107/108/176 108/107/132 132/135/177
f 113/114/139 130/133/178 129/134/179
f 129/134/180 114/115/140 113/114/139
f 134/137/181 133/138/182 131/136/183
f 131/136/184 132/135/185 134/137/181
s 45
f 136/139/186 135/140/187 133/138/188
f 133/138/188 134/137/189 136/139/186
s 26
f 140/141/190 137/142/191 138/143/192
f 138/143/192 139/144/193 140/141/190
f 117/118/143 120/117/142 141/145/194
f 141/145/194 142/146/195 117/118/143
s 46
f 128/131/196 143/147/197 144/148/198
f 144/148/198 127/132/167 128/131/196
s 26
f 142/146/195 141/145/194 139/144/193
f 139/144/193 138/143/192 142/146/195
s 46
f 143/147/197 145/149/199 146/150/200
f 146/150/200 144/148/198 143/147/197
f 148/151/201 147/152/202 146/150/200
f 146/150/200 145/149/199 148/151/201
s 1
f 150/153/203 116/113/138 115/116/141
f 115/116/141 149/154/204 150/153/203
s 45
f 152/155/205 151/156/206 135/140/187
f 135/140/187 136/139/186 152/155/205
s 1
f 109/110/135 150/153/203 149/154/204
f 149/154/204 110/111/136 109/110/135
s 45
f 154/157/207 153/158/208 151/156/206
f 151/156/206 152/155/205 154/157/207
f 156/159/209 155/160/210 153/158/208
f 153/158/208 154/157/207 156/159/209
s 1
f 160/161/211 157/162/212 158/163/213
f 158/163/213 159/164/214 160/161/211
s 26
f 164/165/215 161/166/216 162/167/217
f 162/167/217 163/168/218 164/165/215
f 137/142/191 140/141/190 165/169/219
f 165/169/219 166/170/220 137/142/191
s 46
f 148/151/201 167/171/221 168/172/222
f 168/172/222 147/152/202 148/151/201
s 26
f 166/170/220 165/169/219 163/168/218
f 163/168/218 162/167/217 166/170/220
s 46
f 167/171/221 169/173/223 170/174/224
f 170/174/224 168/172/222 167/171/221
f 172/175/225 171/176/226 170/174/224
f 170/174/224 169/173/223 172/175/225
s 1
f 174/177/227 112/109/134 111/112/137
f 111/112/137 173/178/228 174/177/227
s 45
f 176/179/229 175/180/230 155/160/210
f 155/160/210 156/159/209 176/179/229
s 1
f 157/181/212 174/177/227 173/178/228
f 173/178/228 158/182/213 157/181/212
s 45
f 178/183/231 177/184/232 175/180/230
f 175/180/230 176/179/229 178/183/231
f 180/185/233 179/186/234 177/184/232
f 177/184/232 178/183/231 180/185/233
s 26
f 184/187/235 181/188/235 182/189/236
f 182/189/236 183/190/237 184/187/235
f 161/166/216 164/165/215 185/191/238
f 185/191/238 186/192/239 161/166/216
s 46
f 172/175/225 187/193/240 188/194/241
f 188/194/241 171/176/226 172/175/225
s 26
f 186/192/239 185/191/238 183/190/237
f 183/190/237 182/189/236 186/192/239
s 46
f 187/193/240 189/195/242 190/196/243
f 190/196/243 188/194/241 187/193/240
f 192/197/244 191/198/245 190/196/243
f 190/196/243 189/195/242 192/197/244
s 1
f 194/199/246 160/161/211 159/164/214
f 159/164/214 193/200/247 194/199/246
s 45
f 196/201/248 195/202/249 179/186/234
f 179/186/234 180/185/233 196/201/248
s 1
f 1/2/2 194/199/246 193/200/247
f 193/200/247 2/3/3 1/2/2
s 45
f 198/203/250 197/204/251 195/202/249
f 195/202/249 196/201/248 198/203/250
f 200/205/252 199/206/253 197/204/251
f 197/204/251 198/203/250 200/205/252
s 47
f 204/207/254 201/208/254 202/209/255
f 202/209/255 203/210/255 204/207/254
f 203/211/255 202/212/255 205/213/256
f 205/213/256 206/214/256 203/211/255
f 206/214/256 205/213/256 207/215/257
f 207/215/257 208/216/257 206/214/256
f 208/217/257 207/218/257 209/219/258
f 209/219/258 210/220/259 208/217/257
f 210/221/259 209/222/258 211/223/260
f 211/223/260 212/224/260 210/221/259
f 212/224/260 211/223/260 213/225/254
f 213/225/254 214/226/254 212/224/260
s 0
f 220/227/261 215/228/261 216/229/261
f 220/227/261 216/229/261 217/230/261
f 220/227/261 217/230/261 218/231/261
f 218/231/261 219/232/261 220/227/261
s 52
f 224/233/254 221/234/254 222/235/255
f 222/235/255 223/236/255 224/233/254
f 223/237/255 222/238/255 225/239/256
f 225/239/256 226/240/256 223/237/255
f 226/240/256 225/239/256 227/241/257
f 227/241/257 228/242/257 226/240/256
f 228/243/257 227/244/257 229/245/258
f 229/245/258 230/246/259 228/243/257
f 230/247/259 229/248/258 231/249/260
f 231/249/260 232/250/260 230/247/259
f 232/250/260 231/249/260 233/251/254
f 233/251/254 234/252/254 232/250/260
s 0
f 240/229/261 235/253/261 236/254/261
f 240/229/261 236/254/261 237/255/261
f 240/229/261 237/255/261 238/256/261
f 238/256/261 239/257/261 240/229/261
s 57
f 244/258/254 241/259/254 242/260/262
f 242/260/262 243/261/255 244/258/254
f 243/262/255 242/263/262 245/264/256
f 245/264/256 246/265/256 243/262/255
f 246/265/256 245/264/256 247/266/257
f 247/266/257 248/267/263 246/265/256
f 248/268/263 247/269/257 249/270/259
f 249/270/259 250/271/259 248/268/263
f 250/216/259 249/272/259 251/273/260
f 251/273/260 252/274/260 250/216/259
f 252/274/260 251/273/260 253/275/254
f 253/275/254 254/211/254 252/274/260
s 0
f 260/276/261 255/277/261 256/278/261
f 260/276/261 256/278/261 257/279/261
f 260/276/261 257/279/261 258/280/261
f 258/280/261 259/281/261 260/276/261
s 62
f 264/282/254 261/283/254 262/284/262
f 262/284/262 263/285/255 264/282/254
f 263/286/255 262/287/262 265/288/256
f 265/288/256 266/289/256 263/286/255
f 266/289/256 265/288/256 267/290/257
f 267/290/257 268/291/263 266/289/256
f 268/292/263 267/293/257 269/294/258
f 269/294/258 270/295/259 268/292/263
f 270/296/259 269/297/258 271/298/260
f 271/298/260 272/299/260 270/296/259
f 272/299/260 271/298/260 273/300/254
f 273/300/254 274/301/254 272/299/260
s 0
f 280/302/261 275/303/261 276/304/261
f 280/302/261 276/304/261 277/305/261
f 280/302/261 277/305/261 278/306/261
f 278/306/261 279/307/261 280/302/261
s 67
f 284/308/254 281/309/254 282/310/255
f 282/310/255 283/311/262 284/308/254
f 283/312/262 282/313/255 285/314/256
f 285/314/256 286/315/256 283/312/262
f 286/315/256 285/314/256 287/316/263
f 287/316/263 288/317/263 286/315/256
f 288/318/263 287/319/263 289/320/258
f 289/320/258 290/321/259 288/318/263
f 290/322/259 289/323/258 291/324/260
f 291/324/260 292/325/260 290/322/259
f 292/325/260 291/324/260 293/326/254
f 293/326/254 294/327/254 292/325/260
s 0
f 300/328/261 295/329/261 296/330/261
f 300/328/261 296/330/261 297/331/261
f 300/328/261 297/331/261 298/332/261
f 298/332/261 299/333/261 300/328/261
s 72
f 304/334/254 301/335/254 302/336/262
f 302/336/262 303/337/255 304/334/254
f 303/338/255 302/339/262 305/340/256
f 305/340/256 306/341/256 303/338/255
f 306/341/256 305/340/256 307/342/257
f 307/342/257 308/343/263 306/341/256
f 308/344/263 307/345/257 309/346/258
f 309/346/258 310/347/259 308/344/263
f 310/348/259 309/349/258 311/350/260
f 311/350/260 312/351/260 310/348/259
f 312/351/260 311/350/260 313/352/254
f 313/352/254 314/353/254 312/351/260
s 0
f 320/354/261 315/355/261 316/227/261
f 320/354/261 316/227/261 317/232/261
f 320/354/261 317/232/261 318/356/261
f 318/356/261 319/357/261 320/354/261
f 324/358/261 321/359/261 322/360/261
f 322/360/261 323/361/261 324/358/261
f 328/362/264 325/363/264 326/364/264
f 326/364/264 327/365/264 328/362/264
f 332/366/260 329/367/260 330/368/260
f 330/368/260 331/369/260 332/366/260
f 336/370/265 333/371/265 334/372/265
f 334/372/265 335/373/265 336/370/265
f 340/374/256 337/375/256 338/376/256
f 338/376/256 339/377/256 340/374/256
f 344/378/266 341/379/266 342/380/266
f 342/380/266 343/381/266 344/378/266
f 348/382/264 345/383/264 346/384/264
f 346/384/264 347/385/264 348/382/264
f 352/386/261 349/387/261 350/388/261
f 350/388/261 351/389/261 352/386/261
f 356/390/265 353/391/265 354/385/265
f 354/385/265 355/392/265 356/390/265
f 360/393/266 357/394/266 358/395/266
f 358/395/266 359/396/266 360/393/266
f 364/397/260 361/398/260 362/399/260
f 362/399/260 363/400/260 364/397/260
f 368/401/256 365/402/256 366/403/256
f 366/403/256 367/404/256 368/401/256
f 372/405/264 369/406/264 370/407/264
f 370/407/264 371/408/264 372/405/264
f 376/409/264 373/410/264 374/411/264
f 374/411/264 375/412/264 376/409/264
f 380/413/264 377/414/264 378/415/264
f 378/415/264 379/416/264 380/413/264
f 384/417/264 381/418/264 382/419/264
f 382/419/264 383/420/264 384/417/264
f 388/421/265 385/422/265 386/423/265
f 386/423/265 387/424/265 388/421/265
f 392/425/265 389/426/265 390/427/265
f 390/427/265 391/428/265 392/425/265
f 396/424/265 393/429/265 394/430/265
f 394/430/265 395/431/265 396/424/265
f 400/432/265 397/433/265 398/434/265
f 398/434/265 399/435/265 400/432/265
f 404/436/261 401/437/261 402/438/261
f 402/438/261 403/439/261 404/436/261
f 408/440/256 405/441/256 406/442/256
f 406/442/256 407/443/256 408/440/256
f 412/444/266 409/445/266 410/446/266
f 410/446/266 411/447/266 412/444/266
f 416/448/260 413/449/260 414/450/260
f 414/450/260 415/451/260 416/448/260
f 420/452/266 417/453/266 418/454/266
f 418/454/266 419/455/266 420/452/266
f 424/456/256 421/457/256 422/458/256
f 422/458/256 423/459/256 424/456/256
f 428/460/261 425/461/261 426/462/261
f 426/462/261 427/463/261 428/460/261
f 432/464/260 429/465/260 430/466/260
f 430/466/260 431/467/260 432/464/260
f 436/468/267 433/469/267 434/470/267
f 434/470/267 435/471/267 436/468/267
f 440/472/268 437/473/268 438/474/268
f 438/474/268 439/475/268 440/472/268
f 444/476/269 441/477/269 442/478/269
f 442/478/269 443/479/269 444/476/269
f 448/480/270 445/481/270 446/482/270
f 446/482/270 447/483/270 448/480/270
f 452/484/271 449/485/271 450/486/271
f 450/486/271 451/487/271 452/484/271
f 456/488/272 453/489/272 454/490/272
f 454/490/272 455/491/272 456/488/272
f 460/492/273 457/493/273 458/494/273
f 458/494/273 459/495/273 460/492/273
f 464/496/274 461/497/274 462/498/274
f 462/498/275 463/499/275 464/496/275
f 468/500/261 465/501/261 466/502/261
f 466/502/261 467/503/261 468/500/261
f 472/504/260 469/505/260 470/506/260
f 470/506/260 471/507/260 472/504/260
f 476/389/266 473/508/266 474/509/266
f 474/509/266 475/510/266 476/389/266
f 480/511/256 477/512/256 478/513/256
f 478/513/256 479/514/256 480/511/256
f 484/515/261 481/516/261 482/517/261
f 482/517/261 483/518/261 484/515/261
f 488/519/260 485/520/260 486/521/260
f 486/521/260 487/522/260 488/519/260
f 492/523/266 489/524/266 490/525/266
f 490/525/266 491/526/266 492/523/266
f 496/527/256 493/528/256 494/529/256
f 494/529/256 495/530/256 496/527/256
f 500/531/264 497/532/264 498/533/264
f 498/533/264 499/534/264 500/531/264
f 504/535/265 501/536/265 502/537/265
f 502/537/265 503/538/265 504/535/265
f 508/539/264 505/540/264 506/541/264
f 506/541/264 507/542/264 508/539/264
f 512/543/265 509/544/265 510/545/265
f 510/545/265 511/546/265 512/543/265
f 516/547/265 513/548/265 514/549/265
f 514/549/265 515/550/265 516/547/265
f 520/551/264 517/552/264 518/553/264
f 518/553/264 519/554/264 520/551/264
f 524/555/265 521/556/265 522/557/265
f 522/557/265 523/558/265 524/555/265
f 528/559/264 525/560/264 526/561/264
f 526/561/264 527/562/264 528/559/264
s 181
f 532/563/276 529/564/277 530/565/278
f 530/565/278 531/566/279 532/563/276
s 182
f 536/567/280 533/568/281 534/569/282
f 534/569/282 535/570/283 536/567/280
s 183
f 540/571/284 537/572/285 538/573/286
f 538/573/286 539/574/287 540/571/284
s 181
f 543/575/288 541/576/289 529/564/277
f 529/564/277 542/577/290 543/575/288
s 182
f 546/578/291 534/569/282 544/579/292
f 544/579/292 545/580/293 546/578/291
s 183
f 549/581/294 547/582/295 537/572/285
f 537/572/285 548/583/296 549/581/294
s 182
f 552/584/297 546/578/291 550/585/298
f 550/585/298 551/586/299 552/584/297
s 184
f 556/587/300 553/588/301 554/589/302
f 554/589/302 555/590/303 556/587/300
f 559/591/304 554/589/302 557/592/305
f 557/592/305 558/593/306 559/591/304
s 183
f 562/594/307 560/595/308 548/583/296
f 548/583/296 561/596/309 562/594/307
s 181
f 565/597/310 532/563/276 563/598/311
f 563/598/311 564/599/312 565/597/310
s 185
f 569/600/313 566/601/314 567/602/315
f 567/602/315 568/603/316 569/600/313
f 572/604/317 567/602/315 570/605/318
f 570/605/318 571/606/319 572/604/317
s 182
f 574/607/320 573/608/321 535/570/283
f 535/570/283 552/584/297 574/607/320
s 185
f 577/609/322 572/604/317 575/610/323
f 575/610/323 576/611/324 577/609/322
s 184
f 580/612/325 578/613/326 555/590/303
f 555/590/303 579/614/327 580/612/325
s 183
f 548/583/296 537/572/285 540/571/284
f 540/571/284 561/596/309 548/583/296
s 182
f 535/570/283 534/569/282 546/578/291
f 546/578/291 552/584/297 535/570/283
s 185
f 568/603/316 567/602/315 572/604/317
f 572/604/317 577/609/322 568/603/316
s 184
f 555/590/303 554/589/302 559/591/304
f 559/591/304 579/614/327 555/590/303
s 181
f 529/564/277 532/563/276 565/597/310
f 565/597/310 542/577/290 529/564/277
s 182
f 581/615/328 544/579/292 534/569/282
f 534/569/282 533/568/281 581/615/328
s 181
f 582/616/329 530/565/278 529/564/277
f 529/564/277 541/576/289 582/616/329
s 183
f 583/617/330 538/573/286 537/572/285
f 537/572/285 547/582/295 583/617/330
s 184
f 584/618/331 557/592/305 554/589/302
f 554/589/302 553/588/301 584/618/331
s 182
f 585/619/332 550/585/298 546/578/291
f 546/578/291 545/580/293 585/619/332
s 183
f 586/620/333 549/581/294 548/583/296
f 548/583/296 560/595/308 586/620/333
s 185
f 587/621/334 570/605/318 567/602/315
f 567/602/315 566/601/314 587/621/334
s 181
f 588/622/335 563/598/311 532/563/276
f 532/563/276 531/566/279 588/622/335
s 182
f 589/623/336 536/567/280 535/570/283
f 535/570/283 573/608/321 589/623/336
s 184
f 590/624/337 556/587/300 555/590/303
f 555/590/303 578/613/326 590/624/337
s 185
f 591/625/338 575/610/323 572/604/317
f 572/604/317 571/606/319 591/625/338
s 182
f 592/626/339 574/607/320 552/584/297
f 552/584/297 551/586/299 592/626/339
s 0
f 596/627/264 593/628/264 594/629/264
f 594/629/264 595/630/264 596/627/264
f 600/631/261 597/632/261 598/633/261
f 598/633/261 599/634/261 600/631/261
f 604/635/265 601/636/265 602/637/265
f 602/637/265 603/638/265 604/635/265
f 608/639/256 605/640/256 606/641/256
f 606/641/256 607/642/256 608/639/256
f 612/643/256 609/644/256 610/645/256
f 610/645/256 611/646/256 612/643/256
f 616/647/256 613/648/256 614/649/256
f 614/649/256 615/650/256 616/647/256
f 620/651/256 617/652/256 618/653/256
f 618/653/256 619/654/256 620/651/256
f 624/655/256 621/656/256 622/657/256
f 622/657/256 623/658/256 624/655/256
f 628/659/261 625/660/261 626/661/261
f 626/661/261 627/662/261 628/659/261
f 632/663/265 629/664/265 630/665/265
f 630/665/265 631/666/265 632/663/265
f 636/667/266 633/668/266 634/669/266
f 634/669/266 635/670/266 636/667/266
f 640/671/264 637/672/264 638/673/264
f 638/673/264 639/674/264 640/671/264
f 644/675/256 641/676/256 642/677/256
f 642/677/256 643/678/256 644/675/256
f 648/679/256 645/680/256 646/681/256
f 646/681/256 647/682/256 648/679/256
f 652/683/256 649/684/256 650/685/256
f 650/685/256 651/686/256 652/683/256
f 656/687/256 653/688/256 654/689/256
f 654/689/256 655/690/256 656/687/256
f 660/691/266 657/692/266 658/693/266
f 658/693/266 659/694/266 660/691/266
f 664/550/264 661/695/264 662/696/264
f 662/696/264 663/697/264 664/550/264
f 668/694/261 665/698/261 666/699/261
f 666/699/261 667/691/261 668/694/261
f 672/700/265 669/701/265 670/702/265
f 670/702/265 671/703/265 672/700/265
