# Blender 4.5.3 LTS
# www.blender.org
mtllib puertaderecha.mtl
g LeftPartGate_Mesh
v -4.364134 2.854660 0.163546
v -4.338974 2.977701 -0.004426
v -4.620263 3.005155 -0.004497
v -4.636627 2.880872 0.163590
v -2.141410 2.329381 0.163685
v -2.039819 2.438276 -0.002911
v -2.210599 2.486758 -0.003056
v -2.315539 2.378842 0.163655
v -1.055558 2.077672 0.163672
v -0.987509 2.194882 -0.002231
v -1.164300 2.231586 -0.002335
v -1.239269 2.115925 0.163684
v -0.502525 1.966908 0.163665
v -0.462973 2.089623 -0.001888
v -0.636768 2.122569 -0.002005
v -0.687887 2.001915 0.163665
v -0.504055 1.962344 -0.161508
v -0.543601 1.839629 0.004045
v -0.741061 1.876583 0.004165
v -0.689936 1.997243 -0.161505
v -0.084222 1.778428 0.003801
v -0.341001 1.806414 0.003924
v -0.316222 1.931516 -0.161513
v -0.078077 1.906309 -0.161520
v -0.077865 1.910700 0.163662
v -0.315294 1.935991 0.163665
v -0.341001 1.806414 0.003924
v -0.084222 1.778428 0.003801
v -0.543601 1.839629 0.004045
v -0.502525 1.966908 0.163665
v -0.741061 1.876583 0.004165
v -0.687887 2.001915 0.163665
v -0.071720 2.038581 -0.001659
v -0.290515 2.061093 -0.001771
v -0.315294 1.935991 0.163665
v -0.077865 1.910700 0.163662
v -0.078077 1.906309 -0.161520
v -0.316222 1.931516 -0.161513
v -0.290515 2.061093 -0.001771
v -0.071720 2.038581 -0.001659
v -0.462973 2.089623 -0.001888
v -0.504055 1.962344 -0.161508
v -0.636768 2.122569 -0.002005
v -0.689936 1.997243 -0.161505
v -1.242591 2.110919 -0.161471
v -1.058477 2.072782 -0.161488
v -1.126533 1.955572 0.004416
v -1.317561 1.995258 0.004549
v -0.934764 1.915738 0.004289
v -0.874440 2.034586 -0.161499
v -0.871937 2.039374 0.163666
v -0.934764 1.915738 0.004289
v -1.055558 2.077672 0.163672
v -1.126533 1.955572 0.004416
v -1.317561 1.995258 0.004549
v -1.239269 2.115925 0.163684
v -0.811614 2.158229 -0.002121
v -0.871937 2.039374 0.163666
v -0.811614 2.158229 -0.002121
v -0.874440 2.034586 -0.161499
v -0.987509 2.194882 -0.002231
v -1.058477 2.072782 -0.161488
v -1.164300 2.231586 -0.002335
v -1.242591 2.110919 -0.161471
v -1.605218 2.194773 0.163709
v -1.518228 2.307554 -0.002541
v -1.694052 2.348316 -0.002653
v -1.786337 2.236892 0.163713
v -1.790817 2.231566 -0.161427
v -1.609315 2.189550 -0.161436
v -1.696305 2.076769 0.004813
v -1.883102 2.120143 0.004938
v -1.507615 2.035399 0.004682
v -1.426373 2.149588 -0.161452
v -1.422653 2.154703 0.163698
v -1.507615 2.035399 0.004682
v -1.605218 2.194773 0.163709
v -1.696305 2.076769 0.004813
v -1.883102 2.120143 0.004938
v -1.786337 2.236892 0.163713
v -1.341411 2.268891 -0.002437
v -1.422653 2.154703 0.163698
v -1.341411 2.268891 -0.002437
v -1.426373 2.149588 -0.161452
v -1.518228 2.307554 -0.002541
v -1.609315 2.189550 -0.161436
v -1.694052 2.348316 -0.002653
v -1.790817 2.231566 -0.161427
v -2.321088 2.373184 -0.161467
v -2.146640 2.323838 -0.161443
v -2.248231 2.214943 0.005153
v -2.426028 2.265268 0.005244
v -2.067280 2.166231 0.005051
v -1.970073 2.276336 -0.161429
v -1.965208 2.281770 0.163705
v -2.067280 2.166231 0.005051
v -2.141410 2.329381 0.163685
v -2.248231 2.214943 0.005153
v -2.426028 2.265268 0.005244
v -2.315539 2.378842 0.163655
v -1.868001 2.391881 -0.002775
v -1.965208 2.281770 0.163705
v -1.868001 2.391881 -0.002775
v -1.970073 2.276336 -0.161429
v -2.039819 2.438276 -0.002911
v -2.146640 2.323838 -0.161443
v -2.210599 2.486758 -0.003056
v -2.321088 2.373184 -0.161467
v -3.186750 2.625297 0.163462
v -3.095240 2.735773 -0.003823
v -3.283739 2.782513 -0.003960
v -3.366127 2.670053 0.163438
v -2.661120 2.479825 0.163577
v -2.554548 2.587024 -0.003364
v -2.730667 2.637426 -0.003520
v -2.834582 2.529703 0.163535
v -2.840471 2.523532 -0.161568
v -2.667028 2.473860 -0.161532
v -2.773593 2.366655 0.005409
v -2.944392 2.415809 0.005487
v -2.600994 2.316170 0.005329
v -2.494237 2.423477 -0.161498
v -2.488451 2.429276 0.163618
v -2.600994 2.316170 0.005329
v -2.661120 2.479825 0.163577
v -2.773593 2.366655 0.005409
v -2.944392 2.415809 0.005487
v -2.834582 2.529703 0.163535
v -2.381694 2.536578 -0.003208
v -2.488451 2.429276 0.163618
v -2.381694 2.536578 -0.003208
v -2.494237 2.423477 -0.161498
v -2.554548 2.587024 -0.003364
v -2.667028 2.473860 -0.161532
v -2.730667 2.637426 -0.003520
v -2.840471 2.523532 -0.161568
v -3.371126 2.663088 -0.161645
v -3.192172 2.618620 -0.161628
v -3.283675 2.508138 0.005656
v -3.453508 2.550628 0.005754
v -3.114175 2.463080 0.005568
v -3.015387 2.571937 -0.161601
v -3.009664 2.578344 0.163495
v -3.114175 2.463080 0.005568
v -3.186750 2.625297 0.163462
v -3.283675 2.508138 0.005656
v -3.453508 2.550628 0.005754
v -3.366127 2.670053 0.163438
v -2.910870 2.687208 -0.003675
v -3.009664 2.578344 0.163495
v -2.910870 2.687208 -0.003675
v -3.015387 2.571937 -0.161601
v -3.095240 2.735773 -0.003823
v -3.192172 2.618620 -0.161628
v -3.283739 2.782513 -0.003960
v -3.371126 2.663088 -0.161645
v -3.732179 2.750866 0.163440
v -3.672188 2.867846 -0.004188
v -3.870634 2.905561 -0.004277
v -3.918399 2.786322 0.163466
v -3.921580 2.778397 -0.161595
v -3.736032 2.743268 -0.161629
v -3.796023 2.626288 0.006000
v -3.969351 2.659158 0.006148
v -3.624167 2.590136 0.005868
v -3.552411 2.704804 -0.161645
v -3.547943 2.712082 0.163430
v -3.624167 2.590136 0.005868
v -3.732179 2.750866 0.163440
v -3.796023 2.626288 0.006000
v -3.969351 2.659158 0.006148
v -3.918399 2.786322 0.163466
v -3.476187 2.826751 -0.004083
v -3.547943 2.712082 0.163430
v -3.476187 2.826751 -0.004083
v -3.552411 2.704804 -0.161645
v -3.672188 2.867846 -0.004188
v -3.736032 2.743268 -0.161629
v -3.870634 2.905561 -0.004277
v -3.921580 2.778397 -0.161595
v -4.637790 2.872032 -0.161447
v -4.365935 2.846114 -0.161500
v -4.391095 2.723073 0.006472
v -4.654154 2.747749 0.006639
v -4.175719 2.695964 0.006307
v -4.139827 2.817271 -0.161550
v -4.137340 2.825515 0.163503
v -4.175719 2.695964 0.006307
v -4.364134 2.854660 0.163546
v -4.391095 2.723073 0.006472
v -4.654154 2.747749 0.006639
v -4.636627 2.880872 0.163590
v -4.101450 2.946822 -0.004354
v -4.137340 2.825515 0.163503
v -4.101450 2.946822 -0.004354
v -4.139827 2.817271 -0.161550
v -4.338974 2.977701 -0.004426
v -4.365935 2.846114 -0.161500
v -4.620263 3.005155 -0.004497
v -4.637790 2.872032 -0.161447
v -0.502570 -1.041448 -0.057631
v -0.553036 -1.041448 -0.057631
v -0.553036 1.921966 -0.057631
v -0.502570 1.921966 -0.057631
v -0.578269 -1.041448 0.000951
v -0.578269 1.921966 0.000951
v -0.553036 -1.041448 0.059534
v -0.553036 1.921966 0.059534
v -0.502570 -1.041448 0.059534
v -0.502570 1.921966 0.059534
v -0.477343 -1.041448 0.000951
v -0.477343 1.921966 0.000951
v -0.502570 -1.041448 -0.057631
v -0.502570 1.921966 -0.057631
v -0.477343 1.921966 0.000951
v -0.502570 1.921966 -0.057631
v -0.553036 1.921966 -0.057631
v -0.578269 1.921966 0.000951
v -0.553036 1.921966 0.059534
v -0.502570 1.921966 0.059534
v -1.263862 -1.041448 -0.057631
v -1.314328 -1.041448 -0.057631
v -1.314328 2.065101 -0.057631
v -1.263862 2.065101 -0.057631
v -1.339561 -1.041448 0.000951
v -1.339561 2.065101 0.000951
v -1.314328 -1.041448 0.059534
v -1.314328 2.065101 0.059534
v -1.263862 -1.041448 0.059534
v -1.263862 2.065101 0.059534
v -1.238636 -1.041448 0.000951
v -1.238636 2.065101 0.000951
v -1.263862 -1.041448 -0.057631
v -1.263862 2.065101 -0.057631
v -1.238636 2.065101 0.000951
v -1.263862 2.065101 -0.057631
v -1.314328 2.065101 -0.057631
v -1.339561 2.065101 0.000951
v -1.314328 2.065101 0.059534
v -1.263862 2.065101 0.059534
v -2.000068 -1.041448 -0.057631
v -2.050534 -1.041448 -0.057631
v -2.050534 2.200278 -0.057631
v -2.000068 2.200278 -0.057631
v -2.075761 -1.041448 0.000951
v -2.075761 2.200278 0.000951
v -2.050534 -1.041448 0.059534
v -2.050534 2.200278 0.059534
v -2.000068 -1.041448 0.059534
v -2.000068 2.200278 0.059534
v -1.974835 -1.041448 0.000951
v -1.974835 2.200278 0.000951
v -2.000068 -1.041448 -0.057631
v -2.000068 2.200278 -0.057631
v -1.974835 2.200278 0.000951
v -2.000068 2.200278 -0.057631
v -2.050534 2.200278 -0.057631
v -2.075761 2.200278 0.000951
v -2.050534 2.200278 0.059534
v -2.000068 2.200278 0.059534
v -2.677289 -1.041448 -0.057631
v -2.727748 -1.041448 -0.057631
v -2.727748 2.446784 -0.057631
v -2.677289 2.446784 -0.057631
v -2.752981 -1.041448 0.000951
v -2.752981 2.446784 0.000951
v -2.727748 -1.041448 0.059534
v -2.727748 2.446784 0.059534
v -2.677289 -1.041448 0.059534
v -2.677289 2.446784 0.059534
v -2.652056 -1.041448 0.000951
v -2.652056 2.446784 0.000951
v -2.677289 -1.041448 -0.057631
v -2.677289 2.446784 -0.057631
v -2.652056 2.446784 0.000951
v -2.677289 2.446784 -0.057631
v -2.727748 2.446784 -0.057631
v -2.752981 2.446784 0.000951
v -2.727748 2.446784 0.059534
v -2.677289 2.446784 0.059534
v -4.059363 -1.041448 -0.057631
v -4.109827 -1.041448 -0.057631
v -4.109827 2.804610 -0.057631
v -4.059363 2.804610 -0.057631
v -4.135058 -1.041448 0.000951
v -4.135058 2.804610 0.000952
v -4.109827 -1.041448 0.059534
v -4.109827 2.804610 0.059534
v -4.059363 -1.041448 0.059534
v -4.059363 2.804610 0.059534
v -4.034130 -1.041448 0.000951
v -4.034130 2.804610 0.000952
v -4.059363 -1.041448 -0.057631
v -4.059363 2.804610 -0.057631
v -4.034130 2.804610 0.000952
v -4.059363 2.804610 -0.057631
v -4.109827 2.804610 -0.057631
v -4.135058 2.804610 0.000952
v -4.109827 2.804610 0.059534
v -4.059363 2.804610 0.059534
v -3.348601 -1.041448 -0.057631
v -3.399067 -1.041448 -0.057631
v -3.399067 2.661475 -0.057631
v -3.348601 2.661475 -0.057631
v -3.424300 -1.041448 0.000951
v -3.424300 2.661475 0.000952
v -3.399067 -1.041448 0.059534
v -3.399067 2.661475 0.059534
v -3.348601 -1.041448 0.059534
v -3.348601 2.661475 0.059534
v -3.323374 -1.041448 0.000951
v -3.323374 2.661475 0.000952
v -3.348601 -1.041448 -0.057631
v -3.348601 2.661475 -0.057631
v -3.323374 2.661475 0.000952
v -3.348601 2.661475 -0.057631
v -3.399067 2.661475 -0.057631
v -3.424300 2.661475 0.000952
v -3.399067 2.661475 0.059534
v -3.348601 2.661475 0.059534
v -4.618883 -0.449712 0.067879
v -0.049905 -0.449712 0.067879
v -0.049905 -0.449712 -0.077294
v -4.618883 -0.449712 -0.077294
v -4.618883 -0.495757 0.067879
v -0.049905 -0.495757 0.067879
v -0.049905 -0.449712 0.067879
v -4.618883 -0.449712 0.067879
v -0.049905 -0.495757 0.067879
v -0.049905 -0.495757 -0.077294
v -0.049905 -0.449712 -0.077294
v -0.049905 -0.449712 0.067879
v -0.049905 -0.495757 -0.077294
v -4.618883 -0.495757 -0.077294
v -4.618883 -0.449712 -0.077294
v -0.049905 -0.449712 -0.077294
v -4.618883 -0.495757 -0.077294
v -4.618883 -0.495757 0.067879
v -4.618883 -0.449712 0.067879
v -4.618883 -0.449712 -0.077294
v -0.049905 -0.495757 0.067879
v -4.618883 -0.495757 0.067879
v -4.618883 -0.495757 -0.077294
v -0.049905 -0.495757 -0.077294
v -4.357897 -4.009835 0.130213
v -0.288985 -4.009835 0.130213
v -0.288985 -1.156526 0.130213
v -4.357897 -1.156526 0.130213
v -4.594718 -0.990457 -0.082831
v -0.052165 -0.990457 -0.082831
v -0.052165 -0.990457 -0.155925
v -4.594718 -0.990457 -0.155925
v -4.357897 -1.156526 -0.045571
v -0.288985 -1.156526 -0.045571
v -0.288985 -4.009835 -0.045571
v -4.357897 -4.009835 -0.045571
v -4.594718 -4.175905 -0.155926
v -0.052165 -4.175905 -0.155926
v -0.052165 -4.175905 -0.082831
v -4.594718 -4.175905 -0.082831
v -0.052165 -0.990457 -0.082831
v -0.052165 -4.175905 -0.082831
v -0.052165 -4.175905 -0.155926
v -0.052165 -0.990457 -0.155925
v -4.594718 -4.175905 -0.155926
v -4.594718 -4.175905 -0.082831
v -4.594718 -0.990457 -0.082831
v -4.594718 -0.990457 -0.155925
v -4.594718 -4.175905 0.165354
v -0.052165 -4.175905 0.165354
v -0.173837 -4.090585 0.165354
v -4.473049 -4.090585 0.165354
v -0.052165 -4.175905 0.165354
v -0.052165 -0.990457 0.165354
v -0.173837 -1.075777 0.165354
v -0.173837 -4.090585 0.165354
v -0.052165 -0.990457 0.165354
v -4.594718 -0.990457 0.165354
v -4.473049 -1.075777 0.165354
v -0.173837 -1.075777 0.165354
v -4.594718 -0.990457 0.165354
v -4.594718 -4.175905 0.165354
v -4.473049 -4.090585 0.165354
v -4.473049 -1.075777 0.165354
v -4.594718 -0.990457 -0.155925
v -0.052165 -0.990457 -0.155925
v -0.173837 -1.075777 -0.155925
v -4.473049 -1.075777 -0.155925
v -0.052165 -0.990457 -0.155925
v -0.052165 -4.175905 -0.155926
v -0.173837 -4.090585 -0.155926
v -0.173837 -1.075777 -0.155925
v -0.052165 -4.175905 -0.155926
v -4.594718 -4.175905 -0.155926
v -4.473049 -4.090585 -0.155926
v -0.173837 -4.090585 -0.155926
v -4.594718 -4.175905 -0.155926
v -4.594718 -0.990457 -0.155925
v -4.473049 -1.075777 -0.155925
v -4.473049 -4.090585 -0.155926
v -4.473049 -4.090585 0.165354
v -0.173837 -4.090585 0.165354
v -0.173837 -4.090585 0.092606
v -4.473049 -4.090585 0.092606
v -0.173837 -4.090585 0.165354
v -0.173837 -1.075777 0.165354
v -0.173837 -1.075777 0.092606
v -0.173837 -4.090585 0.092606
v -0.173837 -1.075777 0.165354
v -4.473049 -1.075777 0.165354
v -4.473049 -1.075777 0.092606
v -0.173837 -1.075777 0.092606
v -4.473049 -1.075777 0.165354
v -4.473049 -4.090585 0.165354
v -4.473049 -4.090585 0.092606
v -4.473049 -1.075777 0.092606
v -4.473049 -1.075777 -0.155925
v -0.173837 -1.075777 -0.155925
v -0.173837 -1.075777 -0.083177
v -4.473049 -1.075777 -0.083177
v -0.173837 -1.075777 -0.155925
v -0.173837 -4.090585 -0.155926
v -0.173837 -4.090585 -0.083178
v -0.173837 -1.075777 -0.083177
v -0.173837 -4.090585 -0.155926
v -4.473049 -4.090585 -0.155926
v -4.473049 -4.090585 -0.083178
v -0.173837 -4.090585 -0.083178
v -4.473049 -4.090585 -0.155926
v -4.473049 -1.075777 -0.155925
v -4.473049 -1.075777 -0.083177
v -4.473049 -4.090585 -0.083178
v -4.473049 -4.090585 0.092606
v -0.173837 -4.090585 0.092606
v -0.288985 -4.009835 0.130213
v -4.357897 -4.009835 0.130213
v -0.173837 -4.090585 0.092606
v -0.173837 -1.075777 0.092606
v -0.288985 -1.156526 0.130213
v -0.288985 -4.009835 0.130213
v -0.173837 -1.075777 0.092606
v -4.473049 -1.075777 0.092606
v -4.357897 -1.156526 0.130213
v -0.288985 -1.156526 0.130213
v -4.473049 -1.075777 0.092606
v -4.473049 -4.090585 0.092606
v -4.357897 -4.009835 0.130213
v -4.357897 -1.156526 0.130213
v -4.473049 -1.075777 -0.083177
v -0.173837 -1.075777 -0.083177
v -0.288985 -1.156526 -0.045571
v -4.357897 -1.156526 -0.045571
v -0.173837 -1.075777 -0.083177
v -0.173837 -4.090585 -0.083178
v -0.288985 -4.009835 -0.045571
v -0.288985 -1.156526 -0.045571
v -0.173837 -4.090585 -0.083178
v -4.473049 -4.090585 -0.083178
v -4.357897 -4.009835 -0.045571
v -0.288985 -4.009835 -0.045571
v -4.473049 -4.090585 -0.083178
v -4.473049 -1.075777 -0.083177
v -4.357897 -1.156526 -0.045571
v -4.357897 -4.009835 -0.045571
v -4.594718 -0.990457 0.165354
v -0.052165 -0.990457 0.165354
v -0.052165 -0.990457 0.092260
v -4.594718 -0.990457 0.092260
v -0.052165 -4.175905 0.165354
v -0.052165 -4.175905 0.092260
v -0.052165 -0.990457 0.092260
v -0.052165 -0.990457 0.165354
v -4.594718 -4.175905 0.092260
v -0.052165 -4.175905 0.092260
v -0.052165 -4.175905 0.165354
v -4.594718 -4.175905 0.165354
v -4.594718 -0.990457 0.092260
v -4.594718 -4.175905 0.092260
v -4.594718 -4.175905 0.165354
v -4.594718 -0.990457 0.165354
v -4.635135 -0.962113 0.092260
v -0.011749 -0.962113 0.092260
v -0.011749 -0.962113 -0.082831
v -4.635135 -0.962113 -0.082831
v -0.011749 -0.962113 0.092260
v -0.011749 -4.204242 0.092260
v -0.011749 -4.204242 -0.082831
v -0.011749 -0.962113 -0.082831
v -4.635135 -4.204242 -0.082831
v -0.011749 -4.204242 -0.082831
v -0.011749 -4.204242 0.092260
v -4.635135 -4.204242 0.092260
v -4.635135 -0.962113 -0.082831
v -4.635135 -4.204242 -0.082831
v -4.635135 -4.204242 0.092260
v -4.635135 -0.962113 0.092260
v -4.594718 -0.990457 0.092260
v -0.052165 -0.990457 0.092260
v -0.011749 -0.962113 0.092260
v -4.635135 -0.962113 0.092260
v -0.052165 -0.990457 -0.082831
v -4.594718 -0.990457 -0.082831
v -4.635135 -0.962113 -0.082831
v -0.011749 -0.962113 -0.082831
v -0.052165 -0.990457 0.092260
v -0.052165 -4.175905 0.092260
v -0.011749 -4.204242 0.092260
v -0.011749 -0.962113 0.092260
v -0.052165 -4.175905 -0.082831
v -0.052165 -0.990457 -0.082831
v -0.011749 -0.962113 -0.082831
v -0.011749 -4.204242 -0.082831
v -4.594718 -4.175905 -0.082831
v -0.052165 -4.175905 -0.082831
v -0.011749 -4.204242 -0.082831
v -4.635135 -4.204242 -0.082831
v -0.052165 -4.175905 0.092260
v -4.594718 -4.175905 0.092260
v -4.635135 -4.204242 0.092260
v -0.011749 -4.204242 0.092260
v -4.594718 -0.990457 -0.082831
v -4.594718 -4.175905 -0.082831
v -4.635135 -4.204242 -0.082831
v -4.635135 -0.962113 -0.082831
v -4.594718 -4.175905 0.092260
v -4.594718 -0.990457 0.092260
v -4.635135 -0.962113 0.092260
v -4.635135 -4.204242 0.092260
v -4.747746 3.030561 0.171431
v -4.743849 3.039970 0.171431
v -4.743849 3.039970 -0.170029
v -4.747746 3.030561 -0.170029
v -4.743849 3.039970 0.171431
v -4.734442 3.043862 0.171431
v -4.734442 3.043862 -0.170029
v -4.743849 3.039970 -0.170029
v -4.734442 3.030561 0.188086
v -4.743849 3.030561 0.183208
v -4.743849 -4.211719 0.183207
v -4.734442 -4.211719 0.188085
v -4.743849 3.030561 0.183208
v -4.747746 -4.211719 0.171430
v -4.743849 -4.211719 0.183207
v -4.734442 3.039970 0.183208
v -4.628004 3.039970 0.183208
v -4.628004 3.043862 0.171431
v -4.734442 3.039970 0.183208
v -4.628004 3.030561 0.188086
v -4.628004 3.039970 0.183208
v -4.618597 3.039970 0.171431
v -4.618597 3.039970 -0.170029
v -4.628004 3.043862 -0.170029
v -4.618597 3.039970 0.171431
v -4.614700 3.030561 0.171431
v -4.614700 3.030561 -0.170029
v -4.618597 3.039970 -0.170029
v -4.618597 3.030561 0.183208
v -4.618597 -4.211719 0.183207
v -4.614700 -4.211719 0.171430
v -4.618597 3.030561 0.183208
v -4.628004 -4.211719 0.188085
v -4.618597 -4.211719 0.183207
v -4.743849 3.030561 -0.181806
v -4.743849 -4.211719 -0.181806
v -4.747746 -4.211719 -0.170030
v -4.743849 3.030561 -0.181806
v -4.734442 3.030561 -0.186684
v -4.734442 -4.211719 -0.186684
v -4.743849 -4.211719 -0.181806
v -4.734442 3.039970 -0.181806
v -4.628004 3.039970 -0.181806
v -4.628004 3.030561 -0.186684
v -4.734442 3.039970 -0.181806
v -4.628004 3.039970 -0.181806
v -4.618597 3.030561 -0.181806
v -4.618597 -4.211719 -0.181806
v -4.628004 -4.211719 -0.186684
v -4.618597 3.030561 -0.181806
v -4.614700 -4.211719 -0.170030
v -4.618597 -4.211719 -0.181806
v -4.742120 3.038242 0.181043
v -4.742120 3.038242 0.181043
v -4.742120 3.038242 0.181043
v -4.620326 3.038242 0.181043
v -4.620326 3.038242 0.181043
v -4.620326 3.038242 0.181043
v -4.742120 3.038242 -0.179641
v -4.742120 3.038242 -0.179641
v -4.742120 3.038242 -0.179641
v -4.620326 3.038242 -0.179641
v -4.620326 3.038242 -0.179641
v -4.620326 3.038242 -0.179641
v -0.108712 -4.211719 0.266262
v 0.062549 -4.211719 0.266262
v 0.062549 2.153537 0.266262
v -0.108712 2.153537 0.266262
v -0.108712 2.153537 0.266262
v 0.062549 2.153537 0.266262
v 0.062549 2.153537 -0.246433
v -0.108712 2.153537 -0.246433
v -0.108712 2.153537 -0.246433
v 0.062549 2.153537 -0.246433
v 0.062549 -4.211719 -0.246433
v -0.108712 -4.211719 -0.246433
v -0.098989 -4.159550 -0.184827
v -0.098989 -4.159550 0.204655
v -0.098989 2.101362 0.204656
v -0.098989 2.101362 -0.184826
v -0.108712 -4.211719 -0.246433
v -0.108712 -4.211719 0.266262
v -0.108712 -4.186563 0.231323
v -0.108712 -4.186563 -0.211495
v -0.108712 -4.211719 0.266262
v -0.108712 2.153537 0.266262
v -0.108712 2.128375 0.231324
v -0.108712 -4.186563 0.231323
v -0.108712 2.153537 0.266262
v -0.108712 2.153537 -0.246433
v -0.108712 2.128375 -0.211494
v -0.108712 2.128375 0.231324
v -0.108712 2.153537 -0.246433
v -0.108712 -4.211719 -0.246433
v -0.108712 -4.186563 -0.211495
v -0.108712 2.128375 -0.211494
v -0.108712 -4.186563 -0.211495
v -0.108712 -4.186563 0.231323
v -0.085438 -4.186563 0.231323
v -0.085438 -4.186563 -0.211495
v -0.108712 -4.186563 0.231323
v -0.108712 2.128375 0.231324
v -0.085438 2.128375 0.231324
v -0.085438 -4.186563 0.231323
v -0.108712 2.128375 0.231324
v -0.108712 2.128375 -0.211494
v -0.085438 2.128375 -0.211494
v -0.085438 2.128375 0.231324
v -0.108712 2.128375 -0.211494
v -0.108712 -4.186563 -0.211495
v -0.085438 -4.186563 -0.211495
v -0.085438 2.128375 -0.211494
v -0.085438 -4.186563 -0.211495
v -0.085438 -4.186563 0.231323
v -0.085438 -4.159550 0.204655
v -0.085438 -4.159550 -0.184827
v -0.085438 -4.186563 0.231323
v -0.085438 2.128375 0.231324
v -0.085438 2.101362 0.204656
v -0.085438 -4.159550 0.204655
v -0.085438 2.128375 0.231324
v -0.085438 2.128375 -0.211494
v -0.085438 2.101362 -0.184826
v -0.085438 2.101362 0.204656
v -0.085438 2.128375 -0.211494
v -0.085438 -4.186563 -0.211495
v -0.085438 -4.159550 -0.184827
v -0.085438 2.101362 -0.184826
v -0.085438 -4.159550 -0.184827
v -0.085438 -4.159550 0.204655
v -0.098989 -4.159550 0.204655
v -0.098989 -4.159550 -0.184827
v -0.085438 -4.159550 0.204655
v -0.085438 2.101362 0.204656
v -0.098989 2.101362 0.204656
v -0.098989 -4.159550 0.204655
v -0.085438 2.101362 0.204656
v -0.085438 2.101362 -0.184826
v -0.098989 2.101362 -0.184826
v -0.098989 2.101362 0.204656
v -0.085438 2.101362 -0.184826
v -0.085438 -4.159550 -0.184827
v -0.098989 -4.159550 -0.184827
v -0.098989 2.101362 -0.184826
vn 0.0773 0.7985 0.5970
vn 0.0887 0.7971 0.5972
vn 0.0895 0.7970 0.5973
vn 0.0774 0.7984 0.5972
vn 0.2166 0.7518 0.6228
vn 0.2101 0.7547 0.6215
vn 0.2078 0.7560 0.6207
vn 0.2155 0.7523 0.6226
vn 0.1622 0.7739 0.6122
vn 0.1608 0.7740 0.6125
vn 0.1607 0.7739 0.6126
vn 0.1610 0.7737 0.6127
vn 0.1619 0.7739 0.6123
vn 0.1528 0.7759 0.6121
vn 0.1385 0.7795 0.6109
vn 0.1374 0.7797 0.6108
vn 0.1518 0.7761 0.6120
vn -0.1509 -0.7764 -0.6119
vn -0.1367 -0.7799 -0.6108
vn -0.1378 -0.7797 -0.6109
vn -0.1520 -0.7760 -0.6121
vn -0.0847 -0.7877 -0.6103
vn -0.0848 -0.7876 -0.6103
vn -0.1048 -0.7851 -0.6104
vn -0.1036 -0.7853 -0.6104
vn -0.0826 -0.7669 0.6365
vn -0.0825 -0.7668 0.6366
vn -0.1008 -0.7642 0.6371
vn -0.1020 -0.7640 0.6371
vn -0.1329 -0.7580 0.6385
vn -0.1336 -0.7576 0.6390
vn -0.1465 -0.7536 0.6408
vn -0.1475 -0.7532 0.6410
vn 0.0824 0.7879 0.6103
vn 0.1025 0.7854 0.6105
vn 0.1037 0.7852 0.6105
vn 0.0804 0.7670 -0.6366
vn 0.0802 0.7671 -0.6365
vn 0.1010 0.7641 -0.6372
vn 0.0997 0.7643 -0.6371
vn 0.1345 0.7576 -0.6387
vn 0.1339 0.7575 -0.6390
vn 0.1482 0.7531 -0.6410
vn 0.1475 0.7532 -0.6411
vn -0.1623 -0.7738 -0.6123
vn -0.1618 -0.7739 -0.6123
vn -0.1608 -0.7739 -0.6126
vn -0.1607 -0.7739 -0.6126
vn -0.1609 -0.7739 -0.6126
vn -0.1623 -0.7738 -0.6122
vn -0.1591 -0.7741 -0.6127
vn -0.1586 -0.7742 -0.6127
vn -0.1536 -0.7506 0.6427
vn -0.1542 -0.7503 0.6428
vn -0.1592 -0.7741 -0.6127
vn -0.1606 -0.7739 -0.6126
vn -0.1587 -0.7742 -0.6127
vn -0.1537 -0.7506 0.6426
vn -0.1557 -0.7493 0.6437
vn -0.1556 -0.7492 0.6438
vn -0.1541 -0.7504 0.6428
vn -0.1563 -0.7485 0.6444
vn -0.1568 -0.7483 0.6446
vn -0.1555 -0.7491 0.6439
vn -0.1559 -0.7491 0.6438
vn -0.1564 -0.7486 0.6444
vn 0.1595 0.7740 0.6128
vn 0.1591 0.7741 0.6128
vn 0.1546 0.7502 -0.6429
vn 0.1540 0.7505 -0.6427
vn 0.1609 0.7739 0.6126
vn 0.1596 0.7740 0.6128
vn 0.1592 0.7741 0.6128
vn 0.1609 0.7738 0.6127
vn 0.1558 0.7492 -0.6438
vn 0.1559 0.7492 -0.6438
vn 0.1542 0.7504 -0.6427
vn 0.1557 0.7492 -0.6438
vn 0.1567 0.7483 -0.6445
vn 0.1558 0.7487 -0.6444
vn 0.1558 0.7491 -0.6439
vn 0.1557 0.7493 -0.6437
vn 0.1567 0.7483 -0.6446
vn 0.1861 0.7655 0.6159
vn 0.1748 0.7698 0.6139
vn 0.1725 0.7710 0.6130
vn 0.1833 0.7667 0.6153
vn -0.1863 -0.7653 -0.6161
vn -0.1832 -0.7669 -0.6151
vn -0.1729 -0.7706 -0.6134
vn -0.1750 -0.7697 -0.6139
vn -0.1619 -0.7739 -0.6123
vn -0.1670 -0.7724 -0.6128
vn -0.1655 -0.7732 -0.6122
vn -0.1565 -0.7485 0.6444
vn -0.1601 -0.7465 0.6458
vn -0.1609 -0.7464 0.6458
vn -0.1670 -0.7433 0.6477
vn -0.1685 -0.7426 0.6482
vn -0.1766 -0.7385 0.6507
vn -0.1792 -0.7372 0.6514
vn 0.1669 0.7725 0.6128
vn 0.1618 0.7739 0.6123
vn 0.1653 0.7733 0.6121
vn 0.1607 0.7465 -0.6457
vn 0.1599 0.7466 -0.6457
vn 0.1564 0.7485 -0.6444
vn 0.1682 0.7429 -0.6480
vn 0.1667 0.7434 -0.6478
vn 0.1790 0.7375 -0.6512
vn 0.1768 0.7383 -0.6509
vn -0.2164 -0.7519 -0.6228
vn -0.2152 -0.7524 -0.6225
vn -0.2075 -0.7561 -0.6207
vn -0.2098 -0.7548 -0.6215
vn -0.1991 -0.7598 -0.6189
vn -0.1960 -0.7614 -0.6179
vn -0.1887 -0.7321 0.6546
vn -0.1913 -0.7307 0.6553
vn -0.1995 -0.7259 0.6583
vn -0.2015 -0.7247 0.6590
vn -0.2066 -0.7214 0.6611
vn -0.2076 -0.7206 0.6615
vn 0.1993 0.7597 0.6190
vn 0.1961 0.7613 0.6180
vn 0.1916 0.7305 -0.6555
vn 0.1890 0.7318 -0.6548
vn 0.2017 0.7245 -0.6590
vn 0.1998 0.7256 -0.6585
vn 0.2078 0.7205 -0.6616
vn 0.2067 0.7213 -0.6611
vn 0.1835 0.7718 0.6088
vn 0.1950 0.7661 0.6125
vn 0.1969 0.7651 0.6130
vn 0.1853 0.7712 0.6090
vn 0.2121 0.7559 0.6193
vn 0.2170 0.7526 0.6216
vn 0.2179 0.7520 0.6221
vn 0.2133 0.7553 0.6197
vn -0.2126 -0.7557 -0.6194
vn -0.2138 -0.7551 -0.6198
vn -0.2182 -0.7519 -0.6222
vn -0.2176 -0.7524 -0.6218
vn -0.2153 -0.7524 -0.6226
vn -0.2190 -0.7509 -0.6230
vn -0.2190 -0.7510 -0.6230
vn -0.2187 -0.7510 -0.6230
vn -0.2153 -0.7524 -0.6225
vn -0.2065 -0.7214 0.6610
vn -0.2096 -0.7191 0.6625
vn -0.2098 -0.7188 0.6628
vn -0.2099 -0.7188 0.6628
vn -0.2077 -0.7206 0.6616
vn -0.2188 -0.7510 -0.6231
vn -0.2191 -0.7509 -0.6230
vn -0.2175 -0.7524 -0.6218
vn -0.2183 -0.7518 -0.6222
vn -0.2188 -0.7510 -0.6230
vn -0.2097 -0.7189 0.6627
vn -0.2091 -0.7189 0.6629
vn -0.2083 -0.7193 0.6627
vn -0.2082 -0.7194 0.6627
vn -0.2099 -0.7187 0.6628
vn -0.2097 -0.7190 0.6627
vn -0.2048 -0.7211 0.6618
vn -0.2033 -0.7219 0.6614
vn -0.2081 -0.7194 0.6627
vn -0.2090 -0.7190 0.6629
vn 0.2189 0.7510 0.6229
vn 0.2186 0.7510 0.6230
vn 0.2188 0.7511 0.6229
vn 0.2099 0.7188 -0.6628
vn 0.2096 0.7191 -0.6625
vn 0.2068 0.7212 -0.6611
vn 0.2098 0.7188 -0.6628
vn 0.2171 0.7526 0.6216
vn 0.2188 0.7510 0.6230
vn 0.2188 0.7509 0.6231
vn 0.2180 0.7520 0.6221
vn 0.2079 0.7195 -0.6626
vn 0.2087 0.7191 -0.6628
vn 0.2097 0.7190 -0.6626
vn 0.2097 0.7189 -0.6628
vn 0.2027 0.7223 -0.6612
vn 0.2043 0.7213 -0.6618
vn -0.1841 -0.7716 -0.6089
vn -0.1863 -0.7707 -0.6094
vn -0.1978 -0.7647 -0.6133
vn -0.1958 -0.7657 -0.6127
vn -0.2053 -0.7603 -0.6162
vn -0.2070 -0.7593 -0.6169
vn -0.2047 -0.7211 0.6618
vn -0.1979 -0.7248 0.6600
vn -0.1961 -0.7257 0.6594
vn -0.1890 -0.7293 0.6575
vn -0.1868 -0.7304 0.6570
vn -0.1778 -0.7345 0.6549
vn -0.1754 -0.7356 0.6543
vn 0.2046 0.7606 0.6162
vn 0.2062 0.7597 0.6167
vn 0.1954 0.7261 -0.6593
vn 0.1973 0.7251 -0.6598
vn 0.1861 0.7307 -0.6568
vn 0.1883 0.7297 -0.6574
vn 0.1748 0.7359 -0.6542
vn 0.1772 0.7348 -0.6548
vn 0.1444 0.7867 0.6003
vn 0.1558 0.7829 0.6023
vn 0.1572 0.7827 0.6023
vn 0.1453 0.7865 0.6003
vn -0.1442 -0.7867 -0.6003
vn -0.1451 -0.7865 -0.6003
vn -0.1572 -0.7826 -0.6023
vn -0.1558 -0.7829 -0.6024
vn -0.1706 -0.7773 -0.6055
vn -0.1726 -0.7767 -0.6058
vn -0.1645 -0.7399 0.6523
vn -0.1620 -0.7409 0.6518
vn -0.1498 -0.7448 0.6502
vn -0.1479 -0.7454 0.6500
vn -0.1374 -0.7481 0.6492
vn -0.1368 -0.7483 0.6491
vn 0.1699 0.7778 0.6052
vn 0.1721 0.7769 0.6057
vn 0.1616 0.7411 -0.6517
vn 0.1641 0.7400 -0.6523
vn 0.1479 0.7454 -0.6500
vn 0.1499 0.7447 -0.6503
vn 0.1372 0.7483 -0.6490
vn 0.1379 0.7480 -0.6493
vn -0.0759 -0.7985 -0.5972
vn -0.0758 -0.7986 -0.5971
vn -0.0879 -0.7972 -0.5972
vn -0.0868 -0.7974 -0.5972
vn -0.1195 -0.7921 -0.5985
vn -0.1220 -0.7918 -0.5985
vn -0.1160 -0.7521 0.6488
vn -0.1132 -0.7527 0.6486
vn -0.0831 -0.7568 0.6484
vn -0.0822 -0.7568 0.6484
vn -0.0715 -0.7574 0.6490
vn -0.0717 -0.7576 0.6488
vn 0.1205 0.7921 0.5984
vn 0.1228 0.7916 0.5986
vn 0.1142 0.7525 -0.6486
vn 0.1164 0.7521 -0.6486
vn 0.0837 0.7566 -0.6485
vn 0.0847 0.7565 -0.6485
vn 0.0733 0.7572 -0.6491
vn 0.0731 0.7574 -0.6489
vn 0.6120 -0.0000 -0.7908
vn -0.6121 -0.0000 -0.7908
vn -1.0000 -0.0000 -0.0000
vn -0.6121 -0.0000 0.7908
vn 0.6120 -0.0000 0.7908
vn 0.6121 -0.0000 0.7908
vn 1.0000 -0.0000 -0.0000
vn -0.0000 1.0000 -0.0000
vn -0.6120 -0.0000 -0.7908
vn -0.6120 -0.0000 0.7908
vn -0.0000 -0.0000 1.0000
vn -0.0000 -0.0000 -1.0000
vn -0.0000 -1.0000 -0.0000
vn -0.0000 -0.4222 0.9065
vn 0.3105 -0.0000 0.9506
vn -0.0000 0.4222 0.9065
vn -0.3105 -0.0000 0.9506
vn -0.0000 -0.4222 -0.9065
vn -0.3105 -0.0000 -0.9506
vn -0.0000 0.4222 -0.9065
vn 0.3104 -0.0000 -0.9506
vn -0.9999 0.0005 -0.0110
vn -0.9999 0.0005 0.0111
vn -0.9239 0.3826 0.0069
vn -0.9242 0.3817 -0.0069
vn -0.3823 0.9240 -0.0069
vn -0.3817 0.9243 0.0069
vn -0.0333 0.9994 0.0108
vn -0.0333 0.9994 -0.0107
vn -0.0421 -0.0000 0.9991
vn -0.0421 0.0007 0.9991
vn -0.4604 0.0004 0.8877
vn -0.4604 -0.0000 0.8877
vn -0.9494 -0.0000 0.3141
vn -0.9494 0.0003 0.3141
vn -0.9999 0.0001 0.0111
vn 0.0333 0.9994 0.0107
vn -0.0218 0.9498 0.3120
vn 0.0218 0.9498 0.3120
vn 0.0256 0.4576 0.8888
vn -0.0255 0.4576 0.8888
vn 0.0421 0.0007 0.9991
vn 0.0333 0.9994 -0.0108
vn 0.3823 0.9240 0.0069
vn 0.3817 0.9243 -0.0069
vn 0.9239 0.3826 -0.0069
vn 0.9243 0.3817 0.0069
vn 0.9999 0.0005 0.0110
vn 0.9999 0.0006 -0.0110
vn 0.9999 -0.0000 0.0111
vn 0.9494 0.0004 0.3141
vn 0.9494 -0.0000 0.3141
vn 0.4604 -0.0000 0.8877
vn 0.4603 0.0005 0.8878
vn 0.0421 -0.0001 0.9991
vn -0.9999 -0.0000 -0.0111
vn -0.9494 0.0003 -0.3141
vn -0.9494 -0.0000 -0.3141
vn -0.4603 -0.0000 -0.8877
vn -0.4603 0.0004 -0.8877
vn -0.0421 0.0007 -0.9991
vn -0.0421 0.0001 -0.9991
vn 0.0421 0.0007 -0.9991
vn -0.0256 0.4576 -0.8888
vn 0.0255 0.4576 -0.8888
vn 0.0218 0.9498 -0.3120
vn -0.0218 0.9498 -0.3120
vn 0.0421 -0.0000 -0.9991
vn 0.4604 0.0004 -0.8877
vn 0.4604 -0.0000 -0.8877
vn 0.9494 -0.0000 -0.3142
vn 0.9494 0.0004 -0.3141
vn 0.9999 -0.0000 -0.0111
vn -0.3316 0.9054 0.2649
vn -0.9055 0.3316 0.2649
vn -0.3848 0.3847 0.8390
vn 0.9055 0.3316 0.2649
vn 0.3316 0.9054 0.2649
vn 0.3848 0.3847 0.8390
vn -0.3848 0.3847 -0.8390
vn -0.9055 0.3316 -0.2649
vn -0.3314 0.9056 -0.2648
vn 0.9055 0.3316 -0.2649
vn 0.3848 0.3847 -0.8390
vn 0.3316 0.9054 -0.2649
vt 0.906920 0.666482
vt 0.906917 0.676120
vt 0.902172 0.677009
vt 0.902172 0.667060
vt 0.774648 0.828020
vt 0.774962 0.834414
vt 0.770236 0.837008
vt 0.769928 0.830737
vt 0.775117 0.867201
vt 0.774969 0.873836
vt 0.770224 0.875208
vt 0.770370 0.868824
vt 0.774645 0.887109
vt 0.774372 0.893775
vt 0.769665 0.894121
vt 0.769917 0.887870
vt 0.931898 0.539305
vt 0.931900 0.532730
vt 0.936577 0.534131
vt 0.936577 0.541115
vt 0.931906 0.517664
vt 0.936577 0.517883
vt 0.936576 0.526965
vt 0.931903 0.526087
vt 0.928577 0.165606
vt 0.924128 0.164828
vt 0.925112 0.156440
vt 0.929620 0.156530
vt 0.925511 0.149740
vt 0.930059 0.149282
vt 0.925753 0.143073
vt 0.930329 0.142182
vt 0.772921 0.908856
vt 0.768303 0.908010
vt 0.769272 0.900291
vt 0.773943 0.900473
vt 0.918446 0.619839
vt 0.923217 0.618995
vt 0.924198 0.627408
vt 0.919371 0.627563
vt 0.924595 0.634128
vt 0.919727 0.633735
vt 0.924836 0.640813
vt 0.919942 0.639988
vt 0.936580 0.561505
vt 0.931891 0.558851
vt 0.931893 0.552339
vt 0.936579 0.554748
vt 0.936578 0.547966
vt 0.931895 0.545830
vt 0.925901 0.136432
vt 0.930494 0.135195
vt 0.926017 0.129799
vt 0.930621 0.128269
vt 0.926134 0.123163
vt 0.930747 0.121370
vt 0.774823 0.880468
vt 0.770083 0.881561
vt 0.924982 0.647469
vt 0.920071 0.646298
vt 0.925095 0.654116
vt 0.920174 0.652651
vt 0.925211 0.660765
vt 0.920282 0.659036
vt 0.775315 0.847386
vt 0.775321 0.853963
vt 0.770577 0.856023
vt 0.770576 0.849640
vt 0.936583 0.581507
vt 0.931884 0.578241
vt 0.931886 0.571822
vt 0.936582 0.574900
vt 0.936581 0.568227
vt 0.931889 0.565351
vt 0.926232 0.116535
vt 0.930849 0.114500
vt 0.926278 0.109924
vt 0.930898 0.107668
vt 0.926242 0.103348
vt 0.930864 0.100886
vt 0.775245 0.860573
vt 0.770498 0.862424
vt 0.925305 0.667406
vt 0.920372 0.665437
vt 0.925349 0.674029
vt 0.920413 0.671838
vt 0.925311 0.680618
vt 0.920374 0.678222
vt 0.936583 0.600709
vt 0.931875 0.596996
vt 0.931878 0.590826
vt 0.936583 0.594421
vt 0.936583 0.588021
vt 0.931881 0.584581
vt 0.926094 0.096827
vt 0.930716 0.094173
vt 0.925830 0.090378
vt 0.930451 0.087551
vt 0.925487 0.083985
vt 0.930107 0.081025
vt 0.775197 0.840865
vt 0.770463 0.843298
vt 0.925160 0.687151
vt 0.920223 0.684562
vt 0.924894 0.693612
vt 0.919959 0.690850
vt 0.924548 0.700014
vt 0.919614 0.697120
vt 0.773000 0.789498
vt 0.773110 0.796036
vt 0.768409 0.798270
vt 0.768303 0.791402
vt 0.773593 0.808933
vt 0.773927 0.815307
vt 0.769219 0.818086
vt 0.768888 0.811616
vt 0.938955 0.798441
vt 0.934238 0.794763
vt 0.934242 0.788628
vt 0.938956 0.792400
vt 0.888310 0.367441
vt 0.892844 0.369990
vt 0.892841 0.376435
vt 0.888310 0.373818
vt 0.925100 0.077626
vt 0.929720 0.074592
vt 0.892829 0.382795
vt 0.934246 0.782517
vt 0.924708 0.071275
vt 0.929330 0.068244
vt 0.924345 0.064902
vt 0.928971 0.061969
vt 0.774291 0.821660
vt 0.769577 0.824445
vt 0.924159 0.706379
vt 0.919226 0.703410
vt 0.923765 0.712732
vt 0.918830 0.709766
vt 0.923400 0.719103
vt 0.918461 0.716234
vt 0.938954 0.816447
vt 0.934226 0.813531
vt 0.934230 0.807202
vt 0.938954 0.810441
vt 0.938955 0.804446
vt 0.934234 0.800949
vt 0.924037 0.058483
vt 0.928669 0.055743
vt 0.923803 0.052008
vt 0.928441 0.049544
vt 0.923663 0.045471
vt 0.928305 0.043354
vt 0.773315 0.802512
vt 0.768611 0.805010
vt 0.923090 0.725514
vt 0.918145 0.722838
vt 0.922854 0.731976
vt 0.917903 0.729577
vt 0.922711 0.738496
vt 0.917756 0.736444
vt 0.906912 0.691885
vt 0.906910 0.698471
vt 0.902174 0.700592
vt 0.902173 0.693573
vt 0.938956 0.834692
vt 0.934218 0.833000
vt 0.934220 0.826437
vt 0.938955 0.828562
vt 0.938954 0.822483
vt 0.934223 0.819943
vt 0.923636 0.038871
vt 0.928277 0.037159
vt 0.923739 0.032213
vt 0.928375 0.030949
vt 0.923973 0.025513
vt 0.928597 0.024713
vt 0.773003 0.782898
vt 0.768314 0.784418
vt 0.922681 0.745075
vt 0.917726 0.743428
vt 0.773137 0.776241
vt 0.768462 0.777337
vt 0.922782 0.751710
vt 0.917832 0.750510
vt 0.923012 0.758385
vt 0.918074 0.757650
vt 0.938957 0.858912
vt 0.934209 0.858331
vt 0.934212 0.848716
vt 0.938957 0.849608
vt 0.938956 0.841991
vt 0.934215 0.840719
vt 0.924334 0.017655
vt 0.928942 0.017307
vt 0.925103 0.009604
vt 0.929692 0.009667
vt 0.926330 0.000000
vt 0.930898 0.000400
vt 0.906914 0.684141
vt 0.902172 0.685410
vt 0.923368 0.766217
vt 0.918445 0.765934
vt 0.924130 0.774243
vt 0.919226 0.774370
vt 0.925349 0.783824
vt 0.920465 0.784288
vt 0.590934 0.993278
vt 0.590934 0.888536
vt 0.592719 0.888536
vt 0.592719 0.993278
vt 0.977640 0.835350
vt 0.977640 0.940103
vt 0.975985 0.940133
vt 0.975985 0.835379
vt 0.974330 0.940103
vt 0.974330 0.835350
vt 0.307814 0.890331
vt 0.307814 0.995072
vt 0.306029 0.995072
vt 0.306029 0.890331
vt 0.810346 0.978038
vt 0.810346 0.873340
vt 0.812001 0.873299
vt 0.812001 0.977996
vt 0.813656 0.873340
vt 0.813656 0.978038
vt 0.838237 0.707360
vt 0.836582 0.708252
vt 0.834927 0.707360
vt 0.834927 0.705575
vt 0.836582 0.704682
vt 0.838237 0.705575
vt 0.992451 0.224380
vt 0.992451 0.114579
vt 0.994236 0.114579
vt 0.994236 0.224380
vt 0.975267 0.163522
vt 0.975267 0.273335
vt 0.973611 0.273365
vt 0.973611 0.163551
vt 0.971956 0.273335
vt 0.971956 0.163522
vt 0.996021 -0.000000
vt 0.996021 0.109801
vt 0.994236 0.109801
vt 0.994236 -0.000000
vt 0.974330 0.835350
vt 0.974330 0.725595
vt 0.975985 0.725554
vt 0.975985 0.835308
vt 0.977640 0.725595
vt 0.977640 0.835350
vt 0.841547 0.707360
vt 0.839892 0.708252
vt 0.838237 0.707360
vt 0.838237 0.705575
vt 0.839892 0.704683
vt 0.841547 0.705575
vt 0.991792 0.963424
vt 0.991792 0.848845
vt 0.993577 0.848845
vt 0.993577 0.963424
vt 0.974330 0.848835
vt 0.974330 0.963426
vt 0.972675 0.963456
vt 0.972675 0.848864
vt 0.971020 0.963426
vt 0.971020 0.848835
vt 0.995034 0.225005
vt 0.995034 0.339584
vt 0.993249 0.339584
vt 0.993249 0.225005
vt 0.971783 0.688069
vt 0.971783 0.573539
vt 0.973438 0.573497
vt 0.973438 0.688027
vt 0.975093 0.573539
vt 0.975093 0.688069
vt 0.831617 0.707359
vt 0.829962 0.708252
vt 0.828307 0.707359
vt 0.828307 0.705575
vt 0.829962 0.704682
vt 0.831617 0.705575
vt 0.991464 0.348297
vt 0.991464 0.225005
vt 0.993249 0.225005
vt 0.993249 0.348297
vt 0.971957 0.163522
vt 0.971957 0.286827
vt 0.970302 0.286857
vt 0.970302 0.163551
vt 0.968647 0.286827
vt 0.968647 0.163522
vt 0.993405 0.527406
vt 0.993405 0.650698
vt 0.991620 0.650698
vt 0.991620 0.527406
vt 0.971020 0.848834
vt 0.971020 0.725595
vt 0.972675 0.725554
vt 0.972675 0.848793
vt 0.974330 0.725595
vt 0.974330 0.848834
vt 0.841547 0.707405
vt 0.841547 0.705525
vt 0.843118 0.704492
vt 0.844689 0.705339
vt 0.844689 0.707219
vt 0.843118 0.708252
vt 0.986248 0.861493
vt 0.986248 0.725554
vt 0.988033 0.725554
vt 0.988033 0.861493
vt 0.958189 0.618995
vt 0.958189 0.754949
vt 0.956534 0.754979
vt 0.956534 0.619025
vt 0.954879 0.754949
vt 0.954879 0.618995
vt 0.989507 0.354142
vt 0.989507 0.490081
vt 0.987722 0.490081
vt 0.987722 0.354142
vt 0.954916 0.490065
vt 0.954916 0.354184
vt 0.956571 0.354142
vt 0.956571 0.490023
vt 0.958226 0.354184
vt 0.958226 0.490065
vt 0.643624 0.783152
vt 0.641969 0.784044
vt 0.640314 0.783152
vt 0.640314 0.781367
vt 0.641969 0.780474
vt 0.643624 0.781367
vt 0.963369 0.618995
vt 0.963369 0.488115
vt 0.965154 0.488115
vt 0.965154 0.618995
vt 0.965609 0.354142
vt 0.965609 0.485037
vt 0.963954 0.485066
vt 0.963954 0.354172
vt 0.962299 0.485037
vt 0.962299 0.354142
vt 0.989818 0.725554
vt 0.989818 0.856434
vt 0.988033 0.856434
vt 0.988033 0.725554
vt 0.963258 0.130866
vt 0.963258 0.000042
vt 0.964913 0.000000
vt 0.964913 0.130824
vt 0.966568 0.000042
vt 0.966568 0.130866
vt 0.834927 0.710929
vt 0.833272 0.711822
vt 0.831617 0.710929
vt 0.831617 0.709144
vt 0.833272 0.708252
vt 0.834927 0.709144
vt 0.939155 0.618995
vt 0.943257 0.618995
vt 0.943257 0.780593
vt 0.939155 0.780593
vt 0.987614 0.161598
vt 0.985987 0.161598
vt 0.985987 -0.000000
vt 0.987614 -0.000000
vt 0.854339 0.708593
vt 0.852713 0.708593
vt 0.852713 0.704492
vt 0.854339 0.704492
vt 0.987722 0.515740
vt 0.986094 0.515740
vt 0.986094 0.354142
vt 0.987722 0.354142
vt 0.847831 0.704492
vt 0.849458 0.704492
vt 0.849458 0.708593
vt 0.847831 0.708593
vt 0.940275 0.000000
vt 0.944376 0.000000
vt 0.944376 0.161598
vt 0.940275 0.161598
vt 0.546016 0.589076
vt 0.445165 0.589076
vt 0.445165 0.445165
vt 0.546016 0.445165
vt 0.975044 0.354142
vt 0.977109 0.354142
vt 0.977109 0.514805
vt 0.975044 0.514805
vt 0.445165 0.589076
vt 0.546016 0.589076
vt 0.546016 0.732987
vt 0.445165 0.732987
vt 0.977331 0.324185
vt 0.975266 0.324185
vt 0.975266 0.163522
vt 0.977331 0.163522
vt 0.991620 0.639948
vt 0.989555 0.639948
vt 0.989555 0.527406
vt 0.991620 0.527406
vt 0.982138 0.990212
vt 0.982138 0.877610
vt 0.984203 0.877610
vt 0.984203 0.990212
vt 0.954879 0.775355
vt 0.951863 0.779658
vt 0.951863 0.618995
vt 0.954879 0.623299
vt 0.646407 0.897076
vt 0.642104 0.900092
vt 0.642104 0.787502
vt 0.646407 0.790518
vt 0.765287 0.780544
vt 0.768303 0.776241
vt 0.768303 0.936904
vt 0.765287 0.932601
vt 0.945221 0.166538
vt 0.949525 0.163522
vt 0.949525 0.276112
vt 0.945221 0.273096
vt 0.948885 0.358446
vt 0.951900 0.354142
vt 0.951900 0.514805
vt 0.948885 0.510502
vt 0.947560 0.728569
vt 0.943257 0.731585
vt 0.943257 0.618995
vt 0.947560 0.622011
vt 0.954879 0.936018
vt 0.951863 0.940321
vt 0.951863 0.779658
vt 0.954879 0.783961
vt 0.947560 0.734601
vt 0.951863 0.731585
vt 0.951863 0.844175
vt 0.947560 0.841159
vt 0.984193 0.725554
vt 0.986248 0.725554
vt 0.986248 0.877610
vt 0.984193 0.877610
vt 0.686002 0.989582
vt 0.683946 0.989582
vt 0.683946 0.883011
vt 0.686002 0.883011
vt 0.981829 0.163522
vt 0.983884 0.163522
vt 0.983884 0.315578
vt 0.981829 0.315578
vt 0.690112 0.989524
vt 0.688057 0.989524
vt 0.688057 0.883011
vt 0.690112 0.883011
vt 0.985939 0.315578
vt 0.985939 0.163522
vt 0.694353 0.989582
vt 0.692298 0.989582
vt 0.692298 0.883011
vt 0.694353 0.883011
vt 0.985987 0.152056
vt 0.983932 0.152056
vt 0.983932 -0.000000
vt 0.985987 -0.000000
vt 0.977640 0.886217
vt 0.979695 0.886217
vt 0.979695 0.992730
vt 0.977640 0.992730
vt 0.967207 0.873537
vt 0.964392 0.877610
vt 0.964392 0.725554
vt 0.967207 0.729626
vt 0.962521 0.267265
vt 0.958448 0.270080
vt 0.958448 0.163522
vt 0.962521 0.166415
vt 0.955556 0.167595
vt 0.958448 0.163522
vt 0.958448 0.315578
vt 0.955556 0.311505
vt 0.958226 0.357035
vt 0.962299 0.354142
vt 0.962299 0.460701
vt 0.958226 0.457885
vt 0.965609 0.358215
vt 0.968424 0.354142
vt 0.968424 0.506199
vt 0.965609 0.502126
vt 0.963061 0.593808
vt 0.958989 0.596623
vt 0.958989 0.490065
vt 0.963061 0.492958
vt 0.959185 0.147984
vt 0.956293 0.152056
vt 0.956293 -0.000000
vt 0.959185 0.004073
vt 0.943257 0.847068
vt 0.947329 0.844175
vt 0.947329 0.950733
vt 0.943257 0.947918
vt 0.977331 0.163522
vt 0.979396 0.163522
vt 0.979396 0.324185
vt 0.977331 0.324185
vt 0.989507 0.466684
vt 0.989507 0.354142
vt 0.991572 0.354142
vt 0.991572 0.466684
vt 0.979066 0.160663
vt 0.977001 0.160663
vt 0.977001 0.000000
vt 0.979066 0.000000
vt 0.966457 0.990212
vt 0.964392 0.990212
vt 0.964392 0.877610
vt 0.966457 0.877610
vt 0.931875 0.354142
vt 0.936821 0.354142
vt 0.936821 0.517664
vt 0.931875 0.517664
vt 0.945869 0.583231
vt 0.940923 0.583231
vt 0.940923 0.468687
vt 0.945869 0.468687
vt 0.939156 0.782517
vt 0.934209 0.782517
vt 0.934209 0.618995
vt 0.939156 0.618995
vt 0.940275 0.163522
vt 0.945221 0.163522
vt 0.945221 0.278128
vt 0.940275 0.278128
vt 0.997612 0.279905
vt 0.996610 0.278475
vt 0.996610 0.117812
vt 0.997612 0.116383
vt 0.997699 0.577502
vt 0.996697 0.576073
vt 0.996697 0.415410
vt 0.997699 0.413980
vt 0.996697 0.577502
vt 0.998126 0.578504
vt 0.998126 0.691094
vt 0.996697 0.692096
vt 0.997450 -0.000000
vt 0.998880 0.001002
vt 0.998880 0.113591
vt 0.997450 0.114593
vt 0.997699 0.413980
vt 0.998700 0.415410
vt 0.998700 0.576073
vt 0.997699 0.577502
vt 0.998040 0.230976
vt 0.999041 0.232405
vt 0.999041 0.393068
vt 0.998040 0.394498
vt 0.995362 0.949948
vt 0.993932 0.948946
vt 0.993932 0.836356
vt 0.995362 0.835355
vt 0.548785 0.955642
vt 0.547356 0.954640
vt 0.547356 0.842051
vt 0.548785 0.841049
vt 0.839738 0.445502
vt 0.830091 0.445502
vt 0.830091 0.445165
vt 0.839738 0.445165
vt 0.823877 0.701842
vt 0.823877 0.711489
vt 0.823544 0.711489
vt 0.823544 0.701842
vt 0.933876 0.875311
vt 0.933876 0.619333
vt 0.934209 0.619328
vt 0.934209 0.875306
vt 0.829759 0.701505
vt 0.829759 0.445498
vt 0.830091 0.701510
vt 0.819780 0.711489
vt 0.823544 0.711822
vt 0.819780 0.711822
vt 0.930112 0.618995
vt 0.933876 0.618995
vt 0.930112 0.619333
vt 0.819780 0.701842
vt 0.819447 0.711489
vt 0.819447 0.701842
vt 0.860362 0.701374
vt 0.850715 0.701374
vt 0.850715 0.701035
vt 0.860362 0.701035
vt 0.850715 0.445165
vt 0.850383 0.701041
vt 0.850383 0.445172
vt 0.929779 0.875306
vt 0.929779 0.619328
vt 0.930112 0.875311
vt 0.839738 0.701510
vt 0.840071 0.445498
vt 0.840071 0.701505
vt 0.931875 0.354147
vt 0.931875 0.610126
vt 0.931542 0.610121
vt 0.931542 0.354142
vt 0.927778 0.610121
vt 0.931542 0.610459
vt 0.927778 0.610459
vt 0.819780 0.701510
vt 0.823544 0.701510
vt 0.927778 0.354142
vt 0.927445 0.610126
vt 0.927445 0.354147
vt 0.860695 0.445172
vt 0.860695 0.701041
vt 0.860362 0.445165
vt 0.823816 0.711761
vt 0.829820 0.445224
vt 0.934148 0.619054
vt 0.850444 0.701315
vt 0.819508 0.711761
vt 0.929840 0.619054
vt 0.931814 0.610400
vt 0.840010 0.445224
vt 0.823816 0.701571
vt 0.860633 0.701315
vt 0.927506 0.610400
vt 0.819508 0.701571
vt 0.888758 0.394015
vt 0.888758 0.618995
vt 0.882701 0.618995
vt 0.882701 0.394015
vt 0.816858 0.697335
vt 0.816858 0.711819
vt 0.810801 0.711819
vt 0.810801 0.697335
vt 0.880048 0.142461
vt 0.880048 0.367441
vt 0.873991 0.367441
vt 0.873991 0.142461
vt 0.882701 0.445165
vt 0.882701 0.666482
vt 0.871698 0.666482
vt 0.871698 0.445165
vt 0.878739 0.422943
vt 0.879628 0.421956
vt 0.879628 0.436440
vt 0.878739 0.435453
vt 0.992451 0.224116
vt 0.991464 0.225005
vt 0.991464 0.000000
vt 0.992451 0.000889
vt 0.816439 0.676722
vt 0.815549 0.677709
vt 0.815549 0.663225
vt 0.816439 0.664212
vt 0.990805 0.726443
vt 0.991792 0.725554
vt 0.991792 0.950559
vt 0.990805 0.949670
vt 0.892272 0.555613
vt 0.893096 0.555613
vt 0.893096 0.568123
vt 0.892272 0.568123
vt 0.892162 0.142461
vt 0.892986 0.142461
vt 0.892986 0.365663
vt 0.892162 0.365663
vt 0.893095 0.580633
vt 0.892272 0.580633
vt 0.893095 0.568123
vt 0.989818 0.112542
vt 0.990641 0.112542
vt 0.990641 0.335743
vt 0.989818 0.335743
vt 0.881472 0.422709
vt 0.882427 0.421956
vt 0.882427 0.434466
vt 0.881472 0.433713
vt 0.996610 0.338654
vt 0.995857 0.339609
vt 0.995857 0.116383
vt 0.996610 0.117337
vt 0.897760 0.606531
vt 0.896806 0.607284
vt 0.896806 0.594774
vt 0.897760 0.595528
vt 0.995943 0.414935
vt 0.996697 0.413980
vt 0.996697 0.637207
vt 0.995943 0.636252
vt 0.882253 0.381925
vt 0.882732 0.381925
vt 0.882732 0.392928
vt 0.882253 0.392928
vt 0.917726 0.887774
vt 0.917247 0.887774
vt 0.917247 0.666482
vt 0.917726 0.666482
vt 0.883212 0.392928
vt 0.883212 0.381925
vt 0.999521 0.337675
vt 0.999041 0.337675
vt 0.999041 0.116383
vt 0.999521 0.116383
s 1
g off
g LeftPartGate_puertablanca
usemtl puertablanca
f 4/1/1 1/2/2 2/3/3
f 2/3/3 3/4/4 4/1/1
s 2
f 8/5/5 5/6/6 6/7/7
f 6/7/7 7/8/8 8/5/5
s 0
f 12/9/9 9/10/10 10/11/11
f 10/11/12 11/12/13 12/9/9
s 5
f 16/13/14 13/14/15 14/15/16
f 14/15/16 15/16/17 16/13/14
s 6
f 20/17/18 17/18/19 18/19/20
f 18/19/20 19/20/21 20/17/18
f 24/21/22 21/22/23 22/23/24
f 22/23/24 23/24/25 24/21/22
s 7
f 28/25/26 25/26/27 26/27/28
f 26/27/28 27/28/29 28/25/26
s 6
f 17/18/19 23/24/25 22/23/24
f 22/23/24 18/19/20 17/18/19
s 7
f 30/29/30 29/30/31 27/28/29
f 27/28/29 26/27/28 30/29/30
f 32/31/32 31/32/33 29/30/31
f 29/30/31 30/29/30 32/31/32
s 5
f 36/33/34 33/34/34 34/35/35
f 34/35/35 35/36/36 36/33/34
s 8
f 40/37/37 37/38/38 38/39/39
f 38/39/39 39/40/40 40/37/37
s 5
f 13/14/15 35/36/36 34/35/35
f 34/35/35 14/15/16 13/14/15
s 8
f 42/41/41 41/42/42 39/40/40
f 39/40/40 38/39/39 42/41/41
f 44/43/43 43/44/44 41/42/42
f 41/42/42 42/41/41 44/43/43
s 0
f 48/45/45 45/46/46 46/47/47
f 46/47/48 47/48/49 48/45/50
s 6
f 20/17/18 19/20/21 49/49/51
f 49/49/51 50/50/52 20/17/18
s 7
f 32/31/32 51/51/53 52/52/54
f 52/52/54 31/32/33 32/31/32
s 0
f 50/50/52 49/49/55 47/48/47
f 47/48/56 46/47/56 50/50/57
f 51/51/58 53/53/59 54/54/60
f 54/54/60 52/52/61 51/51/58
f 56/55/62 55/56/63 54/54/64
f 54/54/65 53/53/65 56/55/66
s 5
f 58/57/67 16/13/14 15/16/17
f 15/16/17 57/58/68 58/57/67
s 8
f 60/59/69 59/60/70 43/44/44
f 43/44/44 44/43/43 60/59/69
s 0
f 9/10/71 58/57/72 57/58/73
f 57/58/73 10/11/74 9/10/74
f 62/61/75 61/62/76 59/60/77
f 59/60/77 60/59/69 62/61/78
f 64/63/79 63/64/80 61/62/81
f 61/62/82 62/61/75 64/63/83
s 2
f 68/65/84 65/66/85 66/67/86
f 66/67/86 67/68/87 68/65/84
s 23
f 72/69/88 69/70/89 70/71/90
f 70/71/90 71/72/91 72/69/88
f 45/46/92 48/45/45 73/73/93
f 73/73/93 74/74/94 45/46/92
s 24
f 56/55/95 75/75/96 76/76/97
f 76/76/97 55/56/63 56/55/95
s 23
f 74/74/94 73/73/93 71/72/91
f 71/72/91 70/71/90 74/74/94
s 24
f 75/75/96 77/77/98 78/78/99
f 78/78/99 76/76/97 75/75/96
f 80/79/100 79/80/101 78/78/99
f 78/78/99 77/77/98 80/79/100
s 2
f 82/81/102 12/9/9 11/12/103
f 11/12/103 81/82/104 82/81/102
s 25
f 84/83/105 83/84/106 63/64/107
f 63/64/107 64/63/79 84/83/105
s 2
f 65/66/85 82/81/102 81/82/104
f 81/82/104 66/67/86 65/66/85
s 25
f 86/85/108 85/86/109 83/84/106
f 83/84/106 84/83/105 86/85/108
f 88/87/110 87/88/111 85/86/109
f 85/86/109 86/85/108 88/87/110
s 23
f 92/89/112 89/90/113 90/91/114
f 90/91/114 91/92/115 92/89/112
f 69/70/89 72/69/88 93/93/116
f 93/93/116 94/94/117 69/70/89
s 24
f 80/79/100 95/95/118 96/96/119
f 96/96/119 79/80/101 80/79/100
s 23
f 94/94/117 93/93/116 91/92/115
f 91/92/115 90/91/114 94/94/117
s 24
f 95/95/118 97/97/120 98/98/121
f 98/98/121 96/96/119 95/95/118
f 100/99/122 99/100/123 98/98/121
f 98/98/121 97/97/120 100/99/122
s 2
f 102/101/124 68/65/84 67/68/87
f 67/68/87 101/102/125 102/101/124
s 25
f 104/103/126 103/104/127 87/88/111
f 87/88/111 88/87/110 104/103/126
s 2
f 5/6/6 102/101/124 101/102/125
f 101/102/125 6/7/7 5/6/6
s 25
f 106/105/128 105/106/129 103/104/127
f 103/104/127 104/103/126 106/105/128
f 108/107/130 107/108/131 105/106/129
f 105/106/129 106/105/128 108/107/130
s 1
f 112/109/132 109/110/133 110/111/134
f 110/111/134 111/112/135 112/109/132
f 116/113/136 113/114/137 114/115/138
f 114/115/138 115/116/139 116/113/136
s 26
f 120/117/140 117/118/141 118/119/142
f 118/119/142 119/120/143 120/117/140
s 0
f 89/121/144 92/122/112 121/123/145
f 121/123/146 122/124/147 89/121/148
f 100/99/149 123/125/150 124/126/151
f 124/126/152 99/100/153 100/99/149
f 122/124/154 121/123/155 119/127/156
f 119/120/156 118/119/157 122/128/158
f 123/125/159 125/129/160 126/130/161
f 126/130/162 124/126/163 123/125/164
f 128/131/165 127/132/166 126/130/167
f 126/130/162 125/129/168 128/131/165
f 130/133/169 8/5/5 7/8/8
f 7/8/8 129/134/170 130/133/171
f 132/135/172 131/136/173 107/108/174
f 107/108/174 108/107/130 132/135/175
f 113/114/176 130/133/169 129/134/177
f 129/134/178 114/115/179 113/114/176
f 134/137/180 133/138/181 131/136/182
f 131/136/183 132/135/183 134/137/180
s 45
f 136/139/184 135/140/185 133/138/181
f 133/138/181 134/137/180 136/139/184
s 26
f 140/141/186 137/142/187 138/143/188
f 138/143/188 139/144/189 140/141/186
f 117/118/141 120/117/140 141/145/190
f 141/145/190 142/146/191 117/118/141
s 46
f 128/131/192 143/147/193 144/148/194
f 144/148/194 127/132/166 128/131/192
s 26
f 142/146/191 141/145/190 139/144/189
f 139/144/189 138/143/188 142/146/191
s 46
f 143/147/193 145/149/195 146/150/196
f 146/150/196 144/148/194 143/147/193
f 148/151/197 147/152/198 146/150/196
f 146/150/196 145/149/195 148/151/197
s 1
f 150/153/199 116/113/136 115/116/139
f 115/116/139 149/154/200 150/153/199
s 45
f 152/155/201 151/156/202 135/140/185
f 135/140/185 136/139/184 152/155/201
s 1
f 109/110/133 150/153/199 149/154/200
f 149/154/200 110/111/134 109/110/133
s 45
f 154/157/203 153/158/204 151/156/202
f 151/156/202 152/155/201 154/157/203
f 156/159/205 155/160/206 153/158/204
f 153/158/204 154/157/203 156/159/205
s 1
f 160/161/207 157/162/208 158/163/209
f 158/163/209 159/164/210 160/161/207
s 26
f 164/165/211 161/166/212 162/167/213
f 162/167/213 163/168/214 164/165/211
f 137/142/187 140/141/186 165/169/215
f 165/169/215 166/170/216 137/142/187
s 46
f 148/151/197 167/171/217 168/172/218
f 168/172/218 147/152/198 148/151/197
s 26
f 166/170/216 165/169/215 163/168/214
f 163/168/214 162/167/213 166/170/216
s 46
f 167/171/217 169/173/219 170/174/220
f 170/174/220 168/172/218 167/171/217
f 172/175/221 171/176/222 170/174/220
f 170/174/220 169/173/219 172/175/221
s 1
f 174/177/223 112/109/132 111/112/135
f 111/112/135 173/178/224 174/177/223
s 45
f 176/179/225 175/180/226 155/160/206
f 155/160/206 156/159/205 176/179/225
s 1
f 157/181/208 174/177/223 173/178/224
f 173/178/224 158/182/209 157/181/208
s 45
f 178/183/227 177/184/228 175/180/226
f 175/180/226 176/179/225 178/183/227
f 180/185/229 179/186/230 177/184/228
f 177/184/228 178/183/227 180/185/229
s 26
f 184/187/231 181/188/232 182/189/233
f 182/189/233 183/190/234 184/187/231
f 161/166/212 164/165/211 185/191/235
f 185/191/235 186/192/236 161/166/212
s 46
f 172/175/221 187/193/237 188/194/238
f 188/194/238 171/176/222 172/175/221
s 26
f 186/192/236 185/191/235 183/190/234
f 183/190/234 182/189/233 186/192/236
s 46
f 187/193/237 189/195/239 190/196/240
f 190/196/240 188/194/238 187/193/237
f 192/197/241 191/198/242 190/196/240
f 190/196/240 189/195/239 192/197/241
s 1
f 194/199/243 160/161/207 159/164/210
f 159/164/210 193/200/244 194/199/243
s 45
f 196/201/245 195/202/246 179/186/230
f 179/186/230 180/185/229 196/201/245
s 1
f 1/2/2 194/199/243 193/200/244
f 193/200/244 2/3/3 1/2/2
s 45
f 198/203/247 197/204/248 195/202/246
f 195/202/246 196/201/245 198/203/247
f 200/205/249 199/206/250 197/204/248
f 197/204/248 198/203/247 200/205/249
s 47
f 204/207/251 201/208/251 202/209/252
f 202/209/252 203/210/252 204/207/251
f 203/211/252 202/212/252 205/213/253
f 205/213/253 206/214/253 203/211/252
f 206/214/253 205/213/253 207/215/254
f 207/215/254 208/216/254 206/214/253
f 208/217/254 207/218/254 209/219/255
f 209/219/255 210/220/256 208/217/254
f 210/221/256 209/222/255 211/223/257
f 211/223/257 212/224/257 210/221/256
f 212/224/257 211/223/257 213/225/251
f 213/225/251 214/226/251 212/224/257
s 0
f 220/227/258 215/228/258 216/229/258
f 220/227/258 216/229/258 217/230/258
f 220/227/258 217/230/258 218/231/258
f 218/231/258 219/232/258 220/227/258
s 52
f 224/233/251 221/234/251 222/235/252
f 222/235/252 223/236/252 224/233/251
f 223/237/252 222/238/252 225/239/253
f 225/239/253 226/240/253 223/237/252
f 226/240/253 225/239/253 227/241/254
f 227/241/254 228/242/254 226/240/253
f 228/243/254 227/244/254 229/245/255
f 229/245/255 230/246/256 228/243/254
f 230/247/256 229/248/255 231/249/257
f 231/249/257 232/250/257 230/247/256
f 232/250/257 231/249/257 233/251/251
f 233/251/251 234/252/251 232/250/257
s 0
f 240/253/258 235/254/258 236/255/258
f 240/253/258 236/255/258 237/256/258
f 240/253/258 237/256/258 238/257/258
f 238/257/258 239/258/258 240/253/258
s 57
f 244/259/251 241/260/251 242/261/259
f 242/261/259 243/262/252 244/259/251
f 243/263/252 242/264/259 245/265/253
f 245/265/253 246/266/253 243/263/252
f 246/266/253 245/265/253 247/267/254
f 247/267/254 248/268/260 246/266/253
f 248/269/260 247/270/254 249/271/256
f 249/271/256 250/272/256 248/269/260
f 250/273/256 249/274/256 251/275/257
f 251/275/257 252/276/257 250/273/256
f 252/276/257 251/275/257 253/277/251
f 253/277/251 254/278/251 252/276/257
s 0
f 260/279/258 255/280/258 256/281/258
f 260/279/258 256/281/258 257/282/258
f 260/279/258 257/282/258 258/283/258
f 258/283/258 259/284/258 260/279/258
s 62
f 264/285/251 261/286/251 262/287/259
f 262/287/259 263/288/252 264/285/251
f 263/289/252 262/290/259 265/291/253
f 265/291/253 266/292/253 263/289/252
f 266/292/253 265/291/253 267/293/254
f 267/293/254 268/294/260 266/292/253
f 268/295/260 267/296/254 269/297/255
f 269/297/255 270/298/256 268/295/260
f 270/299/256 269/300/255 271/301/257
f 271/301/257 272/302/257 270/299/256
f 272/302/257 271/301/257 273/303/251
f 273/303/251 274/304/251 272/302/257
s 0
f 280/305/258 275/306/258 276/307/258
f 280/305/258 276/307/258 277/308/258
f 280/305/258 277/308/258 278/309/258
f 278/309/258 279/310/258 280/305/258
s 67
f 284/311/251 281/312/251 282/313/259
f 282/313/259 283/314/259 284/311/251
f 283/315/259 282/316/259 285/317/253
f 285/317/253 286/318/253 283/315/259
f 286/318/253 285/317/253 287/319/260
f 287/319/260 288/320/260 286/318/253
f 288/321/260 287/322/260 289/323/255
f 289/323/255 290/324/256 288/321/260
f 290/325/256 289/326/255 291/327/257
f 291/327/257 292/328/257 290/325/256
f 292/328/257 291/327/257 293/329/251
f 293/329/251 294/330/251 292/328/257
s 0
f 300/331/258 295/332/258 296/333/258
f 300/331/258 296/333/258 297/334/258
f 300/331/258 297/334/258 298/335/258
f 298/335/258 299/336/258 300/331/258
s 72
f 304/337/251 301/338/251 302/339/259
f 302/339/259 303/340/252 304/337/251
f 303/341/252 302/342/259 305/343/253
f 305/343/253 306/344/253 303/341/252
f 306/344/253 305/343/253 307/345/254
f 307/345/254 308/346/260 306/344/253
f 308/347/260 307/348/254 309/349/255
f 309/349/255 310/350/256 308/347/260
f 310/351/256 309/352/255 311/353/257
f 311/353/257 312/354/257 310/351/256
f 312/354/257 311/353/257 313/355/251
f 313/355/251 314/356/251 312/354/257
s 0
f 320/357/258 315/358/258 316/359/258
f 320/357/258 316/359/258 317/360/258
f 320/357/258 317/360/258 318/361/258
f 318/361/258 319/362/258 320/357/258
f 324/363/258 321/364/258 322/365/258
f 322/365/258 323/366/258 324/363/258
f 328/367/261 325/368/261 326/369/261
f 326/369/261 327/370/261 328/367/261
f 332/371/257 329/372/257 330/373/257
f 330/373/257 331/374/257 332/371/257
f 336/375/262 333/376/262 334/377/262
f 334/377/262 335/378/262 336/375/262
f 340/379/253 337/380/253 338/381/253
f 338/381/253 339/382/253 340/379/253
f 344/383/263 341/384/263 342/385/263
f 342/385/263 343/386/263 344/383/263
f 348/387/261 345/388/261 346/389/261
f 346/389/261 347/390/261 348/387/261
f 352/391/258 349/392/258 350/393/258
f 350/393/258 351/394/258 352/391/258
f 356/395/262 353/396/262 354/397/262
f 354/397/262 355/398/262 356/395/262
f 360/399/263 357/400/263 358/401/263
f 358/401/263 359/402/263 360/399/263
f 364/403/257 361/404/257 362/405/257
f 362/405/257 363/406/257 364/403/257
f 368/407/253 365/408/253 366/409/253
f 366/409/253 367/410/253 368/407/253
f 372/411/261 369/412/261 370/413/261
f 370/413/261 371/414/261 372/411/261
f 376/415/261 373/416/261 374/417/261
f 374/417/261 375/418/261 376/415/261
f 380/419/261 377/420/261 378/421/261
f 378/421/261 379/422/261 380/419/261
f 384/423/261 381/424/261 382/425/261
f 382/425/261 383/426/261 384/423/261
f 388/427/262 385/428/262 386/429/262
f 386/429/262 387/430/262 388/427/262
f 392/431/262 389/432/262 390/433/262
f 390/433/262 391/434/262 392/431/262
f 396/435/262 393/436/262 394/437/262
f 394/437/262 395/438/262 396/435/262
f 400/439/262 397/440/262 398/441/262
f 398/441/262 399/442/262 400/439/262
f 404/443/258 401/444/258 402/445/258
f 402/445/258 403/446/258 404/443/258
f 408/447/253 405/448/253 406/449/253
f 406/449/253 407/450/253 408/447/253
f 412/451/263 409/452/263 410/453/263
f 410/453/263 411/454/263 412/451/263
f 416/455/257 413/456/257 414/457/257
f 414/457/257 415/458/257 416/455/257
f 420/459/263 417/453/263 418/452/263
f 418/452/263 419/460/263 420/459/263
f 424/461/253 421/462/253 422/463/253
f 422/463/253 423/464/253 424/461/253
f 428/465/258 425/466/258 426/467/258
f 426/467/258 427/468/258 428/465/258
f 432/469/257 429/470/257 430/471/257
f 430/471/257 431/472/257 432/469/257
f 436/473/264 433/474/264 434/475/264
f 434/475/264 435/476/264 436/473/264
f 440/477/265 437/478/265 438/479/265
f 438/479/265 439/480/265 440/477/265
f 444/481/266 441/482/266 442/483/266
f 442/483/266 443/484/266 444/481/266
f 448/485/267 445/486/267 446/487/267
f 446/487/267 447/488/267 448/485/267
f 452/489/268 449/490/268 450/491/268
f 450/491/268 451/492/268 452/489/268
f 456/493/269 453/494/269 454/495/269
f 454/495/269 455/496/269 456/493/269
f 460/497/270 457/498/270 458/499/270
f 458/499/270 459/500/270 460/497/270
f 464/501/271 461/502/271 462/503/271
f 462/503/271 463/504/271 464/501/271
f 468/505/258 465/506/258 466/507/258
f 466/507/258 467/508/258 468/505/258
f 472/509/257 469/510/257 470/511/257
f 470/511/257 471/512/257 472/509/257
f 476/513/263 473/514/263 474/515/263
f 474/515/263 475/516/263 476/513/263
f 480/517/253 477/518/253 478/519/253
f 478/519/253 479/520/253 480/517/253
f 484/521/258 481/522/258 482/523/258
f 482/523/258 483/524/258 484/521/258
f 488/525/257 485/526/257 486/527/257
f 486/527/257 487/528/257 488/525/257
f 492/529/263 489/530/263 490/531/263
f 490/531/263 491/532/263 492/529/263
f 496/533/253 493/534/253 494/535/253
f 494/535/253 495/536/253 496/533/253
f 500/537/261 497/538/261 498/539/261
f 498/539/261 499/540/261 500/537/261
f 504/541/262 501/542/262 502/543/262
f 502/543/262 503/544/262 504/541/262
f 508/545/261 505/546/261 506/547/261
f 506/547/261 507/548/261 508/545/261
f 512/549/262 509/550/262 510/551/262
f 510/551/262 511/552/262 512/549/262
f 516/553/262 513/554/262 514/555/262
f 514/555/262 515/556/262 516/553/262
f 520/557/261 517/558/261 518/559/261
f 518/559/261 519/560/261 520/557/261
f 524/561/262 521/562/262 522/563/262
f 522/563/262 523/564/262 524/561/262
f 528/565/261 525/566/261 526/567/261
f 526/567/261 527/568/261 528/565/261
s 181
f 532/569/272 529/570/273 530/571/274
f 530/571/274 531/572/275 532/569/272
s 182
f 536/573/276 533/574/277 534/575/278
f 534/575/278 535/576/279 536/573/276
s 183
f 540/577/280 537/578/281 538/579/282
f 538/579/282 539/580/283 540/577/280
s 181
f 543/581/284 541/582/285 529/570/273
f 529/570/273 542/583/286 543/581/284
s 182
f 546/584/287 534/575/278 544/585/288
f 544/585/288 545/586/289 546/584/287
s 183
f 549/587/290 547/588/291 537/578/281
f 537/578/281 548/589/292 549/587/290
s 182
f 552/590/293 546/584/287 550/591/294
f 550/591/294 551/592/295 552/590/293
s 184
f 556/593/296 553/594/297 554/595/298
f 554/595/298 555/596/299 556/593/296
f 559/597/300 554/595/298 557/598/301
f 557/598/301 558/599/302 559/597/300
s 183
f 562/600/303 560/601/304 548/589/292
f 548/589/292 561/602/305 562/600/303
s 181
f 565/603/306 532/569/272 563/604/307
f 563/604/307 564/605/308 565/603/306
s 185
f 569/606/309 566/607/310 567/608/311
f 567/608/311 568/609/312 569/606/309
f 572/610/313 567/608/311 570/611/314
f 570/611/314 571/612/315 572/610/313
s 182
f 574/613/316 573/614/317 535/576/279
f 535/576/279 552/590/293 574/613/316
s 185
f 577/615/318 572/610/313 575/616/319
f 575/616/319 576/617/320 577/615/318
s 184
f 580/618/321 578/619/322 555/596/299
f 555/596/299 579/620/323 580/618/321
s 183
f 548/589/292 537/578/281 540/577/280
f 540/577/280 561/602/305 548/589/292
s 182
f 535/576/279 534/575/278 546/584/287
f 546/584/287 552/590/293 535/576/279
s 185
f 568/609/312 567/608/311 572/610/313
f 572/610/313 577/615/318 568/609/312
s 184
f 555/596/299 554/595/298 559/597/300
f 559/597/300 579/620/323 555/596/299
s 181
f 529/570/273 532/569/272 565/603/306
f 565/603/306 542/583/286 529/570/273
s 182
f 581/621/324 544/585/288 534/575/278
f 534/575/278 533/574/277 581/621/324
s 181
f 582/622/325 530/571/274 529/570/273
f 529/570/273 541/582/285 582/622/325
s 183
f 583/623/326 538/579/282 537/578/281
f 537/578/281 547/588/291 583/623/326
s 184
f 584/624/327 557/598/301 554/595/298
f 554/595/298 553/594/297 584/624/327
s 182
f 585/625/328 550/591/294 546/584/287
f 546/584/287 545/586/289 585/625/328
s 183
f 586/626/329 549/587/290 548/589/292
f 548/589/292 560/601/304 586/626/329
s 185
f 587/627/330 570/611/314 567/608/311
f 567/608/311 566/607/310 587/627/330
s 181
f 588/628/331 563/604/307 532/569/272
f 532/569/272 531/572/275 588/628/331
s 182
f 589/629/332 536/573/276 535/576/279
f 535/576/279 573/614/317 589/629/332
s 184
f 590/630/333 556/593/296 555/596/299
f 555/596/299 578/619/322 590/630/333
s 185
f 591/631/334 575/616/319 572/610/313
f 572/610/313 571/612/315 591/631/334
s 182
f 592/632/335 574/613/316 552/590/293
f 552/590/293 551/592/295 592/632/335
s 0
f 596/633/261 593/634/261 594/635/261
f 594/635/261 595/636/261 596/633/261
f 600/637/258 597/638/258 598/639/258
f 598/639/258 599/640/258 600/637/258
f 604/641/262 601/642/262 602/643/262
f 602/643/262 603/644/262 604/641/262
f 608/645/253 605/646/253 606/647/253
f 606/647/253 607/648/253 608/645/253
f 612/649/253 609/650/253 610/651/253
f 610/651/253 611/652/253 612/649/253
f 616/653/253 613/654/253 614/655/253
f 614/655/253 615/656/253 616/653/253
f 620/657/253 617/658/253 618/659/253
f 618/659/253 619/660/253 620/657/253
f 624/661/253 621/662/253 622/663/253
f 622/663/253 623/664/253 624/661/253
f 628/665/258 625/666/258 626/667/258
f 626/667/258 627/668/258 628/665/258
f 632/669/262 629/670/262 630/671/262
f 630/671/262 631/672/262 632/669/262
f 636/673/263 633/674/263 634/668/263
f 634/668/263 635/675/263 636/673/263
f 640/676/261 637/677/261 638/678/261
f 638/678/261 639/679/261 640/676/261
f 644/680/253 641/681/253 642/682/253
f 642/682/253 643/683/253 644/680/253
f 648/684/253 645/685/253 646/686/253
f 646/686/253 647/687/253 648/684/253
f 652/688/253 649/689/253 650/690/253
f 650/690/253 651/691/253 652/688/253
f 656/692/253 653/693/253 654/694/253
f 654/694/253 655/695/253 656/692/253
f 660/696/263 657/697/263 658/698/263
f 658/698/263 659/699/263 660/696/263
f 664/700/261 661/701/261 662/702/261
f 662/702/261 663/703/261 664/700/261
f 668/704/258 665/698/258 666/697/258
f 666/697/258 667/705/258 668/704/258
f 672/706/262 669/707/262 670/708/262
f 670/708/262 671/709/262 672/706/262
